CheyenneSans-Italic[wght].glyphspackage
{
glyphname = exclam;
layers = (
{
layerId = "4085F1A9-CD4F-447E-BF4E-06E18D46F28C";
shapes = (
{
closed = 1;
nodes = (
(20,197,l),
(-7,0,l),
(203,0,l),
(231,197,l)
);
},
{
closed = 1;
nodes = (
(89,742,l),
(77,266,l),
(198,266,l),
(320,742,l)
);
}
);
width = 287;
},
{
layerId = "60E9CA7D-7455-4953-BBCB-0950C5D70619";
shapes = (
{
closed = 1;
nodes = (
(46,116,l),
(30,0,l),
(136,0,l),
(153,116,l)
);
},
{
closed = 1;
nodes = (
(132,742,l),
(80,185,l),
(139,185,l),
(238,742,l)
);
}
);
width = 242;
},
{
guides = (
{
angle = 90;
position = "{90, 0}";
},
{
angle = 90;
position = "{168, 0}";
}
);
layerId = "0B47C4A7-9101-48D0-A00F-70D9DFD57C4A";
shapes = (
{
closed = 1;
nodes = (
(58,79,l),
(47,0,l),
(106,0,l),
(117,79,l)
);
},
{
closed = 1;
nodes = (
(151,742,l),
(82,148,l),
(112,148,l),
(201,742,l)
);
}
);
width = 221;
}
);
unicode = 33;
}
{
glyphname = quotedbl;
layers = (
{
layerId = "7AE3EAE7-5E60-4D4F-B196-8455048EE550";
shapes = (
{
alignment = -1;
pos = (257,0);
ref = quotesingle;
},
{
alignment = -1;
pos = (1,0);
ref = quotesingle;
}
);
width = 518;
},
{
layerId = "98A2E2AB-A518-47A0-BAB2-E4787431E873";
shapes = (
{
closed = 1;
nodes = (
(300.291,742,l),
(296.428,507,l),
(347.606,507,l),
(407.475,742,l)
);
},
{
closed = 1;
nodes = (
(132.291,742,l),
(128.428,507,l),
(179.606,507,l),
(239.475,742,l)
);
}
);
width = 404;
},
{
layerId = "0D84DF16-5466-4685-B199-9D5CA7B8601A";
shapes = (
{
alignment = -1;
pos = (127,0);
ref = quotesingle;
},
{
alignment = -1;
pos = (-2,0);
ref = quotesingle;
}
);
width = 352;
}
);
leftKerningGroup = quotedbl2;
rightKerningGroup = quotedbl;
unicode = 34;
}
{
glyphname = numbersign;
layers = (
{
layerId = "49A8D228-E827-44F0-AB9F-01876E91E3EE";
shapes = (
{
closed = 1;
nodes = (
(220,744,l),
(112,9,l),
(209,-3,l),
(316,734,l)
);
},
{
closed = 1;
nodes = (
(444,744,l),
(336,9,l),
(433,-3,l),
(540,734,l)
);
},
{
closed = 1;
nodes = (
(29,318,l),
(29,222,l),
(589,222,l),
(589,318,l)
);
},
{
closed = 1;
nodes = (
(62,528,l),
(62,432,l),
(622,432,l),
(622,528,l)
);
}
);
width = 614;
},
{
layerId = "2C111888-158E-4586-831E-29429C16F99E";
shapes = (
{
closed = 1;
nodes = (
(239,743,l),
(127,6,l),
(184,-2,l),
(295,736,l)
);
},
{
closed = 1;
nodes = (
(449,743,l),
(337,6,l),
(393,-2,l),
(505,736,l)
);
},
{
closed = 1;
nodes = (
(43,297,l),
(43,241,l),
(548,241,l),
(548,297,l)
);
},
{
closed = 1;
nodes = (
(76,507,l),
(76,451,l),
(581,451,l),
(581,507,l)
);
}
);
width = 587;
},
{
layerId = "1D6C4D12-DF74-4368-BFD3-C72FEEEBBCF3";
shapes = (
{
closed = 1;
nodes = (
(248,743,l),
(134,5,l),
(172,-1,l),
(286,737,l)
);
},
{
closed = 1;
nodes = (
(451,743,l),
(337,5,l),
(375,-1,l),
(489,737,l)
);
},
{
closed = 1;
nodes = (
(49,288,l),
(49,250,l),
(529,250,l),
(529,288,l)
);
},
{
closed = 1;
nodes = (
(82,498,l),
(82,460,l),
(562,460,l),
(562,498,l)
);
}
);
width = 574;
}
);
unicode = 35;
}
{
glyphname = dollar;
layers = (
{
layerId = "F59E5572-F07E-4A84-84E1-CE36D2AD8363";
shapes = (
{
closed = 1;
nodes = (
(661,331,o),
(595,417,o),
(500,441,cs),
(426,459,l),
(446,597,l),
(484,597,o),
(505,586,o),
(557,542,c),
(651,645,l),
(607,684,o),
(545,714,o),
(466,733,c),
(476,802,l),
(353,802,l),
(341,736,l),
(215,736,o),
(89,645,o),
(72,526,cs),
(56,416,o),
(105,314,o),
(282,292,c),
(258,129,l),
(197,145,o),
(141,179,o),
(96,216,c),
(-12,111,l),
(51,47,o),
(126,7,o),
(238,-2,c),
(227,-73,l),
(353,-73,l),
(364,-2,l),
(517,-2,o),
(629,102,o),
(646,223,cs)
);
},
{
closed = 1;
nodes = (
(274,478,l),
(248,485,o),
(234,500,o),
(234,528,cs),
(234,574,o),
(290,600,o),
(324,600,c),
(307,471,l)
);
},
{
closed = 1;
nodes = (
(400,274,l),
(467,265,o),
(485,242,o),
(480,211,c),
(476,176,o),
(438,147,o),
(381,140,c)
);
}
);
width = 693;
},
{
layerId = "84D84D83-1F61-4310-B099-D476523EDF4B";
shapes = (
{
closed = 1;
nodes = (
(554,282,o),
(500,352,o),
(400,392,c),
(355,409,l),
(391,673,l),
(450,669,o),
(491,647,o),
(530,597,c),
(582,645,l),
(538,698,o),
(482,734,o),
(401,745,c),
(411,816,l),
(347,816,l),
(337,747,l),
(218,747,o),
(109,662,o),
(94,550,c),
(78,447,o),
(127,386,o),
(281,332,c),
(246,63,l),
(152,68,o),
(106,105,o),
(64,167,c),
(7,121,l),
(54,39,o),
(116,-5,o),
(236,-8,c),
(224,-87,l),
(288,-87,l),
(299,-8,l),
(434,-8,o),
(527,72,o),
(542,182,cs)
);
},
{
closed = 1;
nodes = (
(259,435,l),
(191,469,o),
(170,500,o),
(176,547,cs),
(184,610,o),
(234,667,o),
(327,674,c),
(294,421,l)
);
},
{
closed = 1;
nodes = (
(342,317,l),
(435,282,o),
(468,245,o),
(458,184,c),
(450,118,o),
(391,69,o),
(309,66,c)
);
}
);
width = 591;
},
{
layerId = "5E3EA0A1-240F-463B-ACAB-4136DB7510A5";
shapes = (
{
closed = 1;
nodes = (
(506,259,o),
(457,322,o),
(355,370,cs),
(322,386,l),
(366,707,l),
(434,701,o),
(485,675,o),
(517,622,c),
(551,645,l),
(507,705,o),
(453,743,o),
(371,751,c),
(381,822,l),
(344,822,l),
(335,752,l),
(219,752,o),
(118,669,o),
(104,561,c),
(88,461,o),
(137,418,o),
(281,350,c),
(240,33,l),
(132,33,o),
(90,71,o),
(49,145,c),
(16,125,l),
(55,36,o),
(112,-10,o),
(235,-10,c),
(223,-93,l),
(259,-93,l),
(270,-10,l),
(396,-10,o),
(480,59,o),
(494,163,cs)
);
},
{
closed = 1;
nodes = (
(252,415,l),
(165,461,o),
(141,500,o),
(149,556,cs),
(161,627,o),
(209,698,o),
(329,707,c),
(288,398,l)
);
},
{
closed = 1;
nodes = (
(316,337,l),
(421,289,o),
(460,246,o),
(448,171,c),
(438,92,o),
(369,33,o),
(276,33,c)
);
}
);
width = 544;
}
);
unicode = 36;
}
{
glyphname = percent;
layers = (
{
layerId = "4A771BA9-DE6D-4DFF-875A-35CEAA78AE27";
shapes = (
{
closed = 1;
nodes = (
(184,753,o),
(86,656,o),
(71,552,cs),
(55,439,o),
(131,334,o),
(248,334,cs),
(356,334,o),
(450,427,o),
(464,530,cs),
(480,644,o),
(405,753,o),
(291,753,cs)
);
},
{
closed = 1;
nodes = (
(207,432,o),
(204,463,o),
(213,529,cs),
(224,609,o),
(248,656,o),
(292,656,cs),
(328,656,o),
(332,622,o),
(322,551,cs),
(312,475,o),
(290,432,o),
(244,432,cs)
);
},
{
closed = 1;
nodes = (
(642,409,o),
(545,312,o),
(530,208,cs),
(514,95,o),
(589,-10,o),
(706,-10,cs),
(814,-10,o),
(908,83,o),
(923,186,cs),
(939,300,o),
(863,409,o),
(749,409,cs)
);
},
{
closed = 1;
nodes = (
(666,88,o),
(662,119,o),
(672,185,cs),
(683,265,o),
(707,312,o),
(751,312,cs),
(787,312,o),
(791,278,o),
(781,207,cs),
(770,131,o),
(749,88,o),
(703,88,cs)
);
},
{
alignment = -1;
pos = (358,0);
ref = fraction;
}
);
width = 973;
},
{
layerId = "063EDB9A-26EE-473F-A1FA-D59C439A67CE";
shapes = (
{
closed = 1;
nodes = (
(190,753,o),
(108,673,o),
(91,546,cs),
(73,413,o),
(135,329,o),
(235,329,cs),
(330,329,o),
(409,408,o),
(427,536,cs),
(444,668,o),
(383,753,o),
(285,753,cs)
);
},
{
closed = 1;
nodes = (
(171,380,o),
(146,443,o),
(157,535,cs),
(170,633,o),
(218,702,o),
(284,702,cs),
(345,702,o),
(373,639,o),
(359,545,cs),
(346,448,o),
(299,380,o),
(233,380,cs)
);
},
{
closed = 1;
nodes = (
(590,414,o),
(509,334,o),
(492,207,cs),
(474,74,o),
(535,-10,o),
(635,-10,cs),
(731,-10,o),
(810,69,o),
(827,197,cs),
(846,329,o),
(784,414,o),
(686,414,cs)
);
},
{
closed = 1;
nodes = (
(575,41,o),
(547,106,o),
(559,196,cs),
(572,292,o),
(622,363,o),
(686,363,cs),
(745,363,o),
(773,298,o),
(761,206,c),
(747,110,o),
(699,41,o),
(634,41,cs)
);
},
{
alignment = -1;
pos = (326,0);
ref = fraction;
}
);
width = 891;
},
{
layerId = "A1D8A8A0-7317-4958-838D-B74999429465";
shapes = (
{
closed = 1;
nodes = (
(192,753,o),
(118,681,o),
(100,543,cs),
(81,401,o),
(137,327,o),
(229,327,cs),
(318,327,o),
(391,399,o),
(410,539,cs),
(428,679,o),
(373,753,o),
(282,753,cs)
);
},
{
closed = 1;
nodes = (
(155,357,o),
(119,434,o),
(132,538,cs),
(146,644,o),
(205,723,o),
(280,723,cs),
(353,723,o),
(391,647,o),
(376,542,cs),
(362,435,o),
(303,357,o),
(228,357,cs)
);
},
{
closed = 1;
nodes = (
(566,416,o),
(493,344,o),
(475,206,cs),
(456,64,o),
(511,-10,o),
(603,-10,cs),
(693,-10,o),
(765,62,o),
(784,202,cs),
(803,342,o),
(748,416,o),
(657,416,cs)
);
},
{
closed = 1;
nodes = (
(533,20,o),
(494,100,o),
(507,201,cs),
(521,304,o),
(583,386,o),
(656,386,cs),
(726,386,o),
(765,307,o),
(752,205,cs),
(737,101,o),
(676,20,o),
(603,20,cs)
);
},
{
alignment = -1;
pos = (311,0);
ref = fraction;
}
);
width = 853;
}
);
unicode = 37;
}
{
glyphname = ampersand;
layers = (
{
guides = (
{
angle = 130.836;
position = "{264, 330}";
},
{
angle = 310.205;
position = "{406, 489}";
}
);
layerId = "F877A2A6-2AE9-47A5-964B-6AC3A00E0840";
shapes = (
{
closed = 1;
nodes = (
(320,753,o),
(210,675,o),
(195,570,cs),
(186,505,o),
(219,473,o),
(259,417,c),
(120,349,o),
(45,291,o),
(30,186,cs),
(14,75,o),
(77,-5,o),
(256,-5,cs),
(326,-5,o),
(420,9,o),
(512,64,c),
(558,0,l),
(786,0,l),
(647,194,l),
(699,272,o),
(786,363,o),
(833,441,c),
(626,441,l),
(610,397,o),
(584,341,o),
(570,307,c),
(508,394,l),
(599,449,o),
(679,511,o),
(689,589,cs),
(703,685,o),
(607,753,o),
(465,753,cs)
);
},
{
closed = 1;
nodes = (
(496,640,o),
(523,618,o),
(517,578,cs),
(513,548,o),
(492,521,o),
(441,489,c),
(422,514,l),
(397,545,o),
(390,566,o),
(393,585,cs),
(397,614,o),
(423,636,o),
(458,638,cs)
);
},
{
closed = 1;
nodes = (
(433,178,l),
(401,153,o),
(352,144,o),
(329,144,cs),
(301,144,o),
(261,160,o),
(257,200,c),
(251,247,o),
(298,284,o),
(339,307,c)
);
}
);
width = 854;
},
{
guides = (
{
angle = 130.836;
position = "{264, 330}";
},
{
angle = 310.205;
position = "{406, 489}";
}
);
layerId = "47C38B4B-FB8A-4134-B3CD-D82C7CCC786A";
shapes = (
{
closed = 1;
nodes = (
(277,753,o),
(180,674,o),
(167,569,c),
(158,508,o),
(181,473,o),
(229,411,c),
(107,349,o),
(42,283,o),
(29,187,cs),
(13,73,o),
(79,-5,o),
(218,-5,cs),
(292,-5,o),
(373,21,o),
(454,83,c),
(512,0,l),
(619,0,l),
(520,145,l),
(577,214,o),
(633,290,o),
(661,397,c),
(570,397,l),
(552,299,o),
(504,228,o),
(481,201,c),
(351,392,l),
(497,458,o),
(552,535,o),
(561,602,cs),
(574,695,o),
(500,753,o),
(396,753,cs)
);
},
{
closed = 1;
nodes = (
(444,691,o),
(487,661,o),
(479,600,cs),
(471,546,o),
(428,499,o),
(315,445,c),
(296,473,ls),
(269,511,o),
(253,532,o),
(259,573,cs),
(267,635,o),
(317,690,o),
(390,690,cs)
);
},
{
closed = 1;
nodes = (
(417,139,l),
(368,96,o),
(303,68,o),
(247,68,cs),
(175,68,o),
(120,114,o),
(127,188,cs),
(133,259,o),
(192,315,o),
(270,353,c)
);
}
);
width = 690;
},
{
guides = (
{
angle = 308.914;
position = "{290, 286}";
}
);
layerId = "7B6169A8-D8AD-4E0B-B0BB-F8A93FFABE5A";
shapes = (
{
closed = 1;
nodes = (
(258,753,o),
(167,673,o),
(154,568,c),
(145,510,o),
(164,473,o),
(215,408,c),
(101,349,o),
(41,279,o),
(29,187,cs),
(13,72,o),
(80,-5,o),
(201,-5,cs),
(277,-5,o),
(352,27,o),
(427,92,c),
(491,0,l),
(543,0,l),
(462,122,l),
(521,188,o),
(564,257,o),
(583,377,c),
(545,377,l),
(526,255,o),
(467,177,o),
(440,153,c),
(280,391,l),
(450,462,o),
(494,546,o),
(503,608,cs),
(515,700,o),
(452,753,o),
(365,753,cs)
);
},
{
closed = 1;
nodes = (
(421,714,o),
(470,681,o),
(461,610,cs),
(452,545,o),
(399,489,o),
(258,425,c),
(239,454,l),
(211,495,o),
(191,516,o),
(198,567,cs),
(208,645,o),
(269,714,o),
(359,714,cs)
);
},
{
closed = 1;
nodes = (
(409,121,l),
(353,70,o),
(280,33,o),
(209,33,cs),
(118,33,o),
(56,93,o),
(68,183,cs),
(79,264,o),
(144,329,o),
(238,374,c)
);
}
);
width = 616;
}
);
unicode = 38;
}
{
glyphname = quotesingle;
layers = (
{
layerId = "7AE3EAE7-5E60-4D4F-B196-8455048EE550";
shapes = (
{
closed = 1;
nodes = (
(104,742,l),
(104,411,l),
(199,411,l),
(291,742,l)
);
}
);
width = 262;
},
{
layerId = "98A2E2AB-A518-47A0-BAB2-E4787431E873";
shapes = (
{
closed = 1;
nodes = (
(133.291,742,l),
(129.428,507,l),
(180.606,507,l),
(240.475,742,l)
);
}
);
width = 243;
},
{
layerId = "0D84DF16-5466-4685-B199-9D5CA7B8601A";
shapes = (
{
closed = 1;
nodes = (
(145.4,742,l),
(139.7,550,l),
(172.,550,l),
(218.55,742,l)
);
}
);
width = 235;
}
);
leftKerningGroup = quotedbl2;
rightKerningGroup = quotedbl;
unicode = 39;
}
{
glyphname = parenleft;
layers = (
{
layerId = "6D36DE7A-3498-4CCA-80AC-5FCC24B8EDC5";
shapes = (
{
closed = 1;
nodes = (
(256,-165,l),
(206,-7,o),
(188,125,o),
(209,273,cs),
(234,446,o),
(307,609,o),
(399,742,c),
(239,742,l),
(138,612,o),
(63,459,o),
(40,296,cs),
(13,111,o),
(59,-22,o),
(132,-165,c)
);
}
);
width = 350;
},
{
layerId = "52CA2DEC-CCDD-4868-A7D2-69659C24EBA2";
shapes = (
{
closed = 1;
nodes = (
(200,-165,l),
(151,-10,o),
(134,128,o),
(155,279,cs),
(178,445,o),
(252,609,o),
(338,742,c),
(269,742,l),
(171,614,o),
(93,455,o),
(71,290,c),
(46,112,o),
(82,-23,o),
(148,-165,c)
);
}
);
width = 294;
},
{
layerId = "FE16441F-5029-4BC1-8299-959132AD36E4";
shapes = (
{
closed = 1;
nodes = (
(174,-165,l),
(126,-12,o),
(109,130,o),
(130,282,cs),
(153,445,o),
(227,609,o),
(310,742,c),
(282,742,l),
(186,615,o),
(106,453,o),
(85,287,cs),
(61,112,o),
(92,-23,o),
(155,-165,c)
);
}
);
width = 269;
}
);
unicode = 40;
}
{
glyphname = parenright;
layers = (
{
layerId = "49A8D228-E827-44F0-AB9F-01876E91E3EE";
shapes = (
{
closed = 1;
nodes = (
(110,-165,l),
(211,-35,o),
(285,118,o),
(308,281,cs),
(335,466,o),
(290,599,o),
(217,742,c),
(93,742,l),
(143,584,o),
(161,452,o),
(140,304,cs),
(115,131,o),
(42,-32,o),
(-50,-165,c)
);
}
);
width = 350;
},
{
layerId = "2C111888-158E-4586-831E-29429C16F99E";
shapes = (
{
closed = 1;
nodes = (
(28,-165,l),
(126,-37,o),
(203,122,o),
(226,287,cs),
(250,465,o),
(215,600,o),
(149,742,c),
(97,742,l),
(145,587,o),
(162,449,o),
(142,298,c),
(118,132,o),
(45,-32,o),
(-41,-165,c)
);
}
);
width = 301;
},
{
layerId = "1D6C4D12-DF74-4368-BFD3-C72FEEEBBCF3";
shapes = (
{
closed = 1;
nodes = (
(-9,-165,l),
(87,-38,o),
(166,124,o),
(188,290,cs),
(212,465,o),
(181,600,o),
(118,742,c),
(99,742,l),
(146,589,o),
(163,447,o),
(143,295,cs),
(120,132,o),
(46,-32,o),
(-37,-165,c)
);
}
);
width = 278;
}
);
leftKerningGroup = question;
unicode = 41;
}
{
glyphname = asterisk;
layers = (
{
layerId = "B872A948-CF4A-4CBB-8276-18DBE9F9CB6F";
shapes = (
{
closed = 1;
nodes = (
(468,346,l),
(371,479,l),
(540,524,l),
(518,641,l),
(355,572,l),
(396,742,l),
(274,742,l),
(262,564,l),
(113,637,l),
(58,532,l),
(216,486,l),
(84,358,l),
(184,280,l),
(294,431,l),
(362,280,l)
);
}
);
width = 533;
},
{
layerId = "CDE4D1C1-62F2-4871-801D-D4385200C2D4";
shapes = (
{
closed = 1;
nodes = (
(349,437,l),
(272,553,l),
(406,596,l),
(394,655,l),
(264,600,l),
(292,742,l),
(226,742,l),
(216,597,l),
(97,649,l),
(70,595,l),
(194,556,l),
(85,438,l),
(136,398,l),
(233,529,l),
(293,401,l)
);
}
);
width = 381;
},
{
layerId = "205523CA-C9A0-433B-A23D-3E9A8307D858";
shapes = (
{
closed = 1;
nodes = (
(295,478,l),
(227,587,l),
(345,629,l),
(338,661,l),
(222,612,l),
(245,742,l),
(204,742,l),
(195,612,l),
(90,654,l),
(75,623,l),
(184,588,l),
(86,475,l),
(114,452,l),
(205,574,l),
(262,456,l)
);
}
);
width = 312;
}
);
unicode = 42;
}
{
glyphname = plus;
layers = (
{
layerId = "90BAD496-908C-46A8-8D40-D80AAE603430";
shapes = (
{
closed = 1;
nodes = (
(66,444,l),
(47,303,l),
(568,303,l),
(589,444,l)
);
},
{
closed = 1;
nodes = (
(425,635,l),
(284,635,l),
(211,113,l),
(351,113,l)
);
}
);
width = 611;
},
{
layerId = "E1183961-CF0C-4334-8CD2-07F6368CCCB1";
shapes = (
{
closed = 1;
nodes = (
(79,408,l),
(69,337,l),
(494,338,l),
(504,408,l)
);
},
{
closed = 1;
nodes = (
(350,592,l),
(281,592,l),
(222,154,l),
(291,154,l)
);
}
);
width = 544;
},
{
layerId = "24DA169B-0D71-476F-B940-6C54E096B564";
shapes = (
{
closed = 1;
nodes = (
(85,391,l),
(79,353,l),
(460,354,l),
(466,392,l)
);
},
{
closed = 1;
nodes = (
(316,573,l),
(280,573,l),
(227,172,l),
(264,172,l)
);
}
);
width = 514;
}
);
unicode = 43;
}
{
glyphname = comma;
layers = (
{
layerId = "F877A2A6-2AE9-47A5-964B-6AC3A00E0840";
shapes = (
{
closed = 1;
nodes = (
(45,-157,l),
(188,21,l),
(209,174,l),
(27,174,l),
(3,1,l),
(62,-6,l),
(-21,-157,l)
);
}
);
width = 289;
},
{
layerId = "47C38B4B-FB8A-4134-B3CD-D82C7CCC786A";
shapes = (
{
closed = 1;
nodes = (
(28,-127,l),
(130,15,l),
(143,111,l),
(30,111,l),
(16,0,l),
(58,-2,l),
(-14,-127,l)
);
}
);
width = 227;
},
{
guides = (
{
angle = 67.614;
position = "{-42, 0}";
}
);
layerId = "7B6169A8-D8AD-4E0B-B0BB-F8A93FFABE5A";
shapes = (
{
closed = 1;
nodes = (
(20,-114,l),
(104,12,l),
(113,82,l),
(32,82,l),
(22,0,l),
(56,0,l),
(-11,-114,l)
);
}
);
width = 199;
}
);
leftKerningGroup = comma2;
rightKerningGroup = comma;
unicode = 44;
}
{
glyphname = hyphen;
layers = (
{
layerId = "F877A2A6-2AE9-47A5-964B-6AC3A00E0840";
shapes = (
{
closed = 1;
nodes = (
(52,333,l),
(33,193,l),
(331,193,l),
(351,333,l)
);
}
);
width = 391;
},
{
layerId = "47C38B4B-FB8A-4134-B3CD-D82C7CCC786A";
shapes = (
{
closed = 1;
nodes = (
(64.731,300,l),
(55.075,229,l),
(305.172,229,l),
(315.794,301,l)
);
}
);
width = 371;
},
{
layerId = "7B6169A8-D8AD-4E0B-B0BB-F8A93FFABE5A";
shapes = (
{
closed = 1;
nodes = (
(70.35,285,l),
(64.65,245,l),
(293.6,246,l),
(299.3,286,l)
);
}
);
width = 362;
}
);
leftKerningGroup = hyphen2;
rightKerningGroup = hyphen;
unicode = 45;
}
{
glyphname = period;
layers = (
{
layerId = "F426EF5A-234F-4D9D-8FA2-B6E01B62F842";
shapes = (
{
closed = 1;
nodes = (
(24,201,l),
(-4,0,l),
(206,0,l),
(234,201,l)
);
}
);
width = 289;
},
{
layerId = "25174B84-9FC9-4237-B6C0-AF6CE185AC75";
shapes = (
{
closed = 1;
nodes = (
(34.797,117,l),
(18.381,0,l),
(123.634,0,l),
(139.084,117,l)
);
}
);
width = 216;
},
{
layerId = "E845DC5E-3808-4662-B0C6-177943F39A70";
shapes = (
{
closed = 1;
nodes = (
(39.,79,l),
(27.6,0,l),
(87.45,0,l),
(97.9,79,l)
);
}
);
width = 183;
}
);
leftKerningGroup = comma2;
rightKerningGroup = comma;
unicode = 46;
}
{
glyphname = slash;
layers = (
{
layerId = "4085F1A9-CD4F-447E-BF4E-06E18D46F28C";
shapes = (
{
closed = 1;
nodes = (
(97,0,l),
(464,742,l),
(325,742,l),
(-42,0,l)
);
}
);
width = 398;
},
{
layerId = "60E9CA7D-7455-4953-BBCB-0950C5D70619";
shapes = (
{
closed = 1;
nodes = (
(41,-41,l),
(395,742,l),
(322,742,l),
(-32,-41,l)
);
}
);
width = 340;
},
{
guides = (
{
position = "{0, 695}";
showMeasurement = 1;
}
);
layerId = "0B47C4A7-9101-48D0-A00F-70D9DFD57C4A";
shapes = (
{
closed = 1;
nodes = (
(15,-60,l),
(364,742,l),
(321,742,l),
(-28,-60,l)
);
}
);
width = 314;
}
);
unicode = 47;
}
{
glyphname = zero;
layers = (
{
layerId = "49A8D228-E827-44F0-AB9F-01876E91E3EE";
shapes = (
{
closed = 1;
nodes = (
(466,-12,o),
(607,143,o),
(639,371,cs),
(671,599,o),
(574,754,o),
(398,754,cs),
(221,754,o),
(80,599,o),
(48,371,cs),
(16,143,o),
(113,-12,o),
(290,-12,cs)
);
},
{
closed = 1;
nodes = (
(236,139,o),
(216,202,o),
(240,371,cs),
(264,540,o),
(301,603,o),
(377,603,cs),
(452,603,o),
(471,540,o),
(447,371,cs),
(423,202,o),
(387,139,o),
(312,139,cs)
);
}
);
width = 657;
},
{
layerId = "2C111888-158E-4586-831E-29429C16F99E";
shapes = (
{
closed = 1;
nodes = (
(422,-12,o),
(551,144,o),
(583,371,cs),
(615,598,o),
(530,754,o),
(372,754,cs),
(213,754,o),
(84,598,o),
(52,371,cs),
(20,144,o),
(105,-12,o),
(264,-12,cs)
);
},
{
closed = 1;
nodes = (
(158,64,o),
(111,173,o),
(139,372,cs),
(167,570,o),
(245,678,o),
(361,678,cs),
(478,678,o),
(525,570,o),
(497,372,cs),
(469,173,o),
(392,64,o),
(275,64,cs)
);
}
);
width = 603;
},
{
layerId = "1D6C4D12-DF74-4368-BFD3-C72FEEEBBCF3";
shapes = (
{
closed = 1;
nodes = (
(402,-12,o),
(526,144,o),
(558,371,cs),
(590,598,o),
(510,754,o),
(360,754,cs),
(210,754,o),
(86,598,o),
(54,371,cs),
(22,144,o),
(102,-12,o),
(252,-12,cs)
);
},
{
closed = 1;
nodes = (
(123,30,o),
(63,160,o),
(93,372,cs),
(123,583,o),
(219,712,o),
(354,712,cs),
(490,712,o),
(550,583,o),
(520,372,cs),
(490,160,o),
(394,30,o),
(258,30,cs)
);
}
);
width = 579;
}
);
leftKerningGroup = six2;
rightKerningGroup = six;
unicode = 48;
}
{
glyphname = one;
layers = (
{
layerId = "DE030A49-AE7C-4104-8137-1F8DB9F65EE6";
name = "#instance";
shapes = (
{
closed = 1;
nodes = (
(362,0,l),
(373,79,l),
(222,79,l),
(244,52,l),
(341,742,l),
(271,742,l),
(115,664,l),
(106,596,l),
(288,645,l),
(237,645,l),
(153,52,l),
(183,79,l),
(33,79,l),
(22,0,l)
);
}
);
width = 453;
},
{
layerId = "90BAD496-908C-46A8-8D40-D80AAE603430";
shapes = (
{
closed = 1;
nodes = (
(438,0,l),
(459.222,151,l),
(295.222,151,l),
(337.054,100,l),
(427.281,742,l),
(333.281,742,l),
(96.838,625,l),
(78.989,498,l),
(247.908,533,l),
(198.908,533,l),
(138.195,101,l),
(194.222,151,l),
(30.222,151,l),
(9,0,l)
);
}
);
width = 521;
},
{
layerId = "E1183961-CF0C-4334-8CD2-07F6368CCCB1";
shapes = (
{
closed = 1;
nodes = (
(362,0,l),
(373,79,l),
(222,79,l),
(244,52,l),
(341,742,l),
(271,742,l),
(115,664,l),
(106,596,l),
(288,645,l),
(237,645,l),
(153,52,l),
(183,79,l),
(33,79,l),
(22,0,l)
);
}
);
width = 453;
},
{
layerId = "24DA169B-0D71-476F-B940-6C54E096B564";
shapes = (
{
closed = 1;
nodes = (
(354,0,l),
(359.903,42,l),
(199.903,42,l),
(208.811,20,l),
(310.281,742,l),
(280.281,742,l),
(97.022,669,l),
(91.541,630,l),
(290.941,704,l),
(261.941,704,l),
(165.811,20,l),
(181.903,42,l),
(19.903,42,l),
(14,0,l)
);
}
);
width = 442;
}
);
leftKerningGroup = one2;
rightKerningGroup = one;
unicode = 49;
}
{
glyphname = two;
layers = (
{
layerId = "6D36DE7A-3498-4CCA-80AC-5FCC24B8EDC5";
shapes = (
{
closed = 1;
nodes = (
(558,0,l),
(580.857,160,l),
(250.857,160,l),
(245.286,121,l),
(257.429,206,o),
(435.143,281,o),
(490.429,318,cs),
(572.286,373,o),
(620.286,436,o),
(633.857,531,cs),
(646.714,621,o),
(613.714,754,o),
(409.714,754,c),
(250.571,753,o),
(124.143,666,o),
(82.429,528,c),
(227.571,487,l),
(255.,560,o),
(316.714,614,o),
(372.714,614,cs),
(433.714,614,o),
(460.429,563,o),
(454.857,524,cs),
(447.143,470,o),
(396.286,422,o),
(315.143,379,cs),
(158.286,296,o),
(51.857,181,o),
(37.143,78,cs),
(26,0,l)
);
}
);
width = 636;
},
{
layerId = "52CA2DEC-CCDD-4868-A7D2-69659C24EBA2";
shapes = (
{
closed = 1;
nodes = (
(483,0,l),
(494.571,81,l),
(106.571,81,l),
(113.571,53,l),
(127.714,152,o),
(311.,259,o),
(387.143,309,cs),
(469.857,363,o),
(555.,427,o),
(570.286,534,cs),
(587.714,656,o),
(525.714,754,o),
(368.714,754,c),
(240.714,754,o),
(137.714,677,o),
(84.,539,c),
(155.143,519,l),
(190.571,613,o),
(271.143,680,o),
(356.143,680,cs),
(444.143,680,o),
(495.857,615,o),
(484.857,538,cs),
(473.143,456,o),
(408.143,407,o),
(335.,364,cs),
(216.143,295,o),
(37.429,157,o),
(20.429,38,cs),
(15,0,l)
);
}
);
width = 579;
},
{
layerId = "FE16441F-5029-4BC1-8299-959132AD36E4";
shapes = (
{
closed = 1;
nodes = (
(444,0,l),
(449.571,39,l),
(31.571,39,l),
(44.429,17,l),
(59.571,123,o),
(246.286,247,o),
(333.429,304,cs),
(416.,357,o),
(521.286,422,o),
(537.571,536,cs),
(557.286,674,o),
(479.714,754,o),
(346.714,754,cs),
(235.714,754,o),
(145.429,682,o),
(84.857,545,c),
(117.429,535,l),
(156.429,640,o),
(247.,714,o),
(347.,714,cs),
(449.,714,o),
(514.714,642,o),
(500.857,545,cs),
(487.143,449,o),
(415.,399,o),
(344.857,356,cs),
(246.,294,o),
(29.571,144,o),
(11.429,17,cs),
(9,0,l)
);
}
);
width = 549;
}
);
leftKerningGroup = two2;
rightKerningGroup = two;
unicode = 50;
}
{
glyphname = three;
layers = (
{
layerId = "4A771BA9-DE6D-4DFF-875A-35CEAA78AE27";
shapes = (
{
closed = 1;
nodes = (
(399,-12,o),
(559,35,o),
(583,209,cs),
(606,371,o),
(461,406,o),
(408,406,c),
(405,383,l),
(458,383,o),
(594,441,o),
(611,561,cs),
(629,689,o),
(507,754,o),
(387,754,cs),
(266,754,o),
(179,698,o),
(94,631,c),
(187,525,l),
(231,568,o),
(274,613,o),
(343,613,cs),
(404,613,o),
(425,573,o),
(420,538,cs),
(411,480,o),
(360,445,o),
(287,445,cs),
(235,445,l),
(215,306,l),
(278,306,ls),
(301,306,o),
(409,306,o),
(396,214,cs),
(387,151,o),
(335,132,o),
(276,132,cs),
(242,132,o),
(165,147,o),
(133,237,c),
(4,139,l),
(38,70,o),
(135,-12,o),
(267,-12,cs)
);
}
);
width = 625;
},
{
layerId = "063EDB9A-26EE-473F-A1FA-D59C439A67CE";
shapes = (
{
closed = 1;
nodes = (
(407,-12,o),
(521,70,o),
(540,209,cs),
(563,371,o),
(426,404,o),
(373,404,c),
(370,381,l),
(424,381,o),
(547,438,o),
(564,561,cs),
(582,689,o),
(477,754,o),
(357,754,cs),
(271,754,o),
(178,707,o),
(126,639,c),
(180,588,l),
(233,651,o),
(292,677,o),
(354,677,cs),
(430,677,o),
(483,627,o),
(474,562,cs),
(461,473,o),
(400,426,o),
(257,426,cs),
(202,426,l),
(191,351,l),
(257,351,ls),
(389,351,o),
(460,293,o),
(448,206,cs),
(439,141,o),
(376,67,o),
(268,67,cs),
(189,67,o),
(130,100,o),
(94,179,c),
(17,131,l),
(66,43,o),
(143,-12,o),
(244,-12,cs)
);
}
);
width = 590;
},
{
layerId = "A1D8A8A0-7317-4958-838D-B74999429465";
shapes = (
{
closed = 1;
nodes = (
(371,-12,o),
(501,83,o),
(518,209,cs),
(542,375,o),
(391,401,o),
(313,401,c),
(310,378,l),
(393,378,o),
(525,431,o),
(543,561,cs),
(561,689,o),
(477,754,o),
(346,754,cs),
(266,754,o),
(208,715,o),
(137,648,c),
(164,617,l),
(228,681,o),
(271,711,o),
(352,711,cs),
(447,711,o),
(517,656,o),
(505,571,cs),
(491,470,o),
(413,413,o),
(267,413,cs),
(213,413,l),
(207,371,l),
(260,371,ls),
(479,371,o),
(488,276,o),
(477,198,cs),
(467,131,o),
(377,30,o),
(240,30,cs),
(161,30,o),
(104,78,o),
(58,150,c),
(20,122,l),
(84,29,o),
(142,-12,o),
(234,-12,cs)
);
}
);
width = 563;
}
);
leftKerningGroup = six2;
rightKerningGroup = six;
unicode = 51;
}
{
glyphname = four;
layers = (
{
layerId = "4A771BA9-DE6D-4DFF-875A-35CEAA78AE27";
shapes = (
{
closed = 1;
nodes = (
(488,0,l),
(592,742,l),
(421,742,l),
(49,302,l),
(30,162,l),
(621,162,l),
(640,301,l),
(160,301,l),
(155,266,l),
(416,591,l),
(389,591,l),
(306,0,l)
);
}
);
width = 680;
},
{
layerId = "063EDB9A-26EE-473F-A1FA-D59C439A67CE";
shapes = (
{
closed = 1;
nodes = (
(439,1,l),
(544,743,l),
(427,743,l),
(47,259,l),
(35,177,l),
(589,177,l),
(600,252,l),
(101,252,l),
(96,215,l),
(496,726,l),
(450,720,l),
(349,1,l)
);
}
);
width = 651;
},
{
layerId = "A1D8A8A0-7317-4958-838D-B74999429465";
shapes = (
{
closed = 1;
nodes = (
(406,0,l),
(510,742,l),
(457,742,l),
(44,208,l),
(41,185,l),
(561,185,l),
(567,227,l),
(88,227,l),
(84,201,l),
(480,712,l),
(467,712,l),
(367,0,l)
);
}
);
width = 620;
}
);
leftKerningGroup = four2;
rightKerningGroup = four;
unicode = 52;
}
{
glyphname = five;
layers = (
{
layerId = "DB5B66A7-D76D-4C07-A73F-AA2F655CEE53";
name = "#instance";
shapes = (
{
closed = 1;
nodes = (
(416.314,-12,o),
(532.681,76,o),
(556.573,246,cs),
(580.606,417,o),
(512.287,493,o),
(364.287,493,cs),
(282.287,493,o),
(240.179,478,o),
(182.119,442,c),
(205.119,442,l),
(250.476,658,l),
(565.476,658,l),
(582.281,742,l),
(174.281,742,l),
(89.033,356,l),
(177.833,319,l),
(222.546,381,o),
(272.465,416,o),
(340.465,416,cs),
(432.465,416,o),
(467.033,356,o),
(450.027,235,cs),
(436.395,138,o),
(361.416,67,o),
(273.416,67,cs),
(204.416,67,o),
(153.757,105,o),
(107.016,178,c),
(35.13,129,l),
(91.919,35,o),
(157.314,-12,o),
(274.314,-12,cs)
);
}
);
width = 603;
},
{
layerId = "F877A2A6-2AE9-47A5-964B-6AC3A00E0840";
shapes = (
{
closed = 1;
nodes = (
(351.314,-12,o),
(569.232,23,o),
(600.151,243,cs),
(629.524,452,o),
(436.757,475,o),
(375.757,475,cs),
(315.757,475,o),
(260.914,469,o),
(212.292,429,c),
(238.292,429,l),
(268.827,568,l),
(584.827,568,l),
(620.281,742,l),
(161.281,742,l),
(82.984,377,l),
(201.022,299,l),
(243.254,322,o),
(270.222,336,o),
(311.222,336,c),
(353.941,334,o),
(412.427,309,o),
(401.605,232,cs),
(390.784,155,o),
(317.832,134,o),
(282.832,134,cs),
(250.832,134,o),
(194.957,142,o),
(144.573,246,c),
(5.535,139,l),
(51.573,61,o),
(140.314,-12,o),
(285.314,-12,cs)
);
}
);
width = 637;
},
{
layerId = "47C38B4B-FB8A-4134-B3CD-D82C7CCC786A";
shapes = (
{
closed = 1;
nodes = (
(416.314,-12,o),
(532.681,76,o),
(556.573,246,cs),
(580.606,417,o),
(512.287,493,o),
(364.287,493,cs),
(282.287,493,o),
(240.179,478,o),
(182.119,442,c),
(205.119,442,l),
(250.476,658,l),
(565.476,658,l),
(582.281,742,l),
(174.281,742,l),
(89.033,356,l),
(177.833,319,l),
(222.546,381,o),
(272.465,416,o),
(340.465,416,cs),
(432.465,416,o),
(467.033,356,o),
(450.027,235,cs),
(436.395,138,o),
(361.416,67,o),
(273.416,67,cs),
(204.416,67,o),
(153.757,105,o),
(107.016,178,c),
(35.13,129,l),
(91.919,35,o),
(157.314,-12,o),
(274.314,-12,cs)
);
}
);
width = 603;
},
{
layerId = "7B6169A8-D8AD-4E0B-B0BB-F8A93FFABE5A";
shapes = (
{
closed = 1;
nodes = (
(371.314,-12,o),
(507.054,100,o),
(528.135,250,cs),
(549.216,400,o),
(466.411,501,o),
(341.411,501,cs),
(246.411,501,o),
(179.054,470,o),
(111.935,398,c),
(121.935,398,l),
(189.8,703,l),
(544.8,703,l),
(551.281,742,l),
(153.281,742,l),
(66.487,345,l),
(106.941,334,l),
(151.903,412,o),
(246.508,459,o),
(322.508,459,cs),
(426.508,459,o),
(506.108,385,o),
(485.589,239,cs),
(470.13,129,o),
(363.216,30,o),
(244.216,30,cs),
(167.216,30,o),
(93.243,80,o),
(59.924,156,c),
(18.989,128,l),
(82.373,24,o),
(137.314,-12,o),
(249.314,-12,cs)
);
}
);
width = 567;
}
);
leftKerningGroup = five2;
rightKerningGroup = five;
unicode = 53;
}
{
glyphname = six;
layers = (
{
layerId = "49A8D228-E827-44F0-AB9F-01876E91E3EE";
shapes = (
{
closed = 1;
nodes = (
(237,754,o),
(80,588,o),
(49,365,cs),
(18,145,o),
(126,-12,o),
(301,-12,cs),
(451,-12,o),
(587,103,o),
(607,244,cs),
(625,370,o),
(544,464,o),
(428,464,cs),
(373,464,o),
(289,440,o),
(224,407,c),
(203,277,l),
(247,299,o),
(295,315,o),
(331,315,cs),
(381,315,o),
(417,279,o),
(410,230,cs),
(403,179,o),
(355,136,o),
(308,136,cs),
(244,136,o),
(223,214,o),
(244,364,cs),
(266,524,o),
(312,604,o),
(386,604,cs),
(429,604,o),
(478,576,o),
(501,535,c),
(623,647,l),
(585,710,o),
(496,754,o),
(422,754,cs)
);
}
);
width = 642;
},
{
layerId = "2C111888-158E-4586-831E-29429C16F99E";
shapes = (
{
closed = 1;
nodes = (
(236,754,o),
(81,582,o),
(48,342,c),
(17,126,o),
(106,-12,o),
(271,-12,cs),
(416,-12,o),
(535,91,o),
(555,234,cs),
(574,371,o),
(493,464,o),
(361,464,cs),
(265,464,o),
(176,413,o),
(120,322,c),
(118,245,l),
(161,331,o),
(245,388,o),
(335,388,cs),
(429,388,o),
(480,328,o),
(466,231,cs),
(452,129,o),
(379,64,o),
(279,64,cs),
(162,64,o),
(111,159,o),
(135,336,cs),
(164,541,o),
(271,678,o),
(400,678,cs),
(448,678,o),
(497,656,o),
(526,621,c),
(585,683,l),
(547,727,o),
(484,754,o),
(420,754,cs)
);
}
);
width = 594;
},
{
layerId = "1D6C4D12-DF74-4368-BFD3-C72FEEEBBCF3";
shapes = (
{
closed = 1;
nodes = (
(236,754,o),
(82,579,o),
(48,331,cs),
(17,117,o),
(97,-12,o),
(258,-12,cs),
(400,-12,o),
(511,86,o),
(531,230,cs),
(551,371,o),
(470,464,o),
(331,464,cs),
(216,464,o),
(124,400,o),
(72,284,c),
(79,230,l),
(122,346,o),
(222,421,o),
(337,421,cs),
(451,421,o),
(508,350,o),
(491,231,cs),
(474,106,o),
(390,31,o),
(266,31,cs),
(124,31,o),
(60,134,o),
(86,323,cs),
(118,548,o),
(252,711,o),
(406,711,cs),
(457,711,o),
(505,693,o),
(538,660,c),
(568,699,l),
(529,735,o),
(479,754,o),
(419,754,cs)
);
}
);
width = 572;
}
);
leftKerningGroup = six2;
rightKerningGroup = six;
unicode = 54;
}
{
glyphname = seven;
layers = (
{
layerId = "DE030A49-AE7C-4104-8137-1F8DB9F65EE6";
name = "#instance";
shapes = (
{
closed = 1;
nodes = (
(193,0,l),
(282,151,o),
(445,418,o),
(600,685,c),
(608,742,l),
(118,742,l),
(106,658,l),
(507,658,l),
(512,690,l),
(393,493,o),
(177,151,o),
(89,0,c)
);
}
);
width = 590;
},
{
layerId = "90BAD496-908C-46A8-8D40-D80AAE603430";
shapes = (
{
closed = 1;
nodes = (
(322,0,l),
(343.222,151,o),
(418.141,371,o),
(622.665,638,c),
(637.281,742,l),
(112.281,742,l),
(76.827,568,l),
(434.827,568,l),
(440.589,609,l),
(289.481,409,o),
(117.222,151,o),
(96,0,c)
);
}
);
width = 614;
},
{
layerId = "E1183961-CF0C-4334-8CD2-07F6368CCCB1";
shapes = (
{
closed = 1;
nodes = (
(193,0,l),
(282,151,o),
(445,418,o),
(600,685,c),
(608,742,l),
(118,742,l),
(106,658,l),
(507,658,l),
(512,690,l),
(393,493,o),
(177,151,o),
(89,0,c)
);
}
);
width = 590;
},
{
layerId = "24DA169B-0D71-476F-B940-6C54E096B564";
shapes = (
{
closed = 1;
nodes = (
(138,0,l),
(236.222,151,o),
(419.838,440,o),
(581.222,706,c),
(586.281,742,l),
(117.281,742,l),
(111.8,703,l),
(549.8,703,l),
(550.595,730,l),
(432.908,533,o),
(193.222,151,o),
(96,0,c)
);
}
);
width = 567;
}
);
leftKerningGroup = seven2;
rightKerningGroup = seven;
unicode = 55;
}
{
glyphname = eight;
layers = (
{
layerId = "DB5B66A7-D76D-4C07-A73F-AA2F655CEE53";
name = "#instance";
shapes = (
{
closed = 1;
nodes = (
(451.314,-12,o),
(575.135,65,o),
(593.687,197,cs),
(613.222,336,o),
(483.687,382,o),
(416.2,407,c),
(407.762,411,o),
(388.606,417,o),
(384.027,420,c),
(377.984,377,l),
(384.406,380,o),
(403.53,388,o),
(411.951,391,cs),
(479.324,415,o),
(598.508,459,o),
(613.406,565,cs),
(628.303,671,o),
(539.968,754,o),
(391.968,754,cs),
(239.968,754,o),
(139.006,676,o),
(122.141,556,cs),
(105.697,439,o),
(202.216,400,o),
(250.124,378,cs),
(254.843,376,o),
(268.86,369,o),
(272.578,367,c),
(277.076,399,l),
(271.795,397,o),
(255.811,390,o),
(249.389,387,cs),
(182.595,360,o),
(50.287,308,o),
(34.265,194,cs),
(17.541,75,o),
(116.314,-12,o),
(290.314,-12,cs)
);
},
{
closed = 1;
nodes = (
(202.276,66,o),
(128.146,122,o),
(138.265,194,cs),
(150.492,281,o),
(231.411,316,o),
(292.065,342,cs),
(301.627,346,o),
(309.049,349,o),
(318.611,353,c),
(328.33,351,o),
(336.33,351,o),
(344.908,348,cs),
(429.254,322,o),
(499.07,278,o),
(485.719,183,cs),
(476.584,118,o),
(395.276,66,o),
(301.276,66,cs)
);
},
{
closed = 1;
nodes = (
(237.26,628,o),
(301.006,676,o),
(380.006,676,cs),
(466.006,676,o),
(523.541,630,o),
(514.406,565,cs),
(504.989,498,o),
(428.946,455,o),
(363.714,432,c),
(281.681,446,o),
(218.989,498,o),
(227.,555,cs)
);
}
);
width = 643;
},
{
layerId = "F877A2A6-2AE9-47A5-964B-6AC3A00E0840";
shapes = (
{
closed = 1;
nodes = (
(397.314,-12,o),
(583.465,46,o),
(606.373,209,cs),
(627.314,358,o),
(528.216,400,o),
(471.589,424,cs),
(467.73,425,o),
(460.151,428,o),
(456.433,430,c),
(451.233,393,l),
(457.514,395,o),
(463.935,398,o),
(471.357,401,cs),
(530.87,426,o),
(610.616,474,o),
(622.141,556,cs),
(635.211,649,o),
(559.968,754,o),
(392.968,754,cs),
(225.968,754,o),
(100.897,661,o),
(81.362,522,cs),
(65.903,412,o),
(128.86,369,o),
(180.487,345,cs),
(187.924,341,o),
(195.503,338,o),
(202.081,335,c),
(205.595,360,l),
(200.314,358,o),
(190.892,355,o),
(183.47,352,cs),
(123.519,331,o),
(38.881,298,o),
(23.,185,cs),
(8.384,81,o),
(73.314,-12,o),
(285.314,-12,cs)
);
},
{
closed = 1;
nodes = (
(250.989,128,o),
(199.222,151,o),
(205.687,197,cs),
(211.027,235,o),
(230.962,263,o),
(257.195,286,cs),
(262.897,291,o),
(268.6,296,o),
(275.162,300,c),
(278.022,299,o),
(282.881,298,o),
(290.6,296,cs),
(328.914,284,o),
(414.4,259,o),
(404.703,190,cs),
(399.924,156,o),
(359.989,128,o),
(304.989,128,cs)
);
},
{
closed = 1;
nodes = (
(276.076,584,o),
(312.292,614,o),
(366.292,614,cs),
(421.292,614,o),
(454.514,580,o),
(449.595,545,cs),
(444.676,510,o),
(424.443,487,o),
(384.211,464,c),
(338.179,478,o),
(264.973,505,o),
(270.595,545,cs)
);
}
);
width = 646;
},
{
layerId = "47C38B4B-FB8A-4134-B3CD-D82C7CCC786A";
shapes = (
{
closed = 1;
nodes = (
(451.314,-12,o),
(575.135,65,o),
(593.687,197,cs),
(613.222,336,o),
(483.687,382,o),
(416.2,407,c),
(407.762,411,o),
(388.606,417,o),
(384.027,420,c),
(377.984,377,l),
(384.406,380,o),
(403.53,388,o),
(411.951,391,cs),
(479.324,415,o),
(598.508,459,o),
(613.406,565,cs),
(628.303,671,o),
(539.968,754,o),
(391.968,754,cs),
(239.968,754,o),
(139.006,676,o),
(122.141,556,cs),
(105.697,439,o),
(202.216,400,o),
(250.124,378,cs),
(254.843,376,o),
(268.86,369,o),
(272.578,367,c),
(277.076,399,l),
(271.795,397,o),
(255.811,390,o),
(249.389,387,cs),
(182.595,360,o),
(50.287,308,o),
(34.265,194,cs),
(17.541,75,o),
(116.314,-12,o),
(290.314,-12,cs)
);
},
{
closed = 1;
nodes = (
(202.276,66,o),
(128.146,122,o),
(138.265,194,cs),
(150.492,281,o),
(231.411,316,o),
(292.065,342,cs),
(301.627,346,o),
(309.049,349,o),
(318.611,353,c),
(328.33,351,o),
(336.33,351,o),
(344.908,348,cs),
(429.254,322,o),
(499.07,278,o),
(485.719,183,cs),
(476.584,118,o),
(395.276,66,o),
(301.276,66,cs)
);
},
{
closed = 1;
nodes = (
(237.26,628,o),
(301.006,676,o),
(380.006,676,cs),
(466.006,676,o),
(523.541,630,o),
(514.406,565,cs),
(504.989,498,o),
(428.946,455,o),
(363.714,432,c),
(281.681,446,o),
(218.989,498,o),
(227.,555,cs)
);
}
);
width = 643;
},
{
layerId = "7B6169A8-D8AD-4E0B-B0BB-F8A93FFABE5A";
shapes = (
{
closed = 1;
nodes = (
(430.314,-12,o),
(538.838,70,o),
(555.422,188,cs),
(574.676,325,o),
(447.,370,o),
(375.514,395,cs),
(361.216,400,o),
(350.778,404,o),
(339.481,409,c),
(334.281,372,l),
(342.843,376,o),
(355.406,380,o),
(367.968,384,cs),
(438.622,410,o),
(561.806,454,o),
(577.968,569,cs),
(593.849,682,o),
(515.968,754,o),
(371.968,754,cs),
(223.968,754,o),
(122.989,683,o),
(107.389,572,cs),
(93.195,471,o),
(173.011,427,o),
(248.514,395,cs),
(257.951,391,o),
(266.53,388,o),
(274.968,384,c),
(278.622,410,l),
(273.341,408,o),
(265.919,405,o),
(260.638,403,cs),
(191.703,375,o),
(44.27,315,o),
(27.827,198,cs),
(10.119,72,o),
(104.314,-12,o),
(270.314,-12,cs)
);
},
{
closed = 1;
nodes = (
(138.357,31,o),
(57.476,103,o),
(69.562,189,cs),
(85.303,301,o),
(187.362,337,o),
(271.578,367,cs),
(281.,370,o),
(292.562,374,o),
(302.124,378,c),
(307.843,376,o),
(315.562,374,o),
(325.141,371,cs),
(392.751,354,o),
(532.551,317,o),
(513.016,178,cs),
(501.773,98,o),
(407.357,31,o),
(279.357,31,cs)
);
},
{
closed = 1;
nodes = (
(161.492,651,o),
(238.925,711,o),
(360.925,711,cs),
(490.925,711,o),
(547.335,657,o),
(536.092,577,cs),
(524.849,497,o),
(432.119,442,o),
(340.324,415,c),
(222.292,429,o),
(139.568,495,o),
(148.984,562,cs)
);
}
);
width = 603;
}
);
leftKerningGroup = six2;
rightKerningGroup = six;
unicode = 56;
}
{
glyphname = nine;
layers = (
{
layerId = "19535A56-B4B7-45FA-8766-5D6358701C99";
shapes = (
{
closed = 1;
nodes = (
(430.314,-12,o),
(587.784,155,o),
(619.406,380,cs),
(650.325,600,o),
(544.968,754,o),
(370.968,754,cs),
(220.968,754,o),
(87.087,641,o),
(67.13,499,cs),
(49.281,372,o),
(130.07,278,o),
(248.07,278,cs),
(310.07,278,o),
(395.005,306,o),
(459.768,347,c),
(477.054,470,l),
(433.697,439,o),
(379.606,417,o),
(336.606,417,cs),
(279.606,417,o),
(242.087,456,o),
(249.957,512,cs),
(258.108,570,o),
(309.573,616,o),
(364.573,616,cs),
(435.573,616,o),
(460.33,536,o),
(438.827,383,cs),
(415.357,216,o),
(360.989,128,o),
(279.989,128,cs),
(235.989,128,o),
(204.627,161,o),
(203.076,214,c),
(48.908,163,l),
(61.151,58,o),
(139.314,-12,o),
(244.314,-12,cs)
);
}
);
width = 635;
},
{
layerId = "AEBEF15D-4BBA-4516-955A-7DB830DF0DA8";
shapes = (
{
closed = 1;
nodes = (
(385.522,-11.593,o),
(534.376,158.44,o),
(568.863,403.83,cs),
(599.549,622.168,o),
(518.617,753.558,o),
(352.007,753.558,cs),
(206.223,753.558,o),
(99.331,653.084,o),
(77.199,495.609,cs),
(57.512,355.525,o),
(120.488,278.237,o),
(254.912,278.237,cs),
(349.577,278.237,o),
(448.458,321.711,o),
(501.237,387.406,c),
(515.904,498.508,l),
(458.381,412.525,o),
(367.876,354.559,o),
(279.838,354.559,cs),
(196.533,354.559,o),
(154.639,406.728,o),
(168.76,507.202,cs),
(183.967,615.406,o),
(249.455,677.236,o),
(349.8,677.236,cs),
(463.398,677.236,o),
(506.087,597.05,o),
(482.326,427.982,cs),
(452.456,215.44,o),
(345.129,64.729,o),
(225.852,64.729,cs),
(181.359,64.729,o),
(135.936,91.779,o),
(112.428,133.322,c),
(41.803,75.356,l),
(71.39,23.186,o),
(136.554,-11.593,o),
(205.659,-11.593,cs)
);
}
);
width = 591;
},
{
layerId = "ABC3C110-A709-486E-B3D5-BEE5600AE028";
shapes = (
{
closed = 1;
nodes = (
(367.314,-12,o),
(521.908,163,o),
(556.762,411,cs),
(586.838,625,o),
(506.968,754,o),
(344.968,754,cs),
(203.968,754,o),
(93.195,656,o),
(72.957,512,cs),
(53.141,371,o),
(134.07,278,o),
(273.07,278,cs),
(388.07,278,o),
(480.065,342,o),
(531.368,458,c),
(524.957,512,l),
(482.654,396,o),
(382.114,321,o),
(266.114,321,cs),
(153.114,321,o),
(95.092,392,o),
(111.816,511,cs),
(129.384,636,o),
(213.925,711,o),
(336.925,711,cs),
(479.925,711,o),
(544.449,608,o),
(517.887,419,cs),
(486.265,194,o),
(352.357,31,o),
(198.357,31,cs),
(146.357,31,o),
(98.887,49,o),
(66.524,82,c),
(36.043,43,l),
(74.984,7,o),
(125.314,-12,o),
(185.314,-12,cs)
);
}
);
width = 572;
}
);
leftKerningGroup = six2;
rightKerningGroup = six;
unicode = 57;
}
{
glyphname = colon;
layers = (
{
layerId = "49A8D228-E827-44F0-AB9F-01876E91E3EE";
shapes = (
{
closed = 1;
nodes = (
(70,525,l),
(43,328,l),
(253,328,l),
(281,525,l)
);
},
{
closed = 1;
nodes = (
(25,200,l),
(-2,3,l),
(207,3,l),
(235,200,l)
);
}
);
width = 290;
},
{
layerId = "2C111888-158E-4586-831E-29429C16F99E";
shapes = (
{
closed = 1;
nodes = (
(87,508,l),
(71,392,l),
(178,392,l),
(194,508,l)
);
},
{
closed = 1;
nodes = (
(35,119,l),
(20,3,l),
(125,3,l),
(141,119,l)
);
}
);
width = 217;
},
{
layerId = "1D6C4D12-DF74-4368-BFD3-C72FEEEBBCF3";
shapes = (
{
closed = 1;
nodes = (
(95,500,l),
(84,421,l),
(144,421,l),
(154,500,l)
);
},
{
closed = 1;
nodes = (
(39,82,l),
(30,3,l),
(88,3,l),
(98,82,l)
);
}
);
width = 184;
}
);
rightKerningGroup = comma;
unicode = 58;
}
{
glyphname = semicolon;
layers = (
{
layerId = "1B15BF9D-2282-46A0-8570-EB8A3FC863D6";
shapes = (
{
closed = 1;
nodes = (
(60,-169,l),
(213,15,l),
(240,198,l),
(29,198,l),
(2,0,l),
(71,0,l),
(-31,-169,l)
);
},
{
closed = 1;
nodes = (
(257,321,l),
(285,522,l),
(75,522,l),
(47,321,l)
);
}
);
width = 295;
},
{
layerId = "384628A1-4A8A-4486-AB82-D1325BD310F0";
shapes = (
{
closed = 1;
nodes = (
(32,-145,l),
(133,9,l),
(148,116,l),
(41,116,l),
(25,0,l),
(66,0,l),
(-13,-145,l)
);
},
{
closed = 1;
nodes = (
(181,390,l),
(197,507,l),
(91,507,l),
(75,390,l)
);
}
);
width = 240;
},
{
layerId = "2FBE8594-5CD7-4E1A-8146-362CAE16723C";
shapes = (
{
closed = 1;
nodes = (
(19,-134,l),
(96,6,l),
(106,79,l),
(47,79,l),
(36,0,l),
(63,0,l),
(-5,-134,l)
);
},
{
closed = 1;
nodes = (
(146,421,l),
(157,500,l),
(98,500,l),
(87,421,l)
);
}
);
width = 215;
}
);
unicode = 59;
}
{
glyphname = less;
layers = (
{
layerId = "19535A56-B4B7-45FA-8766-5D6358701C99";
shapes = (
{
closed = 1;
nodes = (
(260,348,l),
(573,456,l),
(597,629,l),
(60,433,l),
(38,273,l),
(520,78,l),
(541,236,l)
);
}
);
width = 610;
},
{
layerId = "AEBEF15D-4BBA-4516-955A-7DB830DF0DA8";
shapes = (
{
closed = 1;
nodes = (
(173,355,l),
(500,479,l),
(511,568,l),
(73,398,l),
(61,314,l),
(454,147,l),
(464,228,l)
);
}
);
width = 539;
},
{
layerId = "ABC3C110-A709-486E-B3D5-BEE5600AE028";
shapes = (
{
closed = 1;
nodes = (
(133,358,l),
(467,490,l),
(472,540,l),
(79,382,l),
(72,333,l),
(424,178,l),
(429,224,l)
);
}
);
width = 506;
}
);
unicode = 60;
}
{
glyphname = equal;
layers = (
{
layerId = "F426EF5A-234F-4D9D-8FA2-B6E01B62F842";
shapes = (
{
closed = 1;
nodes = (
(40,540,l),
(40,399,l),
(562,399,l),
(562,540,l)
);
},
{
closed = 1;
nodes = (
(40,299,l),
(40,158,l),
(562,158,l),
(562,299,l)
);
}
);
width = 611;
},
{
layerId = "25174B84-9FC9-4237-B6C0-AF6CE185AC75";
shapes = (
{
closed = 1;
nodes = (
(61,506,l),
(61,436,l),
(499,437,l),
(499,507,l)
);
},
{
closed = 1;
nodes = (
(61,280,l),
(61,210,l),
(499,210,l),
(499,280,l)
);
}
);
width = 544;
},
{
layerId = "E845DC5E-3808-4662-B0C6-177943F39A70";
shapes = (
{
closed = 1;
nodes = (
(70,491,l),
(70,453,l),
(471,454,l),
(471,492,l)
);
},
{
closed = 1;
nodes = (
(70,271,l),
(70,233,l),
(471,234,l),
(471,272,l)
);
}
);
width = 514;
}
);
unicode = 61;
}
{
glyphname = greater;
layers = (
{
layerId = "90BAD496-908C-46A8-8D40-D80AAE603430";
shapes = (
{
closed = 1;
nodes = (
(30,71,l),
(566,266,l),
(589,425,l),
(107,622,l),
(84,464,l),
(367,348,l),
(54,244,l)
);
}
);
width = 611;
},
{
layerId = "E1183961-CF0C-4334-8CD2-07F6368CCCB1";
shapes = (
{
closed = 1;
nodes = (
(51,144,l),
(489,312,l),
(501,395,l),
(108,565,l),
(97,483,l),
(390,355,l),
(64,231,l)
);
}
);
width = 539;
},
{
layerId = "24DA169B-0D71-476F-B940-6C54E096B564";
shapes = (
{
closed = 1;
nodes = (
(61,177,l),
(454,333,l),
(461,382,l),
(109,539,l),
(103,491,l),
(400,358,l),
(68,225,l)
);
}
);
width = 506;
}
);
unicode = 62;
}
{
glyphname = question;
rightMetricsKey = z;
layers = (
{
layerId = "49A8D228-E827-44F0-AB9F-01876E91E3EE";
shapes = (
{
closed = 1;
nodes = (
(339,269,l),
(341,280,ls),
(346,310,o),
(360,333,o),
(379,354,cs),
(442,423,o),
(558,458,o),
(573,569,cs),
(586,665,o),
(491,752,o),
(332,752,cs),
(194,752,o),
(93,690,o),
(31,568,c),
(206,529,l),
(234,588,o),
(281,622,o),
(328,622,cs),
(359,622,o),
(382,607,o),
(379,580,cs),
(374,542,o),
(341,514,o),
(303,479,cs),
(256,436,o),
(202,382,o),
(186,287,cs),
(183,269,l)
);
},
{
closed = 1;
nodes = (
(150,197,l),
(123,0,l),
(333,0,l),
(361,197,l)
);
}
);
width = 543;
},
{
layerId = "2C111888-158E-4586-831E-29429C16F99E";
shapes = (
{
closed = 1;
nodes = (
(227,241,l),
(236,295,l),
(243,329,o),
(277,361,o),
(316,394,c),
(388,457,o),
(475,514,o),
(480,610,cs),
(483,688,o),
(415,752,o),
(311,752,cs),
(221,752,o),
(151,709,o),
(94,624,c),
(167,601,l),
(202,657,o),
(245,685,o),
(304,685,cs),
(358,685,o),
(396,654,o),
(396,609,c),
(394,545,o),
(339,500,o),
(282,456,c),
(231,414,o),
(176,368,o),
(162,286,cs),
(154,241,l)
);
},
{
closed = 1;
nodes = (
(121,116,l),
(103,0,l),
(209,0,l),
(228,116,l)
);
}
);
width = 463;
},
{
guides = (
{
angle = 90;
position = "{140.1, 0}";
},
{
angle = 90;
position = "{237.6, 0}";
}
);
layerId = "1D6C4D12-DF74-4368-BFD3-C72FEEEBBCF3";
shapes = (
{
closed = 1;
nodes = (
(176,228,l),
(188,302,l),
(196,338,o),
(239,373,o),
(288,412,cs),
(363,472,o),
(437,539,o),
(437,629,cs),
(436,698,o),
(381,752,o),
(301,752,cs),
(233,752,o),
(177,718,o),
(123,650,c),
(149,633,l),
(187,689,o),
(229,714,o),
(293,714,cs),
(357,714,o),
(403,675,o),
(403,622,cs),
(403,547,o),
(338,493,o),
(273,446,c),
(219,404,o),
(164,362,o),
(151,285,cs),
(141,228,l)
);
},
{
closed = 1;
nodes = (
(108,79,l),
(94,0,l),
(153,0,l),
(167,79,l)
);
}
);
width = 433;
}
);
leftKerningGroup = question;
unicode = 63;
}
{
glyphname = at;
layers = (
{
layerId = "19535A56-B4B7-45FA-8766-5D6358701C99";
shapes = (
{
closed = 1;
nodes = (
(589,42,l),
(539,7,o),
(494,-21,o),
(398,-21,cs),
(223,-21,o),
(119,68,o),
(145,254,cs),
(169,418,o),
(275,560,o),
(500,560,cs),
(632,560,o),
(744,514,o),
(720,343,cs),
(708,267,o),
(669,185,o),
(613,185,cs),
(595,185,o),
(596,204,o),
(603,225,cs),
(672,449,l),
(563,449,l),
(548,421,l),
(532,446,o),
(505,475,o),
(445,475,cs),
(319,475,o),
(229,369,o),
(213,255,cs),
(196,142,o),
(257,67,o),
(353,67,cs),
(423,67,o),
(482,93,o),
(498,136,c),
(518,99,o),
(551,81,o),
(600,81,cs),
(716,81,o),
(806,181,o),
(827,327,cs),
(859,559,o),
(689,661,o),
(499,661,cs),
(244,661,o),
(65,483,o),
(35,273,cs),
(5,61,o),
(132,-113,o),
(384,-113,cs),
(498,-113,o),
(594,-78,o),
(645,-46,c)
);
},
{
closed = 1;
nodes = (
(353,312,o),
(406,364,o),
(455,364,cs),
(494,364,o),
(507,329,o),
(502,294,cs),
(494,238,o),
(445,178,o),
(389,178,cs),
(349,178,o),
(339,212,o),
(343,247,c)
);
}
);
width = 844;
},
{
layerId = "AEBEF15D-4BBA-4516-955A-7DB830DF0DA8";
shapes = (
{
closed = 1;
nodes = (
(575,13,l),
(523,-24,o),
(477,-54,o),
(386,-54,cs),
(180,-54,o),
(88,80,o),
(112,255,cs),
(137,442,o),
(274,600,o),
(484,600,cs),
(615,600,o),
(746,530,o),
(720,338,cs),
(705,227,o),
(643,143,o),
(575,143,cs),
(543,143,o),
(535,164,o),
(551,217,cs),
(620,449,l),
(558,449,l),
(539,404,l),
(520,448,o),
(486,475,o),
(433,475,cs),
(324,475,o),
(235,372,o),
(218,248,cs),
(202,139,o),
(258,67,o),
(334,67,cs),
(398,67,o),
(446,91,o),
(484,144,c),
(493,100,o),
(515,81,o),
(568,81,cs),
(674,81,o),
(766,184,o),
(786,335,cs),
(817,562,o),
(655,661,o),
(485,661,cs),
(254,661,o),
(75,480,o),
(46,266,cs),
(18,58,o),
(136,-113,o),
(373,-113,cs),
(463,-113,o),
(545,-84,o),
(609,-41,c)
);
},
{
closed = 1;
nodes = (
(303,335,o),
(363,410,o),
(436,410,cs),
(484,410,o),
(522,365,o),
(499,276,cs),
(479,199,o),
(415,132,o),
(350,132,cs),
(302,132,o),
(282,176,o),
(291,244,cs)
);
}
);
width = 808;
},
{
layerId = "ABC3C110-A709-486E-B3D5-BEE5600AE028";
shapes = (
{
closed = 1;
nodes = (
(569,0,l),
(515,-38,o),
(469,-69,o),
(381,-69,cs),
(161,-69,o),
(74,85,o),
(97,256,cs),
(123,453,o),
(274,618,o),
(476,618,cs),
(607,618,o),
(747,537,o),
(720,336,cs),
(703,209,o),
(631,124,o),
(557,124,cs),
(519,124,o),
(507,146,o),
(527,213,cs),
(596,449,l),
(556,449,l),
(535,396,l),
(515,449,o),
(478,475,o),
(428,475,cs),
(326,475,o),
(237,374,o),
(220,245,cs),
(205,137,o),
(258,67,o),
(325,67,cs),
(387,67,o),
(429,90,o),
(478,148,c),
(482,101,o),
(498,81,o),
(554,81,cs),
(655,81,o),
(748,186,o),
(768,338,cs),
(798,563,o),
(639,661,o),
(479,661,cs),
(258,661,o),
(80,478,o),
(51,263,cs),
(24,56,o),
(138,-113,o),
(368,-113,cs),
(447,-113,o),
(523,-87,o),
(592,-38,c)
);
},
{
closed = 1;
nodes = (
(280,346,o),
(344,431,o),
(427,431,cs),
(480,431,o),
(529,381,o),
(497,268,cs),
(472,181,o),
(401,111,o),
(332,111,cs),
(280,111,o),
(256,159,o),
(267,242,cs)
);
}
);
width = 792;
}
);
leftKerningGroup = c;
rightKerningGroup = b;
unicode = 64;
}
{
glyphname = A;
layers = (
{
anchors = (
{
name = ogonek;
position = "{706, 9}";
},
{
name = top;
position = "{458, 742}";
}
);
layerId = "F426EF5A-234F-4D9D-8FA2-B6E01B62F842";
shapes = (
{
closed = 1;
nodes = (
(173,0,l),
(243,144,l),
(477,144,l),
(506,0,l),
(703,0,l),
(545,742,l),
(341,742,l),
(-26,0,l)
);
},
{
closed = 1;
nodes = (
(416,551,l),
(456,314,l),
(309,314,l)
);
}
);
width = 739;
},
{
anchors = (
{
name = ogonek;
position = "{602, 10}";
},
{
name = top;
position = "{403, 742}";
}
);
layerId = "25174B84-9FC9-4237-B6C0-AF6CE185AC75";
shapes = (
{
closed = 1;
nodes = (
(77.284,0,l),
(178.675,206,l),
(474.156,206,l),
(517.609,0,l),
(606.447,0,l),
(448.084,742,l),
(348.625,742,l),
(-11.553,0,l)
);
},
{
closed = 1;
nodes = (
(387.25,652,l),
(461.603,289,l),
(211.506,289,l)
);
}
);
width = 661;
},
{
anchors = (
{
name = ogonek;
position = "{555, 11}";
},
{
name = top;
position = "{378, 742}";
}
);
guides = (
{
angle = 70.442;
position = "{11, 119}";
},
{
angle = 109.151;
position = "{413, 119}";
}
);
layerId = "E845DC5E-3808-4662-B0C6-177943F39A70";
shapes = (
{
closed = 1;
nodes = (
(35.2,0,l),
(150.15,234,l),
(472.2,234,l),
(521.6,0,l),
(563.4,0,l),
(405.7,742,l),
(351.55,742,l),
(-5.65,0,l)
);
},
{
closed = 1;
nodes = (
(373.4,698,l),
(463.65,278,l),
(169.15,278,l)
);
}
);
width = 626;
}
);
leftKerningGroup = A2;
rightKerningGroup = A;
unicode = 65;
}
{
glyphname = B;
leftMetricsKey = N;
layers = (
{
layerId = "6D36DE7A-3498-4CCA-80AC-5FCC24B8EDC5";
shapes = (
{
closed = 1;
nodes = (
(336,0,ls),
(552,0,o),
(644,64,o),
(663,202,cs),
(671,257,o),
(676,343,o),
(550,382,c),
(649,427,o),
(684,477,o),
(693,546,cs),
(711,672,o),
(631,742,o),
(424,742,cs),
(128,742,l),
(24,0,l)
);
},
{
closed = 1;
nodes = (
(266,298,l),
(391,298,ls),
(441,298,o),
(469,268,o),
(464,227,c),
(458,188,o),
(423,150,o),
(365,150,cs),
(245,150,l)
);
},
{
closed = 1;
nodes = (
(307,592,l),
(425,592,ls),
(472,592,o),
(505,564,o),
(499,520,cs),
(493,481,o),
(459,452,o),
(412,452,cs),
(287,452,l)
);
}
);
width = 691;
},
{
layerId = "52CA2DEC-CCDD-4868-A7D2-69659C24EBA2";
shapes = (
{
closed = 1;
nodes = (
(295,0,ls),
(476,0,o),
(578,65,o),
(596,199,cs),
(608,284,o),
(579,353,o),
(470,378,c),
(573,413,o),
(615,469,o),
(626,549,cs),
(643,673,o),
(561,742,o),
(388,742,cs),
(160,742,l),
(59,0,l)
);
},
{
closed = 1;
nodes = (
(193,337,l),
(350,337,ls),
(447,337,o),
(520,298,o),
(507,203,cs),
(495,116,o),
(426,76,o),
(305,76,cs),
(158,76,l)
);
},
{
closed = 1;
nodes = (
(238,666,l),
(382,666,ls),
(484,666,o),
(550,625,o),
(539,537,cs),
(526,441,o),
(436,414,o),
(360,414,cs),
(203,414,l)
);
}
);
width = 653;
},
{
layerId = "FE16441F-5029-4BC1-8299-959132AD36E4";
shapes = (
{
closed = 1;
nodes = (
(275,0,ls),
(441,0,o),
(547,66,o),
(565,198,cs),
(578,296,o),
(534,358,o),
(432,376,c),
(538,407,o),
(583,466,o),
(595,550,cs),
(611,674,o),
(528,742,o),
(371,742,cs),
(173,742,l),
(74,0,l)
);
},
{
closed = 1;
nodes = (
(159,354,l),
(330,354,ls),
(448,354,o),
(542,312,o),
(526,192,cs),
(511,83,o),
(426,42,o),
(276,42,cs),
(118,42,l)
);
},
{
closed = 1;
nodes = (
(205,700,l),
(361,700,ls),
(489,700,o),
(570,653,o),
(556,545,cs),
(540,423,o),
(424,396,o),
(335,396,cs),
(164,396,l)
);
}
);
width = 635;
}
);
leftKerningGroup = B;
unicode = 66;
}
{
glyphname = C;
layers = (
{
anchors = (
{
name = bottom;
position = "{339, 0}";
},
{
name = top;
position = "{443, 742}";
}
);
guides = (
{
angle = 176.441;
position = "{452, 331}";
}
);
layerId = "19535A56-B4B7-45FA-8766-5D6358701C99";
shapes = (
{
closed = 1;
nodes = (
(227,752,o),
(69,606,o),
(37,381,cs),
(6,155,o),
(122,-10,o),
(337,-10,cs),
(574,-10,o),
(655,110,o),
(698,264,c),
(502,277,l),
(480,208,o),
(434,150,o),
(366,150,cs),
(291,150,o),
(232,212,o),
(255,377,cs),
(278,540,o),
(353,592,o),
(428,592,cs),
(496,592,o),
(527,544,o),
(529,475,c),
(729,488,l),
(735,648,o),
(620,752,o),
(444,752,cs)
);
}
);
width = 707;
},
{
anchors = (
{
name = bottom;
position = "{316, 0}";
},
{
name = top;
position = "{416, 742}";
}
);
guides = (
{
angle = 176.441;
position = "{452, 331}";
}
);
layerId = "AEBEF15D-4BBA-4516-955A-7DB830DF0DA8";
shapes = (
{
closed = 1;
nodes = (
(222.128,752,o),
(93.7,609,o),
(60.869,372,cs),
(29.969,136,o),
(120.737,-10,o),
(313.862,-10,cs),
(466.431,-10,o),
(577.478,83,o),
(607.412,204,c),
(520.506,217,l),
(488.641,126,o),
(416.219,69,o),
(328.347,69,cs),
(190.262,69,o),
(130.394,171,o),
(157.431,371,cs),
(185.434,575,o),
(274.272,673,o),
(404.631,673,cs),
(509.884,673,o),
(560.097,609,o),
(563.959,522,c),
(653.762,531,l),
(657.625,654,o),
(565.891,752,o),
(411.391,752,cs)
);
}
);
width = 660;
},
{
anchors = (
{
name = bottom;
position = "{305, 0}";
},
{
name = top;
position = "{404, 742}";
}
);
guides = (
{
angle = 90;
position = "{655, 0}";
}
);
layerId = "ABC3C110-A709-486E-B3D5-BEE5600AE028";
shapes = (
{
closed = 1;
nodes = (
(219.5,752,o),
(103.6,610,o),
(71.3,368,cs),
(39.95,127,o),
(119.75,-10,o),
(303.1,-10,cs),
(419.,-10,o),
(542.5,71,o),
(567.2,177,c),
(527.3,189,l),
(492.15,89,o),
(407.6,32,o),
(310.7,32,cs),
(146.35,32,o),
(85.55,153,o),
(114.05,368,cs),
(144.45,591,o),
(239.45,710,o),
(394.3,710,cs),
(514.95,710,o),
(572.9,639,o),
(577.65,543,c),
(620.4,550,l),
(623.25,656,o),
(541.55,752,o),
(397.15,752,cs)
);
}
);
width = 638;
}
);
leftKerningGroup = C2;
rightKerningGroup = C;
unicode = 67;
}
{
glyphname = D;
leftMetricsKey = N;
layers = (
{
layerId = "F426EF5A-234F-4D9D-8FA2-B6E01B62F842";
shapes = (
{
closed = 1;
nodes = (
(24,0,l),
(289,0,ls),
(552,0,o),
(696,157,o),
(726,373,cs),
(756,584,o),
(660,731,o),
(394,741,cs),
(330,743,o),
(149,742,o),
(128,742,c)
);
},
{
closed = 1;
nodes = (
(377,585,ls),
(479,585,o),
(538,513,o),
(519,376,cs),
(496,215,o),
(393,157,o),
(317,157,cs),
(246,157,l),
(306,585,l)
);
}
);
width = 730;
},
{
layerId = "25174B84-9FC9-4237-B6C0-AF6CE185AC75";
shapes = (
{
closed = 1;
nodes = (
(59.903,0,l),
(212.472,0,ls),
(472.225,0,o),
(612.241,128,o),
(646.037,375,cs),
(676.937,612,o),
(585.203,737,o),
(322.553,741,cs),
(261.719,742,o),
(168.053,742,o),
(160.328,742,c)
);
},
{
closed = 1;
nodes = (
(306.137,663,ls),
(486.709,663,o),
(583.272,592,o),
(553.337,373,cs),
(523.403,157,o),
(404.631,78,o),
(222.128,78,cs),
(160.328,78,l),
(239.509,663,l)
);
}
);
width = 676;
},
{
layerId = "E845DC5E-3808-4662-B0C6-177943F39A70";
shapes = (
{
closed = 1;
nodes = (
(75.1,0,l),
(178.65,0,ls),
(437.05,0,o),
(574.8,115,o),
(609.95,376,cs),
(642.25,624,o),
(552.,739,o),
(290.75,741,cs),
(231.85,741,o),
(175.8,742,o),
(173.9,742,c)
);
},
{
closed = 1;
nodes = (
(274.6,699,ls),
(489.3,699,o),
(601.4,628,o),
(567.2,372,cs),
(534.9,130,o),
(408.55,42,o),
(180.55,42,cs),
(122.6,42,l),
(210.,699,l)
);
}
);
width = 651;
}
);
leftKerningGroup = B;
rightKerningGroup = D;
unicode = 68;
}
{
glyphname = E;
leftMetricsKey = N;
layers = (
{
anchors = (
{
name = bottom;
position = "{297, 0}";
},
{
name = ogonek;
position = "{572, 10}";
},
{
name = top;
position = "{401, 742}";
}
);
layerId = "F426EF5A-234F-4D9D-8FA2-B6E01B62F842";
shapes = (
{
closed = 1;
nodes = (
(572,0,l),
(595,166,l),
(247,166,l),
(265,292,l),
(555,292,l),
(577,453,l),
(288,453,l),
(306,576,l),
(651,576,l),
(675,742,l),
(128,742,l),
(24,0,l)
);
}
);
width = 648;
},
{
anchors = (
{
name = bottom;
position = "{305, 0}";
},
{
name = ogonek;
position = "{513, 10}";
},
{
name = top;
position = "{393, 742}";
}
);
layerId = "25174B84-9FC9-4237-B6C0-AF6CE185AC75";
shapes = (
{
closed = 1;
nodes = (
(517.609,0,l),
(528.231,81,l),
(157.431,81,l),
(192.194,335,l),
(517.609,335,l),
(528.231,414,l),
(202.816,414,l),
(236.612,661,l),
(596.791,661,l),
(607.412,742,l),
(160.328,742,l),
(59.903,0,l)
);
}
);
width = 611;
},
{
anchors = (
{
name = bottom;
position = "{309, 0}";
},
{
name = ogonek;
position = "{486, 10}";
},
{
name = top;
position = "{390, 742}";
}
);
layerId = "E845DC5E-3808-4662-B0C6-177943F39A70";
shapes = (
{
closed = 1;
nodes = (
(493.1,0,l),
(498.8,42,l),
(118.8,43,l),
(159.65,354,l),
(500.7,354,l),
(506.4,396,l),
(165.35,396,l),
(206.2,700,l),
(571.95,700,l),
(577.65,742,l),
(173.9,742,l),
(75.1,0,l)
);
}
);
width = 594;
}
);
leftKerningGroup = B;
rightKerningGroup = E;
unicode = 69;
}
{
glyphname = F;
leftMetricsKey = N;
layers = (
{
layerId = "F426EF5A-234F-4D9D-8FA2-B6E01B62F842";
shapes = (
{
closed = 1;
nodes = (
(24,0,l),
(224,0,l),
(264,286,l),
(550,286,l),
(572,445,l),
(286,445,l),
(305,578,l),
(647,578,l),
(671,742,l),
(128,742,l)
);
}
);
width = 623;
},
{
layerId = "25174B84-9FC9-4237-B6C0-AF6CE185AC75";
shapes = (
{
closed = 1;
nodes = (
(59,0,l),
(151,0,l),
(196,333,l),
(513,333,l),
(524,412,l),
(207,412,l),
(240,662,l),
(592,662,l),
(603,742,l),
(160,742,l)
);
}
);
width = 577;
},
{
layerId = "E845DC5E-3808-4662-B0C6-177943F39A70";
shapes = (
{
closed = 1;
nodes = (
(74,0,l),
(116,0,l),
(163,355,l),
(495,355,l),
(501,397,l),
(169,397,l),
(209,700,l),
(565,700,l),
(571,742,l),
(173,742,l)
);
}
);
width = 554;
}
);
leftKerningGroup = B;
rightKerningGroup = F;
unicode = 70;
}
{
glyphname = G;
layers = (
{
anchors = (
{
name = bottom;
position = "{336, 0}";
},
{
name = top;
position = "{440, 742}";
}
);
layerId = "53698F14-3379-49FD-849B-EB3564F78825";
shapes = (
{
closed = 1;
nodes = (
(454,-10,o),
(515,44,o),
(557,82,c),
(546,0,l),
(677,0,l),
(732,392,l),
(393,394,l),
(374,259,l),
(503,259,l),
(490,233,ls),
(466,187,o),
(429,163,o),
(373,163,cs),
(309,163,o),
(228,193,o),
(253,374,cs),
(276,534,o),
(350,587,o),
(424,587,cs),
(493,587,o),
(519,541,o),
(529,470,c),
(741,501,l),
(734,624,o),
(651,752,o),
(452,752,cs),
(238,752,o),
(68,599,o),
(35,368,cs),
(4,145,o),
(121,-10,o),
(332,-10,cs)
);
}
);
width = 753;
},
{
anchors = (
{
name = bottom;
position = "{317, 0}";
},
{
name = top;
position = "{415, 742}";
}
);
layerId = "3A2F0B01-8BAD-43D2-BFC9-C9D3CCE0022F";
shapes = (
{
closed = 1;
nodes = (
(423.944,-10,o),
(499.262,49,o),
(545.612,114,c),
(530.162,0,l),
(596.791,0,l),
(647.969,382,l),
(381.456,382,l),
(372.766,316,l),
(549.475,316,l),
(536.922,248,l),
(520.506,169,o),
(450.016,72,o),
(328.347,72,cs),
(200.884,72,o),
(126.531,166,o),
(155.5,374,cs),
(181.572,568,o),
(278.134,672,o),
(407.528,672,cs),
(499.262,672,o),
(556.234,607,o),
(561.062,521,c),
(656.659,536,l),
(656.659,649,o),
(561.062,752,o),
(419.116,752,cs),
(233.716,752,o),
(93.7,609,o),
(60.869,368,cs),
(29.003,134,o),
(124.6,-10,o),
(310.966,-10,cs)
);
}
);
width = 697;
},
{
anchors = (
{
name = bottom;
position = "{309, 0}";
},
{
name = top;
position = "{403, 742}";
}
);
layerId = "4B62E599-A761-4CCD-BB2B-30B6A69879C7";
shapes = (
{
closed = 1;
nodes = (
(410.45,-10,o),
(491.2,51,o),
(539.65,129,c),
(522.55,0,l),
(560.55,0,l),
(610.9,377,l),
(376.25,377,l),
(371.5,342,l),
(568.15,342,l),
(556.75,255,ls),
(543.45,161,o),
(457.95,30,o),
(307.85,30,cs),
(153.,30,o),
(82.7,153,o),
(112.15,374,cs),
(140.65,584,o),
(246.1,710,o),
(399.05,710,cs),
(500.7,710,o),
(571.,637,o),
(573.85,544,c),
(619.45,552,l),
(622.3,660,o),
(520.65,752,o),
(403.8,752,cs),
(231.85,752,o),
(104.55,614,o),
(71.3,368,cs),
(39.95,129,o),
(125.45,-10,o),
(301.2,-10,cs)
);
}
);
width = 671;
}
);
leftKerningGroup = C2;
rightKerningGroup = G;
unicode = 71;
}
{
glyphname = H;
leftMetricsKey = N;
rightMetricsKey = N;
layers = (
{
anchors = (
{
name = bottom;
position = "{315, 0}";
},
{
name = top;
position = "{416, 742}";
}
);
layerId = "D3EE8B69-6DF3-4675-93B7-89734647BE71";
name = "#instance";
shapes = (
{
closed = 1;
nodes = (
(485.744,0,l),
(572.65,0,l),
(673.075,742,l),
(586.169,742,l),
(543.681,424,l),
(204.747,424,l),
(247.234,742,l),
(160.328,742,l),
(59.903,0,l),
(146.809,0,l),
(193.159,344,l),
(532.094,344,l)
);
}
);
width = 702;
},
{
anchors = (
{
name = bottom;
position = "{331, 0}";
},
{
name = top;
position = "{437, 742}";
}
);
layerId = "F59E5572-F07E-4A84-84E1-CE36D2AD8363";
shapes = (
{
closed = 1;
nodes = (
(448,0,l),
(648,0,l),
(752,742,l),
(552,742,l),
(513,461,l),
(289,461,l),
(328,742,l),
(128,742,l),
(24,0,l),
(224,0,l),
(265,297,l),
(489,297,l)
);
}
);
width = 744;
},
{
anchors = (
{
name = bottom;
position = "{315, 0}";
},
{
name = top;
position = "{416, 742}";
}
);
layerId = "84D84D83-1F61-4310-B099-D476523EDF4B";
shapes = (
{
closed = 1;
nodes = (
(485.744,0,l),
(572.65,0,l),
(673.075,742,l),
(586.169,742,l),
(543.681,424,l),
(204.747,424,l),
(247.234,742,l),
(160.328,742,l),
(59.903,0,l),
(146.809,0,l),
(193.159,344,l),
(532.094,344,l)
);
}
);
width = 702;
},
{
anchors = (
{
name = bottom;
position = "{308, 0}";
},
{
name = top;
position = "{407, 742}";
}
);
layerId = "5E3EA0A1-240F-463B-ACAB-4136DB7510A5";
shapes = (
{
closed = 1;
nodes = (
(501.65,0,l),
(539.65,0,l),
(638.45,742,l),
(600.45,742,l),
(555.8,407,l),
(167.25,407,l),
(211.9,742,l),
(173.9,742,l),
(75.1,0,l),
(113.1,0,l),
(161.55,365,l),
(550.1,365,l)
);
}
);
width = 683;
}
);
leftKerningGroup = B;
rightKerningGroup = H;
unicode = 72;
}
{
glyphname = I;
layers = (
{
anchors = (
{
name = bottom;
position = "{134, 0}";
},
{
name = ogonek;
position = "{199, 3}";
},
{
name = top;
position = "{228, 742}";
}
);
layerId = "B872A948-CF4A-4CBB-8276-18DBE9F9CB6F";
shapes = (
{
closed = 1;
nodes = (
(24,0,l),
(224,0,l),
(328,742,l),
(128,742,l)
);
}
);
width = 320;
},
{
anchors = (
{
name = bottom;
position = "{107, 0}";
},
{
name = ogonek;
position = "{136, 8}";
},
{
name = top;
position = "{207, 742}";
}
);
layerId = "CDE4D1C1-62F2-4871-801D-D4385200C2D4";
shapes = (
{
closed = 1;
nodes = (
(59.903,0,l),
(146.809,0,l),
(247.234,742,l),
(160.328,742,l)
);
}
);
width = 277;
},
{
anchors = (
{
name = bottom;
position = "{95, 0}";
},
{
name = ogonek;
position = "{107, 10}";
},
{
name = top;
position = "{197, 742}";
}
);
layerId = "205523CA-C9A0-433B-A23D-3E9A8307D858";
shapes = (
{
closed = 1;
nodes = (
(75.1,0,l),
(113.1,0,l),
(211.9,742,l),
(173.9,742,l)
);
}
);
width = 257;
}
);
leftKerningGroup = B;
rightKerningGroup = H;
unicode = 73;
}
{
glyphname = J;
layers = (
{
layerId = "F426EF5A-234F-4D9D-8FA2-B6E01B62F842";
shapes = (
{
closed = 1;
nodes = (
(436,742,l),
(236,742,l),
(172,286,ls),
(161,209,o),
(139,174,o),
(68,174,cs),
(47,174,o),
(22,177,o),
(4,179,c),
(-21,0,l),
(8,-6,o),
(69,-10,o),
(111,-10,cs),
(290,-10,o),
(342,71,o),
(365,235,cs)
);
}
);
width = 418;
},
{
layerId = "25174B84-9FC9-4237-B6C0-AF6CE185AC75";
shapes = (
{
closed = 1;
nodes = (
(348.625,742,l),
(261.719,742,l),
(187.366,198,ls),
(175.778,110,o),
(150.672,76,o),
(85.975,76,cs),
(45.419,76,o),
(22.244,92,o),
(3.897,100,c),
(-15.416,13,l),
(-1.897,7,o),
(45.419,-10,o),
(96.597,-10,cs),
(214.403,-10,o),
(255.925,56,o),
(271.375,172,cs)
);
}
);
width = 364;
},
{
layerId = "E845DC5E-3808-4662-B0C6-177943F39A70";
shapes = (
{
closed = 1;
nodes = (
(309.75,742,l),
(271.75,742,l),
(193.85,158,ls),
(181.5,65,o),
(154.9,32,o),
(93.15,32,cs),
(43.75,32,o),
(21.9,53,o),
(2.9,64,c),
(-13.25,19,l),
(-6.6,13,o),
(34.25,-10,o),
(89.35,-10,cs),
(181.5,-10,o),
(217.6,49,o),
(229.95,144,cs)
);
}
);
width = 340;
}
);
leftKerningGroup = J2;
rightKerningGroup = J;
unicode = 74;
}
{
glyphname = K;
leftMetricsKey = N;
layers = (
{
anchors = (
{
name = bottom;
position = "{323, 0}";
},
{
name = top;
position = "{427, 742}";
}
);
guides = (
{
angle = 54.499;
position = "{774, 742}";
},
{
angle = 297.12;
position = "{306, 313}";
}
);
hints = (
{
horizontal = 1;
place = (0,21);
target = up;
type = BottomGhost;
},
{
horizontal = 1;
place = (742,-20);
target = down;
type = TopGhost;
},
{
place = (-156,1);
type = Stem;
}
);
layerId = "F426EF5A-234F-4D9D-8FA2-B6E01B62F842";
shapes = (
{
closed = 1;
nodes = (
(530,458,l),
(774,742,l),
(549,742,l),
(293,442,l),
(335,742,l),
(128,742,l),
(24,0,l),
(231,0,l),
(258,194,l),
(367,313,l),
(488,0,l),
(703,0,l)
);
}
);
width = 749;
},
{
anchors = (
{
name = bottom;
position = "{301, 0}";
},
{
name = top;
position = "{421, 742}";
}
);
guides = (
{
angle = 54.499;
position = "{774, 742}";
},
{
angle = 297.12;
position = "{306, 313}";
}
);
hints = (
{
horizontal = 1;
place = (0,21);
target = up;
type = BottomGhost;
},
{
horizontal = 1;
place = (742,-20);
target = down;
type = TopGhost;
}
);
layerId = "25174B84-9FC9-4237-B6C0-AF6CE185AC75";
shapes = (
{
closed = 1;
nodes = (
(402.7,450,l),
(683.697,742,l),
(576.512,742,l),
(197.987,354,l),
(251.097,742,l),
(160.328,742,l),
(59.903,0,l),
(150.672,0,l),
(181.572,233,l),
(330.278,383,l),
(503.125,0,l),
(602.584,0,l)
);
}
);
width = 668;
},
{
anchors = (
{
name = bottom;
position = "{291, 0}";
},
{
name = top;
position = "{418, 742}";
}
);
guides = (
{
angle = 115.259;
position = "{509, 0}";
},
{
angle = 224.78;
position = "{687, 785}";
}
);
layerId = "E845DC5E-3808-4662-B0C6-177943F39A70";
shapes = (
{
closed = 1;
nodes = (
(346.8,447,l),
(643.2,742,l),
(588.1,742,l),
(156.8,314,l),
(213.8,742,l),
(173.9,742,l),
(75.1,0,l),
(115.,0,l),
(148.25,250,l),
(313.55,415,l),
(509.25,0,l),
(558.65,0,l)
);
}
);
width = 631;
}
);
leftKerningGroup = B;
rightKerningGroup = K;
unicode = 75;
}
{
glyphname = L;
leftMetricsKey = N;
layers = (
{
anchors = (
{
name = bottom;
position = "{269, 0}";
},
{
name = top;
position = "{217, 742}";
},
{
name = topright;
position = "{559, 742}";
}
);
layerId = "49A8D228-E827-44F0-AB9F-01876E91E3EE";
shapes = (
{
closed = 1;
nodes = (
(24,0,l),
(520,0,l),
(543,164,l),
(247,164,l),
(328,742,l),
(128,742,l)
);
}
);
width = 571;
},
{
anchors = (
{
name = bottom;
position = "{270, 0}";
},
{
name = top;
position = "{204, 742}";
},
{
name = topright;
position = "{495, 742}";
}
);
layerId = "2C111888-158E-4586-831E-29429C16F99E";
shapes = (
{
closed = 1;
nodes = (
(59.903,0,l),
(489.606,0,l),
(501.194,82,l),
(160.328,82,l),
(250.131,742,l),
(160.328,742,l)
);
}
);
width = 549;
},
{
anchors = (
{
name = bottom;
position = "{270, 0}";
},
{
name = top;
position = "{198, 742}";
},
{
name = topright;
position = "{466, 742}";
}
);
layerId = "1D6C4D12-DF74-4368-BFD3-C72FEEEBBCF3";
shapes = (
{
closed = 1;
nodes = (
(75.1,0,l),
(476.,0,l),
(481.7,44,l),
(122.6,44,l),
(215.7,742,l),
(173.9,742,l)
);
}
);
width = 539;
}
);
leftKerningGroup = B;
rightKerningGroup = L;
unicode = 76;
}
{
glyphname = M;
leftMetricsKey = N;
rightMetricsKey = N;
layers = (
{
layerId = "F59E5572-F07E-4A84-84E1-CE36D2AD8363";
shapes = (
{
closed = 1;
nodes = (
(224,0,l),
(299,537,l),
(368,0,l),
(512,0,l),
(731,537,l),
(656,0,l),
(856,0,l),
(960,742,l),
(665,742,l),
(480,289,l),
(424,742,l),
(128,742,l),
(24,0,l)
);
}
);
width = 952;
},
{
layerId = "84D84D83-1F61-4310-B099-D476523EDF4B";
shapes = (
{
closed = 1;
nodes = (
(149.706,0,l),
(229.853,597,l),
(358.281,0,l),
(441.325,0,l),
(733.909,602,l),
(652.797,0,l),
(741.634,0,l),
(842.059,742,l),
(724.253,742,l),
(416.219,121,l),
(280.066,742,l),
(160.328,742,l),
(59.903,0,l)
);
}
);
width = 871;
},
{
layerId = "5E3EA0A1-240F-463B-ACAB-4136DB7510A5";
shapes = (
{
closed = 1;
nodes = (
(116.9,0,l),
(199.55,624,l),
(353.45,0,l),
(410.45,0,l),
(734.4,632,l),
(649.85,0,l),
(691.65,0,l),
(790.45,742,l),
(748.65,742,l),
(387.65,45,l),
(216.65,742,l),
(173.9,742,l),
(75.1,0,l)
);
}
);
width = 835;
}
);
leftKerningGroup = B;
rightKerningGroup = H;
unicode = 77;
}
{
glyphname = N;
layers = (
{
anchors = (
{
name = bottom;
position = "{368, 0}";
},
{
name = top;
position = "{472, 742}";
}
);
guides = (
{
angle = 125.047;
position = "{502, 328}";
}
);
layerId = "4085F1A9-CD4F-447E-BF4E-06E18D46F28C";
shapes = (
{
closed = 1;
nodes = (
(560,328,l),
(329,742,l),
(128,742,l),
(24,0,l),
(224,0,l),
(286,442,l),
(533,0,l),
(714,0,l),
(818,742,l),
(618,742,l)
);
}
);
width = 810;
},
{
anchors = (
{
name = bottom;
position = "{320, 0}";
},
{
name = top;
position = "{446, 742}";
}
);
guides = (
{
angle = 125.047;
position = "{502, 328}";
}
);
layerId = "60E9CA7D-7455-4953-BBCB-0950C5D70619";
shapes = (
{
closed = 1;
nodes = (
(547.544,158,l),
(243.372,742,l),
(160.328,742,l),
(59.903,0,l),
(146.809,0,l),
(226.956,591,l),
(534.991,0,l),
(613.206,0,l),
(713.631,742,l),
(626.725,742,l)
);
}
);
width = 743;
},
{
anchors = (
{
name = bottom;
position = "{298, 0}";
},
{
name = top;
position = "{434, 742}";
}
);
guides = (
{
position = "{0, 576}";
showMeasurement = 1;
},
{
angle = 122.62;
position = "{190, 659}";
}
);
layerId = "0B47C4A7-9101-48D0-A00F-70D9DFD57C4A";
shapes = (
{
closed = 1;
nodes = (
(540.6,80,l),
(205.25,742,l),
(173.9,742,l),
(75.1,0,l),
(113.1,0,l),
(200.5,659,l),
(534.9,0,l),
(568.15,0,l),
(666.95,742,l),
(628.95,742,l)
);
}
);
width = 712;
}
);
leftKerningGroup = B;
rightKerningGroup = H;
unicode = 78;
}
{
glyphname = O;
layers = (
{
anchors = (
{
name = bottom;
position = "{322, 0}";
},
{
name = ogonek;
position = "{396, 9}";
},
{
name = top;
position = "{422, 742}";
}
);
guides = (
{
angle = 90;
position = "{-636, 0}";
}
);
layerId = "DB5B66A7-D76D-4C07-A73F-AA2F655CEE53";
name = "#instance";
shapes = (
{
closed = 1;
nodes = (
(508.919,-10,o),
(645.072,127,o),
(677.903,369,cs),
(710.734,613,o),
(611.275,752,o),
(422.012,752,cs),
(231.784,752,o),
(93.7,612,o),
(60.869,368,cs),
(28.037,126,o),
(125.566,-10,o),
(317.725,-10,cs)
);
},
{
closed = 1;
nodes = (
(195.091,69,o),
(128.462,163,o),
(156.466,368,cs),
(184.469,576,o),
(278.134,673,o),
(412.356,673,cs),
(545.612,673,o),
(610.309,577,o),
(582.306,368,cs),
(554.303,162,o),
(464.5,69,o),
(330.278,69,cs)
);
}
);
width = 709;
},
{
anchors = (
{
name = bottom;
position = "{345, 0}";
},
{
name = ogonek;
position = "{437, 10}";
},
{
name = top;
position = "{447, 742}";
}
);
guides = (
{
angle = 90;
position = "{-636, 0}";
}
);
layerId = "F877A2A6-2AE9-47A5-964B-6AC3A00E0840";
shapes = (
{
closed = 1;
nodes = (
(560,-10,o),
(721,139,o),
(754,369,cs),
(786,601,o),
(664,752,o),
(449,752,cs),
(232,752,o),
(68,601,o),
(36,369,cs),
(3,138,o),
(121,-10,o),
(342,-10,cs)
);
},
{
closed = 1;
nodes = (
(283,150,o),
(230,206,o),
(252,366,cs),
(275,531,o),
(345,592,o),
(427,592,cs),
(509,592,o),
(559,531,o),
(536,366,cs),
(514,206,o),
(447,150,o),
(365,150,cs)
);
}
);
width = 758;
},
{
anchors = (
{
name = bottom;
position = "{322, 0}";
},
{
name = ogonek;
position = "{396, 9}";
},
{
name = top;
position = "{422, 742}";
}
);
guides = (
{
angle = 90;
position = "{-636, 0}";
}
);
layerId = "47C38B4B-FB8A-4134-B3CD-D82C7CCC786A";
shapes = (
{
closed = 1;
nodes = (
(508.919,-10,o),
(645.072,127,o),
(677.903,369,cs),
(710.734,613,o),
(611.275,752,o),
(422.012,752,cs),
(231.784,752,o),
(93.7,612,o),
(60.869,368,cs),
(28.037,126,o),
(125.566,-10,o),
(317.725,-10,cs)
);
},
{
closed = 1;
nodes = (
(195.091,69,o),
(128.462,163,o),
(156.466,368,cs),
(184.469,576,o),
(278.134,673,o),
(412.356,673,cs),
(545.612,673,o),
(610.309,577,o),
(582.306,368,cs),
(554.303,162,o),
(464.5,69,o),
(330.278,69,cs)
);
}
);
width = 709;
},
{
anchors = (
{
name = bottom;
position = "{311, 0}";
},
{
name = ogonek;
position = "{378, 9}";
},
{
name = top;
position = "{410, 742}";
}
);
guides = (
{
angle = 90;
position = "{-480, 0}";
},
{
angle = 90;
position = "{485, 0}";
}
);
layerId = "7B6169A8-D8AD-4E0B-B0BB-F8A93FFABE5A";
shapes = (
{
closed = 1;
nodes = (
(485.5,-10,o),
(610.9,122,o),
(644.15,369,cs),
(677.4,618,o),
(587.15,752,o),
(409.5,752,cs),
(230.9,752,o),
(104.55,617,o),
(71.3,367,cs),
(39.,121,o),
(127.35,-10,o),
(306.9,-10,cs)
);
},
{
closed = 1;
nodes = (
(156.8,32,o),
(84.6,143,o),
(115.,369,cs),
(145.4,597,o),
(248.,710,o),
(404.75,710,cs),
(560.55,710,o),
(631.8,598,o),
(601.4,369,cs),
(571.,142,o),
(471.25,32,o),
(314.5,32,cs)
);
}
);
width = 686;
}
);
leftKerningGroup = C2;
rightKerningGroup = O;
unicode = 79;
}
{
glyphname = P;
layers = (
{
layerId = "B872A948-CF4A-4CBB-8276-18DBE9F9CB6F";
shapes = (
{
closed = 1;
nodes = (
(224,0,l),
(260,255,l),
(379,255,ls),
(542,255,o),
(656,344,o),
(677,490,cs),
(699,651,o),
(585,742,o),
(421,742,cs),
(128,742,l),
(24,0,l)
);
},
{
closed = 1;
nodes = (
(305,594,l),
(419,594,ls),
(464,594,o),
(502,552,o),
(495,500,cs),
(488,452,o),
(443,404,o),
(392,404,cs),
(278,404,l)
);
}
);
width = 654;
},
{
layerId = "CDE4D1C1-62F2-4871-801D-D4385200C2D4";
shapes = (
{
closed = 1;
nodes = (
(150,0,l),
(191,303,l),
(353,303,ls),
(503,303,o),
(615,374,o),
(636,522,cs),
(656,674,o),
(553,742,o),
(400,742,cs),
(160,742,l),
(59,0,l)
);
},
{
closed = 1;
nodes = (
(240,666,l),
(396,666,ls),
(498,666,o),
(563,628,o),
(549,527,cs),
(536,427,o),
(461,380,o),
(362,380,cs),
(201,380,l)
);
}
);
width = 622;
},
{
layerId = "205523CA-C9A0-433B-A23D-3E9A8307D858";
shapes = (
{
closed = 1;
nodes = (
(117,0,l),
(160,325,l),
(341,325,ls),
(485,325,o),
(597,388,o),
(617,536,cs),
(637,685,o),
(539,742,o),
(391,742,cs),
(174,742,l),
(75,0,l)
);
},
{
closed = 1;
nodes = (
(210,698,l),
(385,698,ls),
(513,698,o),
(591,663,o),
(574,539,cs),
(558,416,o),
(469,369,o),
(348,369,cs),
(166,369,l)
);
}
);
width = 608;
}
);
leftKerningGroup = B;
rightKerningGroup = P;
unicode = 80;
}
{
glyphname = Q;
layers = (
{
layerId = "4085F1A9-CD4F-447E-BF4E-06E18D46F28C";
shapes = (
{
closed = 1;
nodes = (
(3,138,o),
(121,-10,o),
(342,-10,cs),
(367,-10,o),
(388,-9,o),
(425,-5,c),
(497,-116,o),
(566,-128,o),
(685,-128,c),
(707,28,l),
(656,28,o),
(613,53,o),
(609,82,c),
(686,154,o),
(738,249,o),
(755,369,cs),
(787,601,o),
(665,752,o),
(449,752,cs),
(232,752,o),
(68,601,o),
(36,369,cs)
);
},
{
closed = 1;
nodes = (
(276,532,o),
(340,592,o),
(427,592,cs),
(513,592,o),
(559,532,o),
(536,367,cs),
(514,206,o),
(453,150,o),
(365,150,cs),
(276,150,o),
(231,206,o),
(253,367,cs)
);
}
);
width = 759;
},
{
layerId = "60E9CA7D-7455-4953-BBCB-0950C5D70619";
shapes = (
{
closed = 1;
nodes = (
(27,123,o),
(129,-10,o),
(318,-10,cs),
(344,-10,o),
(371,-7,o),
(404,-1,c),
(452,-106,o),
(536,-124,o),
(605,-124,c),
(616,-47,l),
(558,-45,o),
(509,-19,o),
(491,38,c),
(600,104,o),
(658,215,o),
(679,369,cs),
(711,614,o),
(611,752,o),
(422,752,cs),
(231,752,o),
(94,614,o),
(61,369,cs)
);
},
{
closed = 1;
nodes = (
(185,573,o),
(275,673,o),
(411,673,cs),
(547,673,o),
(609,573,o),
(581,368,cs),
(553,161,o),
(463,69,o),
(329,69,cs),
(194,69,o),
(131,161,o),
(157,367,cs)
);
}
);
width = 709;
},
{
layerId = "0B47C4A7-9101-48D0-A00F-70D9DFD57C4A";
shapes = (
{
closed = 1;
nodes = (
(38,116,o),
(132,-10,o),
(307,-10,cs),
(334,-10,o),
(363,-6,o),
(394,1,c),
(431,-101,o),
(523,-122,o),
(569,-122,c),
(574,-81,l),
(513,-78,o),
(462,-51,o),
(438,18,c),
(561,81,o),
(621,199,o),
(644,369,cs),
(677,620,o),
(587,752,o),
(409,752,cs),
(230,752,o),
(106,620,o),
(72,369,cs)
);
},
{
closed = 1;
nodes = (
(144,592,o),
(245,710,o),
(404,710,cs),
(562,710,o),
(631,592,o),
(601,369,cs),
(571,141,o),
(468,32,o),
(313,32,cs),
(157,32,o),
(85,141,o),
(114,367,cs)
);
}
);
width = 686;
}
);
leftKerningGroup = C2;
rightKerningGroup = O;
unicode = 81;
}
{
glyphname = R;
leftMetricsKey = N;
layers = (
{
layerId = "F426EF5A-234F-4D9D-8FA2-B6E01B62F842";
shapes = (
{
closed = 1;
nodes = (
(550,287,l),
(625,329,o),
(682,389,o),
(698,503,cs),
(717,637,o),
(657,742,o),
(464,742,cs),
(128,742,l),
(24,0,l),
(224,0,l),
(260,255,l),
(364,255,l),
(436,0,l),
(640,0,l)
);
},
{
closed = 1;
nodes = (
(280,404,l),
(307,594,l),
(421,594,ls),
(466,594,o),
(504,552,o),
(497,500,cs),
(490,452,o),
(445,404,o),
(394,404,cs)
);
}
);
width = 696;
},
{
layerId = "25174B84-9FC9-4237-B6C0-AF6CE185AC75";
shapes = (
{
closed = 1;
nodes = (
(472.225,339,l),
(543.681,365,o),
(623.828,420,o),
(640.244,541,cs),
(656.659,667,o),
(589.066,742,o),
(435.531,742,cs),
(160.328,742,l),
(59.903,0,l),
(146.809,0,l),
(190.262,322,l),
(387.25,322,l),
(476.087,0,l),
(567.822,0,l)
);
},
{
closed = 1;
nodes = (
(199.919,398,l),
(236.612,667,l),
(417.184,667,ls),
(511.816,667,o),
(562.028,624,o),
(550.441,535,cs),
(536.922,443,o),
(468.362,398,o),
(358.281,398,cs)
);
}
);
width = 655;
},
{
layerId = "E845DC5E-3808-4662-B0C6-177943F39A70";
shapes = (
{
closed = 1;
nodes = (
(438.,362,l),
(508.3,381,o),
(597.6,434,o),
(613.75,558,cs),
(629.9,680,o),
(558.65,742,o),
(421.85,742,cs),
(173.9,742,l),
(75.1,0,l),
(113.1,0,l),
(159.65,353,l),
(396.2,353,l),
(492.15,0,l),
(535.85,0,l)
);
},
{
closed = 1;
nodes = (
(165.35,395,l),
(206.2,700,l),
(415.2,700,ls),
(530.15,700,o),
(586.2,656,o),
(571.95,551,cs),
(556.75,439,o),
(477.9,395,o),
(342.05,395,cs)
);
}
);
width = 636;
}
);
leftKerningGroup = B;
rightKerningGroup = R;
unicode = 82;
}
{
glyphname = S;
layers = (
{
layerId = "D3EE8B69-6DF3-4675-93B7-89734647BE71";
name = "#instance";
shapes = (
{
closed = 1;
nodes = (
(448.464,-12,o),
(559.812,63,o),
(566.241,207,cs),
(573.83,377,o),
(397.589,394,o),
(287.687,441,cs),
(236.67,463,o),
(198.92,491,o),
(201.286,544,cs),
(205.036,628,o),
(277.134,675,o),
(356.134,675,cs),
(450.134,675,o),
(508.304,634,o),
(524.33,545,c),
(595.071,584,l),
(567.071,696,o),
(469.482,750,o),
(355.482,750,cs),
(232.482,750,o),
(112.223,677,o),
(106.286,544,cs),
(98.518,370,o),
(283.937,357,o),
(393.616,305,cs),
(440.634,283,o),
(473.295,253,o),
(470.973,201,cs),
(466.911,110,o),
(383.902,65,o),
(300.902,65,cs),
(202.902,65,o),
(126.134,115,o),
(103.33,209,c),
(31.634,171,l),
(65.232,50,o),
(191.464,-12,o),
(312.464,-12,cs)
);
}
);
width = 626;
},
{
layerId = "F59E5572-F07E-4A84-84E1-CE36D2AD8363";
shapes = (
{
closed = 1;
nodes = (
(491.429,-11,o),
(632.714,54,o),
(655.429,213,cs),
(683.143,407,o),
(487.429,437,o),
(351.429,486,cs),
(337.143,491,o),
(292.,511,o),
(295.143,533,cs),
(302.286,583,o),
(340.143,596,o),
(384.143,596,cs),
(445.143,596,o),
(507.571,578,o),
(532.857,524,c),
(671.857,622,l),
(620.857,713,o),
(495.286,751,o),
(387.286,751,cs),
(257.286,751,o),
(107.714,684,o),
(86.571,536,cs),
(59.143,344,o),
(266.429,304,o),
(400.714,257,cs),
(423.571,249,o),
(447.571,235,o),
(443.429,206,cs),
(436.714,159,o),
(379.,154,o),
(344.,154,cs),
(266.,154,o),
(190.571,172,o),
(155.,238,c),
(13.286,142,l),
(71.286,37,o),
(228.429,-11,o),
(349.429,-11,cs)
);
}
);
width = 683;
},
{
layerId = "84D84D83-1F61-4310-B099-D476523EDF4B";
shapes = (
{
closed = 1;
nodes = (
(448.464,-12,o),
(559.812,63,o),
(566.241,207,cs),
(573.83,377,o),
(397.589,394,o),
(287.687,441,cs),
(236.67,463,o),
(198.92,491,o),
(201.286,544,cs),
(205.036,628,o),
(277.134,675,o),
(356.134,675,cs),
(450.134,675,o),
(508.304,634,o),
(524.33,545,c),
(595.071,584,l),
(567.071,696,o),
(469.482,750,o),
(355.482,750,cs),
(232.482,750,o),
(112.223,677,o),
(106.286,544,cs),
(98.518,370,o),
(283.937,357,o),
(393.616,305,cs),
(440.634,283,o),
(473.295,253,o),
(470.973,201,cs),
(466.911,110,o),
(383.902,65,o),
(300.902,65,cs),
(202.902,65,o),
(126.134,115,o),
(103.33,209,c),
(31.634,171,l),
(65.232,50,o),
(191.464,-12,o),
(312.464,-12,cs)
);
}
);
width = 626;
},
{
layerId = "5E3EA0A1-240F-463B-ACAB-4136DB7510A5";
shapes = (
{
closed = 1;
nodes = (
(424,-12,o),
(526,68,o),
(526,205,cs),
(526,364,o),
(360,376,o),
(251,426,cs),
(197,451,o),
(157,485,o),
(157,550,cs),
(157,649,o),
(240,713,o),
(334,713,cs),
(445,713,o),
(500,660,o),
(518,554,c),
(559,573,l),
(537,686,o),
(458,750,o),
(341,750,cs),
(224,750,o),
(114,674,o),
(114,548,cs),
(114,402,o),
(261,383,o),
(369,337,cs),
(432,310,o),
(482,275,o),
(482,200,cs),
(482,94,o),
(393,26,o),
(292,26,cs),
(182,26,o),
(104,91,o),
(81,196,c),
(40,182,l),
(66,62,o),
(172,-12,o),
(293,-12,cs)
);
}
);
width = 600;
}
);
leftKerningGroup = S2;
rightKerningGroup = S;
unicode = 83;
}
{
glyphname = T;
layers = (
{
anchors = (
{
name = bottom;
position = "{289, 0}";
},
{
name = top;
position = "{393, 742}";
}
);
layerId = "4085F1A9-CD4F-447E-BF4E-06E18D46F28C";
shapes = (
{
closed = 1;
nodes = (
(259,566,l),
(180,0,l),
(380,0,l),
(459,566,l),
(671,566,l),
(696,742,l),
(73,742,l),
(48,566,l)
);
}
);
width = 633;
},
{
anchors = (
{
name = bottom;
position = "{257, 0}";
},
{
name = top;
position = "{357, 742}";
}
);
layerId = "60E9CA7D-7455-4953-BBCB-0950C5D70619";
shapes = (
{
closed = 1;
nodes = (
(299.378,658,l),
(209.575,0,l),
(296.481,0,l),
(386.284,658,l),
(605.481,658,l),
(617.069,742,l),
(77.284,742,l),
(65.697,658,l)
);
}
);
width = 563;
},
{
anchors = (
{
name = bottom;
position = "{242, 0}";
},
{
name = top;
position = "{341, 742}";
}
);
layerId = "0B47C4A7-9101-48D0-A00F-70D9DFD57C4A";
shapes = (
{
closed = 1;
nodes = (
(315.45,700,l),
(222.35,0,l),
(260.35,0,l),
(353.45,700,l),
(575.75,700,l),
(581.45,742,l),
(78.9,742,l),
(73.2,700,l)
);
}
);
width = 531;
}
);
leftKerningGroup = T2;
rightKerningGroup = T;
unicode = 84;
}
{
glyphname = U;
layers = (
{
anchors = (
{
name = ogonek;
position = "{426, 12}";
},
{
name = top;
position = "{430, 742}";
}
);
layerId = "B872A948-CF4A-4CBB-8276-18DBE9F9CB6F";
shapes = (
{
closed = 1;
nodes = (
(768,742,l),
(566,742,l),
(504,298,ls),
(489,196,o),
(428,157,o),
(366,157,cs),
(304,157,o),
(253,196,o),
(268,298,cs),
(330,742,l),
(128,742,l),
(67,307,ls),
(40,118,o),
(103,-10,o),
(342,-10,cs),
(581,-10,o),
(680,118,o),
(707,307,cs)
);
}
);
width = 750;
},
{
anchors = (
{
name = ogonek;
position = "{383, 10}";
},
{
name = top;
position = "{407, 742}";
}
);
layerId = "CDE4D1C1-62F2-4871-801D-D4385200C2D4";
shapes = (
{
closed = 1;
nodes = (
(670.178,742,l),
(582.306,742,l),
(516.644,250,ls),
(499.262,127,o),
(428.772,69,o),
(318.691,69,cs),
(209.575,69,o),
(157.431,129,o),
(173.847,250,c),
(240.475,742,l),
(150.672,742,l),
(85.975,264,ls),
(61.834,86,o),
(123.634,-10,o),
(307.103,-10,cs),
(489.606,-10,o),
(580.375,84,o),
(604.516,254,cs)
);
}
);
width = 686;
},
{
anchors = (
{
name = ogonek;
position = "{363, 9}";
},
{
name = top;
position = "{396, 742}";
}
);
layerId = "205523CA-C9A0-433B-A23D-3E9A8307D858";
shapes = (
{
closed = 1;
nodes = (
(627.05,742,l),
(589.05,742,l),
(520.65,228,ls),
(502.6,96,o),
(428.5,29,o),
(297.4,29,cs),
(168.2,29,o),
(115.,98,o),
(133.05,228,cs),
(201.45,742,l),
(159.65,742,l),
(93.15,245,ls),
(70.35,71,o),
(132.1,-10,o),
(291.7,-10,cs),
(449.4,-10,o),
(536.8,69,o),
(558.65,230,cs)
);
}
);
width = 657;
}
);
leftKerningGroup = U;
rightKerningGroup = J;
unicode = 85;
}
{
glyphname = V;
layers = (
{
guides = (
{
angle = 251.38;
position = "{285, 234}";
}
);
layerId = "6D36DE7A-3498-4CCA-80AC-5FCC24B8EDC5";
shapes = (
{
closed = 1;
nodes = (
(599,742,l),
(357,234,l),
(256,742,l),
(68,742,l),
(214,0,l),
(434,0,l),
(788,742,l)
);
}
);
width = 720;
},
{
guides = (
{
angle = 251.38;
position = "{285, 234}";
}
);
layerId = "52CA2DEC-CCDD-4868-A7D2-69659C24EBA2";
shapes = (
{
closed = 1;
nodes = (
(596,742,l),
(290,102,l),
(160,742,l),
(72,742,l),
(222,0,l),
(329,0,l),
(684,742,l)
);
}
);
width = 624;
},
{
layerId = "FE16441F-5029-4BC1-8299-959132AD36E4";
shapes = (
{
closed = 1;
nodes = (
(595,742,l),
(259,42,l),
(117,742,l),
(74,742,l),
(225,0,l),
(281,0,l),
(636,742,l)
);
}
);
width = 580;
}
);
leftKerningGroup = V2;
rightKerningGroup = V;
unicode = 86;
}
{
glyphname = W;
layers = (
{
anchors = (
{
name = top;
position = "{571, 742}";
}
);
guides = (
{
angle = 286.06;
position = "{276, 742}";
},
{
angle = 74.383;
position = "{502, 742}";
}
);
layerId = "4085F1A9-CD4F-447E-BF4E-06E18D46F28C";
shapes = (
{
closed = 1;
nodes = (
(867,742,l),
(700,344,l),
(641,742,l),
(502,742,l),
(335,344,l),
(276,742,l),
(83,742,l),
(203,0,l),
(350,0,l),
(524,403,l),
(585,0,l),
(734,0,l),
(1060,742,l)
);
}
);
width = 1007;
},
{
anchors = (
{
name = top;
position = "{541, 742}";
}
);
guides = (
{
angle = 286.06;
position = "{276, 742}";
},
{
angle = 74.383;
position = "{502, 742}";
}
);
layerId = "60E9CA7D-7455-4953-BBCB-0950C5D70619";
shapes = (
{
closed = 1;
nodes = (
(899.031,742,l),
(653.762,142,l),
(572.65,742,l),
(504.091,742,l),
(257.856,142,l),
(178.675,742,l),
(90.803,742,l),
(196.056,0,l),
(275.237,0,l),
(515.678,583,l),
(595.825,0,l),
(677.903,0,l),
(986.903,742,l)
);
}
);
width = 946;
},
{
anchors = (
{
name = top;
position = "{528, 742}";
}
);
guides = (
{
position = "{0, 125}";
showMeasurement = 1;
}
);
layerId = "0B47C4A7-9101-48D0-A00F-70D9DFD57C4A";
shapes = (
{
closed = 1;
nodes = (
(912.05,742,l),
(632.75,50,l),
(541.55,742,l),
(503.55,742,l),
(224.25,50,l),
(135.9,742,l),
(93.15,742,l),
(191.95,0,l),
(242.3,0,l),
(511.15,665,l),
(599.5,0,l),
(652.7,0,l),
(953.85,742,l)
);
}
);
width = 918;
}
);
leftKerningGroup = V2;
rightKerningGroup = V;
unicode = 87;
}
{
glyphname = X;
layers = (
{
layerId = "7AE3EAE7-5E60-4D4F-B196-8455048EE550";
shapes = (
{
closed = 1;
nodes = (
(495,403,l),
(765,742,l),
(555,742,l),
(413,541,l),
(327,742,l),
(79,742,l),
(263,374,l),
(-31,0,l),
(182,0,l),
(347,233,l),
(451,0,l),
(701,0,l)
);
}
);
width = 742;
},
{
layerId = "98A2E2AB-A518-47A0-BAB2-E4787431E873";
shapes = (
{
closed = 1;
nodes = (
(381,388,l),
(658,742,l),
(558,742,l),
(341,456,l),
(201,742,l),
(89,742,l),
(273,378,l),
(-20,0,l),
(80,0,l),
(314,307,l),
(467,0,l),
(579,0,l)
);
}
);
width = 628;
},
{
guides = (
{
angle = 90;
position = "{116, 0}";
},
{
angle = 90;
position = "{584, 0}";
},
{
position = "{0, 716}";
showMeasurement = 1;
},
{
position = "{0, 32}";
showMeasurement = 1;
},
{
position = "{0, 454}";
showMeasurement = 1;
},
{
position = "{0, 290}";
showMeasurement = 1;
},
{
angle = 237.939;
position = "{331, 374}";
},
{
angle = 122.009;
position = "{385, 374}";
},
{
angle = 57.919;
position = "{372, 370}";
},
{
angle = 122.063;
position = "{338, 370}";
}
);
layerId = "0D84DF16-5466-4685-B199-9D5CA7B8601A";
shapes = (
{
closed = 1;
nodes = (
(329,381,l),
(609,742,l),
(560,742,l),
(308,418,l),
(144,742,l),
(94,742,l),
(278,380,l),
(-15,0,l),
(33,0,l),
(299,341,l),
(474,0,l),
(523,0,l)
);
}
);
width = 576;
}
);
unicode = 88;
}
{
glyphname = Y;
layers = (
{
anchors = (
{
name = top;
position = "{450, 742}";
}
);
guides = (
{
angle = 58.823;
position = "{570, 742}";
}
);
layerId = "4085F1A9-CD4F-447E-BF4E-06E18D46F28C";
shapes = (
{
closed = 1;
nodes = (
(570,742,l),
(387,478,l),
(277,742,l),
(62,742,l),
(263,309,l),
(220,0,l),
(420,0,l),
(463,309,l),
(787,742,l)
);
}
);
width = 714;
},
{
anchors = (
{
name = top;
position = "{363, 742}";
}
);
guides = (
{
angle = 58.823;
position = "{570, 742}";
}
);
layerId = "60E9CA7D-7455-4953-BBCB-0950C5D70619";
shapes = (
{
closed = 1;
nodes = (
(548.509,742,l),
(310.,396,l),
(163.225,742,l),
(70.525,742,l),
(256.891,317,l),
(214.403,0,l),
(301.309,0,l),
(343.797,316,l),
(643.141,742,l)
);
}
);
width = 584;
},
{
anchors = (
{
name = top;
position = "{324, 742}";
}
);
guides = (
{
angle = 241.15;
position = "{235, 319}";
},
{
angle = 299.172;
position = "{144, 503}";
},
{
angle = 55.677;
position = "{539, 742}";
}
);
layerId = "0B47C4A7-9101-48D0-A00F-70D9DFD57C4A";
shapes = (
{
closed = 1;
nodes = (
(538.7,742,l),
(276.5,358,l),
(113.1,742,l),
(74.15,742,l),
(253.7,320,l),
(210.95,0,l),
(248.95,0,l),
(291.7,319,l),
(580.5,742,l)
);
}
);
width = 525;
}
);
leftKerningGroup = Y2;
rightKerningGroup = Y;
unicode = 89;
}
{
glyphname = Z;
layers = (
{
layerId = "F426EF5A-234F-4D9D-8FA2-B6E01B62F842";
shapes = (
{
closed = 1;
nodes = (
(630,0,l),
(653,166,l),
(302,166,l),
(728,654,l),
(740,742,l),
(136,742,l),
(113,577,l),
(430,577,l),
(12,91,l),
(-1,0,l)
);
}
);
width = 697;
},
{
layerId = "25174B84-9FC9-4237-B6C0-AF6CE185AC75";
shapes = (
{
closed = 1;
nodes = (
(517.609,0,l),
(528.231,79,l),
(131.359,79,l),
(614.172,693,l),
(619.966,742,l),
(119.772,742,l),
(109.15,663,l),
(487.675,663,l),
(9.691,50,l),
(2.931,0,l)
);
}
);
width = 583;
},
{
layerId = "E845DC5E-3808-4662-B0C6-177943F39A70";
shapes = (
{
closed = 1;
nodes = (
(468.4,0,l),
(473.15,40,l),
(57.05,40,l),
(563.4,711,l),
(567.2,742,l),
(112.15,742,l),
(106.45,702,l),
(511.15,702,l),
(7.65,32,l),
(3.85,0,l)
);
}
);
width = 531;
}
);
leftKerningGroup = Z2;
rightKerningGroup = Z;
unicode = 90;
}
{
glyphname = bracketleft;
layers = (
{
layerId = "B872A948-CF4A-4CBB-8276-18DBE9F9CB6F";
shapes = (
{
closed = 1;
nodes = (
(261,-165,l),
(277,-58,l),
(161,-58,l),
(258,635,l),
(374,635,l),
(389,742,l),
(114,742,l),
(-13,-165,l)
);
}
);
width = 346;
},
{
layerId = "CDE4D1C1-62F2-4871-801D-D4385200C2D4";
shapes = (
{
closed = 1;
nodes = (
(210,-165,l),
(219,-106,l),
(114,-106,l),
(222,683,l),
(326,683,l),
(334,742,l),
(152,742,l),
(30,-165,l)
);
}
);
width = 289;
},
{
layerId = "205523CA-C9A0-433B-A23D-3E9A8307D858";
shapes = (
{
closed = 1;
nodes = (
(187,-165,l),
(192,-128,l),
(93,-128,l),
(206,705,l),
(304,705,l),
(309,742,l),
(169,742,l),
(49,-165,l)
);
}
);
width = 263;
}
);
unicode = 91;
}
{
glyphname = backslash;
layers = (
{
layerId = "B872A948-CF4A-4CBB-8276-18DBE9F9CB6F";
shapes = (
{
closed = 1;
nodes = (
(343,0,l),
(184,742,l),
(59,742,l),
(218,0,l)
);
}
);
width = 384;
},
{
layerId = "CDE4D1C1-62F2-4871-801D-D4385200C2D4";
shapes = (
{
closed = 1;
nodes = (
(282,-41,l),
(139,742,l),
(72,742,l),
(215,-41,l)
);
}
);
width = 335;
},
{
guides = (
{
position = "{0, 657}";
showMeasurement = 1;
}
);
layerId = "205523CA-C9A0-433B-A23D-3E9A8307D858";
shapes = (
{
closed = 1;
nodes = (
(254,-60,l),
(118,742,l),
(78,742,l),
(214,-60,l)
);
}
);
width = 312;
}
);
unicode = 92;
}
{
glyphname = bracketright;
layers = (
{
layerId = "F59E5572-F07E-4A84-84E1-CE36D2AD8363";
shapes = (
{
closed = 1;
nodes = (
(231,-165,l),
(358,742,l),
(84,742,l),
(68,635,l),
(184,635,l),
(87,-58,l),
(-29,-58,l),
(-44,-165,l)
);
}
);
width = 346;
},
{
layerId = "84D84D83-1F61-4310-B099-D476523EDF4B";
shapes = (
{
closed = 1;
nodes = (
(143,-165,l),
(265,742,l),
(85,742,l),
(76,683,l),
(181,683,l),
(73,-106,l),
(-31,-106,l),
(-39,-165,l)
);
}
);
width = 302;
},
{
layerId = "5E3EA0A1-240F-463B-ACAB-4136DB7510A5";
shapes = (
{
closed = 1;
nodes = (
(103,-165,l),
(222,742,l),
(85,742,l),
(80,705,l),
(179,705,l),
(66,-128,l),
(-32,-128,l),
(-37,-165,l)
);
}
);
width = 282;
}
);
leftKerningGroup = question;
unicode = 93;
}
{
glyphname = asciicircum;
layers = (
{
layerId = "53698F14-3379-49FD-849B-EB3564F78825";
shapes = (
{
closed = 1;
nodes = (
(440,120,l),
(328,500,ls),
(315,548,o),
(248,555,o),
(221,509,cs),
(-3,120,l),
(133,120,l),
(259,346,l),
(321,120,l)
);
}
);
width = 488;
},
{
layerId = "3A2F0B01-8BAD-43D2-BFC9-C9D3CCE0022F";
shapes = (
{
closed = 1;
nodes = (
(400,132,l),
(302,502,l),
(290,551,o),
(249,552,o),
(225,506,cs),
(25,133,l),
(100,133,l),
(257,433,l),
(331,132,l)
);
}
);
width = 463;
},
{
layerId = "4B62E599-A761-4CCD-BB2B-30B6A69879C7";
shapes = (
{
closed = 1;
nodes = (
(382,137,l),
(290,503,ls),
(278,553,o),
(250,551,o),
(227,505,cs),
(38,139,l),
(85,139,l),
(256,473,l),
(336,137,l)
);
}
);
width = 452;
}
);
unicode = 94;
}
{
glyphname = underscore;
layers = (
{
layerId = "7AE3EAE7-5E60-4D4F-B196-8455048EE550";
shapes = (
{
closed = 1;
nodes = (
(1,-20,l),
(-18,-160,l),
(463,-160,l),
(483,-20,l)
);
}
);
width = 572;
},
{
layerId = "98A2E2AB-A518-47A0-BAB2-E4787431E873";
shapes = (
{
closed = 1;
nodes = (
(17,-49,l),
(7,-120,l),
(394,-119,l),
(403,-48,l)
);
}
);
width = 506;
},
{
layerId = "0D84DF16-5466-4685-B199-9D5CA7B8601A";
shapes = (
{
closed = 1;
nodes = (
(24,-62,l),
(19,-102,l),
(362,-101,l),
(367,-61,l)
);
}
);
width = 476;
}
);
leftKerningGroup = comma2;
rightKerningGroup = comma;
unicode = 95;
}
{
glyphname = a;
layers = (
{
anchors = (
{
name = ogonek;
position = "{427, 13}";
},
{
name = top;
position = "{310, 530}";
}
);
guides = (
{
angle = 90;
position = "{136, 0}";
}
);
layerId = "DE030A49-AE7C-4104-8137-1F8DB9F65EE6";
name = "#instance";
shapes = (
{
closed = 1;
nodes = (
(251.097,-10,o),
(315.794,20,o),
(367.937,82,c),
(363.109,0,l),
(437.462,0,l),
(487.675,370,ls),
(501.194,474,o),
(445.187,540,o),
(314.828,540,cs),
(209.575,540,o),
(127.497,486,o),
(81.147,407,c),
(148.741,389,l),
(193.159,449,o),
(245.303,477,o),
(301.309,477,cs),
(373.731,477,o),
(412.356,433,o),
(402.7,363,cs),
(397.872,325,l),
(303.241,318,l),
(126.531,308,o),
(46.384,260,o),
(30.934,143,cs),
(17.416,46,o),
(77.284,-10,o),
(177.709,-10,cs)
);
},
{
closed = 1;
nodes = (
(147.775,56,o),
(107.219,91,o),
(115.909,151,cs),
(126.531,233,o),
(188.331,256,o),
(310.966,265,cs),
(390.147,270,l),
(377.594,174,ls),
(368.903,114,o),
(281.997,56,o),
(212.472,56,cs)
);
}
);
width = 541;
},
{
anchors = (
{
name = ogonek;
position = "{470, 10}";
},
{
name = top;
position = "{331, 530}";
}
);
guides = (
{
angle = 90;
position = "{136, 0}";
}
);
layerId = "90BAD496-908C-46A8-8D40-D80AAE603430";
shapes = (
{
closed = 1;
nodes = (
(237,-10,o),
(298,21,o),
(328,82,c),
(332,0,l),
(497,0,l),
(549,375,ls),
(563,473,o),
(518,540,o),
(333,540,cs),
(197,540,o),
(95,476,o),
(56,371,c),
(213,359,l),
(239,408,o),
(277,421,o),
(307,421,cs),
(347,421,o),
(363,400,o),
(358,363,cs),
(355,341,l),
(314,341,ls),
(121,341,o),
(22,274,o),
(6,159,cs),
(-9,49,o),
(65,-10,o),
(165,-10,cs)
);
},
{
closed = 1;
nodes = (
(219,116,o),
(190,139,o),
(196,179,cs),
(204,236,o),
(277,247,o),
(309,247,cs),
(341,247,l),
(332,179,l),
(326,146,o),
(292,116,o),
(253,116,cs)
);
}
);
width = 573;
},
{
anchors = (
{
name = ogonek;
position = "{427, 13}";
},
{
name = top;
position = "{310, 530}";
}
);
guides = (
{
angle = 90;
position = "{136, 0}";
}
);
layerId = "E1183961-CF0C-4334-8CD2-07F6368CCCB1";
shapes = (
{
closed = 1;
nodes = (
(251.097,-10,o),
(315.794,20,o),
(367.937,82,c),
(363.109,0,l),
(437.462,0,l),
(487.675,370,ls),
(501.194,474,o),
(445.187,540,o),
(314.828,540,cs),
(209.575,540,o),
(127.497,486,o),
(81.147,407,c),
(148.741,389,l),
(193.159,449,o),
(245.303,477,o),
(301.309,477,cs),
(373.731,477,o),
(412.356,433,o),
(402.7,363,cs),
(397.872,325,l),
(303.241,318,ls),
(126.531,305,o),
(46.384,260,o),
(30.934,143,cs),
(17.416,46,o),
(77.284,-10,o),
(177.709,-10,cs)
);
},
{
closed = 1;
nodes = (
(147.775,56,o),
(107.219,91,o),
(115.909,151,cs),
(126.531,233,o),
(188.331,256,o),
(310.966,265,cs),
(390.147,270,l),
(377.594,174,ls),
(368.903,114,o),
(281.997,56,o),
(212.472,56,cs)
);
}
);
width = 541;
},
{
anchors = (
{
name = ogonek;
position = "{408, 14}";
},
{
name = top;
position = "{300, 530}";
}
);
hints = (
{
horizontal = 1;
place = (3937,0);
type = Stem;
}
);
layerId = "24DA169B-0D71-476F-B940-6C54E096B564";
shapes = (
{
closed = 1;
nodes = (
(256.55,-10,o),
(322.1,20,o),
(384.8,82,c),
(376.25,0,l),
(411.4,0,l),
(459.85,367,ls),
(474.1,475,o),
(413.3,540,o),
(305.95,540,cs),
(213.8,540,o),
(141.6,490,o),
(91.25,424,c),
(120.7,403,l),
(172.95,468,o),
(230.9,502,o),
(298.35,502,cs),
(383.85,502,o),
(433.25,448,o),
(421.85,363,cs),
(415.2,318,l),
(298.35,308,ls),
(128.3,293,o),
(56.1,254,o),
(40.9,135,cs),
(28.55,45,o),
(82.7,-10,o),
(182.45,-10,cs)
);
},
{
closed = 1;
nodes = (
(116.9,28,o),
(71.3,69,o),
(80.8,138,cs),
(93.15,231,o),
(149.2,260,o),
(311.65,273,cs),
(410.45,281,l),
(396.2,171,ls),
(386.7,99,o),
(277.45,28,o),
(193.85,28,cs)
);
}
);
width = 526;
}
);
leftKerningGroup = a2;
rightKerningGroup = a;
unicode = 97;
}
{
glyphname = b;
leftMetricsKey = h;
layers = (
{
layerId = "19535A56-B4B7-45FA-8766-5D6358701C99";
shapes = (
{
closed = 1;
nodes = (
(493,-10,o),
(590,99,o),
(614,269,cs),
(637,436,o),
(576,540,o),
(446,540,cs),
(394,540,o),
(332,515,o),
(287,450,c),
(331,762,l),
(131,762,l),
(24,0,l),
(165,0,l),
(208,94,l),
(229,36,o),
(281,-10,o),
(347,-10,cs)
);
},
{
closed = 1;
nodes = (
(267,119,o),
(246,156,o),
(258,245,cs),
(265,291,ls),
(278,383,o),
(310,410,o),
(355,410,cs),
(396,410,o),
(428,387,o),
(412,271,cs),
(395,154,o),
(358,119,o),
(311,119,cs)
);
}
);
width = 632;
},
{
layerId = "AEBEF15D-4BBA-4516-955A-7DB830DF0DA8";
shapes = (
{
closed = 1;
nodes = (
(434,-10,o),
(528,97,o),
(552,268,cs),
(573,422,o),
(523,540,o),
(383,540,cs),
(292,540,o),
(227,485,o),
(205,458,c),
(246,762,l),
(157,762,l),
(55,0,l),
(122,0,l),
(145,84,l),
(158,53,o),
(202,-10,o),
(294,-10,cs)
);
},
{
closed = 1;
nodes = (
(215,56,o),
(158,115,o),
(170,198,cs),
(194,376,l),
(228,438,o),
(284,473,o),
(346,473,cs),
(436,473,o),
(479,402,o),
(460,268,cs),
(440,119,o),
(367,56,o),
(284,56,cs)
);
}
);
width = 586;
},
{
layerId = "ABC3C110-A709-486E-B3D5-BEE5600AE028";
shapes = (
{
closed = 1;
nodes = (
(405,-10,o),
(499,96,o),
(522,267,cs),
(542,416,o),
(498,540,o),
(353,540,cs),
(244,540,o),
(178,472,o),
(166,461,c),
(206,762,l),
(168,762,l),
(67,0,l),
(101,0,l),
(115,80,l),
(124,60,o),
(164,-10,o),
(268,-10,cs)
);
},
{
closed = 1;
nodes = (
(190,28,o),
(117,96,o),
(128,177,cs),
(160,415,l),
(204,463,o),
(270,502,o),
(340,502,cs),
(452,502,o),
(500,409,o),
(481,267,cs),
(459,103,o),
(369,28,o),
(270,28,cs)
);
}
);
width = 563;
}
);
leftKerningGroup = b2;
rightKerningGroup = b;
unicode = 98;
}
{
glyphname = c;
leftMetricsKey = e;
layers = (
{
anchors = (
{
name = bottom;
position = "{255, 0}";
},
{
name = top;
position = "{330, 530}";
}
);
guides = (
{
angle = 359.442;
position = "{-765, 185}";
},
{
position = "{0, 136}";
},
{
angle = 3.769;
position = "{348, 340}";
}
);
layerId = "1B15BF9D-2282-46A0-8570-EB8A3FC863D6";
shapes = (
{
closed = 1;
nodes = (
(178,540,o),
(39,427,o),
(16,263,cs),
(-7,100,o),
(102,-10,o),
(254,-10,cs),
(399,-10,o),
(504,91,o),
(522,184,c),
(358,205,l),
(348,174,o),
(328,117,o),
(277,117,cs),
(226,117,o),
(197,177,o),
(209,265,cs),
(221,350,o),
(264,413,o),
(315,413,cs),
(367,413,o),
(370,352,o),
(371,314,c),
(546,335,l),
(557,434,o),
(482,540,o),
(332,540,cs)
);
}
);
width = 550;
},
{
anchors = (
{
name = bottom;
position = "{243, 0}";
},
{
name = top;
position = "{314, 530}";
}
);
guides = (
{
angle = 359.442;
position = "{-765, 185}";
},
{
position = "{0, 136}";
},
{
angle = 3.769;
position = "{348, 340}";
}
);
layerId = "384628A1-4A8A-4486-AB82-D1325BD310F0";
shapes = (
{
closed = 1;
nodes = (
(174.812,540,o),
(64.731,426,o),
(42.522,263,cs),
(20.312,101,o),
(99.494,-10,o),
(240.475,-10,cs),
(341.866,-10,o),
(420.081,50,o),
(465.466,135,c),
(395.941,157,l),
(355.384,97,o),
(317.725,56,o),
(253.994,56,cs),
(159.362,56,o),
(111.081,139,o),
(128.462,265,cs),
(144.878,389,o),
(215.369,474,o),
(310.,474,cs),
(366.972,474,o),
(388.216,437,o),
(419.116,376,c),
(496.366,398,l),
(475.122,477,o),
(420.081,540,o),
(315.794,540,cs)
);
}
);
width = 524;
},
{
anchors = (
{
name = bottom;
position = "{237, 0}";
},
{
name = top;
position = "{305, 530}";
}
);
layerId = "2FBE8594-5CD7-4E1A-8146-362CAE16723C";
shapes = (
{
closed = 1;
nodes = (
(171.95,540,o),
(74.1,426,o),
(52.25,263,cs),
(30.4,101,o),
(97.85,-10,o),
(233.7,-10,cs),
(316.35,-10,o),
(381.9,31,o),
(439.85,113,c),
(410.4,135,l),
(357.2,62,o),
(311.6,28,o),
(243.2,28,cs),
(129.2,28,o),
(73.15,122,o),
(92.15,265,cs),
(111.15,406,o),
(193.8,502,o),
(306.85,502,cs),
(365.75,502,o),
(394.25,476,o),
(437.95,404,c),
(474.05,426,l),
(437.95,496,o),
(392.35,540,o),
(307.8,540,cs)
);
}
);
width = 511;
}
);
leftKerningGroup = c;
rightKerningGroup = b;
unicode = 99;
}
{
glyphname = d;
layers = (
{
anchors = (
{
name = bottom;
position = "{264, 0}";
},
{
name = center;
position = "{301, 265}";
},
{
name = topright;
position = "{624, 530}";
}
);
layerId = "4085F1A9-CD4F-447E-BF4E-06E18D46F28C";
shapes = (
{
closed = 1;
nodes = (
(295,-10,o),
(351,41,o),
(382,90,c),
(395,0,l),
(536,0,l),
(643,762,l),
(443,762,l),
(399,450,l),
(377,524,o),
(318,540,o),
(266,540,cs),
(136,540,o),
(45,436,o),
(22,269,cs),
(-2,99,o),
(63,-10,o),
(209,-10,cs)
);
},
{
closed = 1;
nodes = (
(234,119,o),
(207,154,o),
(224,271,cs),
(240,387,o),
(278,410,o),
(319,410,cs),
(364,410,o),
(390,383,o),
(377,291,cs),
(370,245,ls),
(358,156,o),
(325,119,o),
(281,119,cs)
);
}
);
width = 632;
},
{
anchors = (
{
name = bottom;
position = "{245, 0}";
},
{
name = center;
position = "{289, 265}";
},
{
name = topright;
position = "{638, 676}";
}
);
layerId = "60E9CA7D-7455-4953-BBCB-0950C5D70619";
shapes = (
{
closed = 1;
nodes = (
(312.897,-10,o),
(372.766,53,o),
(394.975,82,c),
(392.078,0,l),
(459.672,0,l),
(562.994,762,l),
(476.087,762,l),
(435.531,467,l),
(397.872,519,o),
(353.453,540,o),
(295.516,540,cs),
(158.397,540,o),
(65.697,428,o),
(43.487,259,cs),
(19.347,85,o),
(88.872,-10,o),
(218.266,-10,cs)
);
},
{
closed = 1;
nodes = (
(165.156,56,o),
(113.012,117,o),
(132.325,263,cs),
(150.672,404,o),
(217.3,473,o),
(308.069,473,cs),
(362.144,473,o),
(399.803,446,o),
(424.909,384,c),
(398.837,193,ls),
(389.181,124,o),
(324.484,56,o),
(247.234,56,cs)
);
}
);
width = 583;
},
{
anchors = (
{
name = bottom;
position = "{237, 0}";
},
{
name = center;
position = "{283, 265}";
},
{
name = topright;
position = "{644, 742}";
}
);
layerId = "0B47C4A7-9101-48D0-A00F-70D9DFD57C4A";
shapes = (
{
closed = 1;
nodes = (
(319.25,-10,o),
(381.,59,o),
(400.,79,c),
(389.55,0,l),
(425.65,0,l),
(527.3,762,l),
(489.3,762,l),
(450.35,475,l),
(406.65,517,o),
(367.7,540,o),
(306.9,540,cs),
(167.25,540,o),
(74.15,425,o),
(52.3,255,cs),
(28.55,78,o),
(99.8,-10,o),
(221.4,-10,cs)
);
},
{
closed = 1;
nodes = (
(134.95,28,o),
(71.3,100,o),
(92.2,259,cs),
(112.15,411,o),
(191.,502,o),
(302.15,502,cs),
(360.1,502,o),
(403.8,474,o),
(444.65,426,c),
(410.45,170,ls),
(401.9,110,o),
(323.05,28,o),
(231.85,28,cs)
);
}
);
width = 560;
}
);
leftKerningGroup = c;
rightKerningGroup = d;
unicode = 100;
}
{
glyphname = e;
layers = (
{
anchors = (
{
name = bottom;
position = "{237, 0}";
},
{
name = ogonek;
position = "{348, 21}";
},
{
name = top;
position = "{313, 530}";
}
);
layerId = "D3EE8B69-6DF3-4675-93B7-89734647BE71";
name = "#instance";
shapes = (
{
closed = 1;
nodes = (
(499,240,l),
(505,275,l),
(527,436,o),
(458,540,o),
(315,540,cs),
(167,540,o),
(64,428,o),
(40,260,c),
(17,90,o),
(107,-10,o),
(249,-10,cs),
(341,-10,o),
(423,32,o),
(471,118,c),
(401,139,l),
(369,88,o),
(325,56,o),
(258,56,cs),
(156,56,o),
(114,137,o),
(128,240,c)
);
},
{
closed = 1;
nodes = (
(138,307,l),
(149,392,o),
(204,477,o),
(305,477,cs),
(400,477,o),
(436,404,o),
(422,307,c)
);
}
);
width = 547;
},
{
anchors = (
{
name = bottom;
position = "{262, 0}";
},
{
name = ogonek;
position = "{394, 26}";
},
{
name = top;
position = "{333, 530}";
}
);
layerId = "F59E5572-F07E-4A84-84E1-CE36D2AD8363";
shapes = (
{
closed = 1;
nodes = (
(558,208,l),
(565,255,ls),
(587,412,o),
(508,540,o),
(334,540,cs),
(164,540,o),
(36,410,o),
(15,258,cs),
(-8,97,o),
(99,-10,o),
(265,-10,cs),
(382,-10,o),
(481,42,o),
(536,138,c),
(388,173,l),
(366,138,o),
(322,114,o),
(280,114,cs),
(232,114,o),
(196,145,o),
(206,208,c)
);
},
{
closed = 1;
nodes = (
(224,335,l),
(231,387,o),
(262,425,o),
(318,425,cs),
(374,425,o),
(395,387,o),
(388,335,c)
);
}
);
width = 585;
},
{
anchors = (
{
name = bottom;
position = "{237, 0}";
},
{
name = ogonek;
position = "{348, 21}";
},
{
name = top;
position = "{313, 530}";
}
);
layerId = "84D84D83-1F61-4310-B099-D476523EDF4B";
shapes = (
{
closed = 1;
nodes = (
(499,240,l),
(505,275,l),
(527,436,o),
(458,540,o),
(315,540,cs),
(167,540,o),
(64,428,o),
(40,260,cs),
(17,90,o),
(107,-10,o),
(249,-10,cs),
(341,-10,o),
(423,32,o),
(471,118,c),
(401,139,l),
(369,88,o),
(325,56,o),
(258,56,cs),
(156,56,o),
(114,137,o),
(128,240,c)
);
},
{
closed = 1;
nodes = (
(138,307,l),
(149,392,o),
(204,477,o),
(305,477,cs),
(400,477,o),
(436,404,o),
(422,307,c)
);
}
);
width = 547;
},
{
anchors = (
{
name = bottom;
position = "{225, 0}";
},
{
name = ogonek;
position = "{327, 18}";
},
{
name = top;
position = "{304, 530}";
}
);
guides = (
{
angle = 88.568;
position = "{276, 521}";
}
);
layerId = "5E3EA0A1-240F-463B-ACAB-4136DB7510A5";
shapes = (
{
closed = 1;
nodes = (
(472,254,l),
(477,284,l),
(499,447,o),
(435,540,o),
(306,540,cs),
(169,540,o),
(76,436,o),
(52,261,cs),
(29,87,o),
(110,-10,o),
(242,-10,cs),
(323,-10,o),
(396,28,o),
(442,109,c),
(407,123,l),
(370,65,o),
(326,30,o),
(248,30,cs),
(121,30,o),
(77,134,o),
(92,254,c)
);
},
{
closed = 1;
nodes = (
(99,294,l),
(111,394,o),
(177,500,o),
(299,500,cs),
(412,500,o),
(454,412,o),
(438,294,c)
);
}
);
width = 530;
}
);
leftKerningGroup = c;
rightKerningGroup = b;
unicode = 101;
}
{
glyphname = f;
layers = (
{
layerId = "DB5B66A7-D76D-4C07-A73F-AA2F655CEE53";
name = "#instance";
shapes = (
{
closed = 1;
nodes = (
(270.892,530,l),
(280.6,599,ls),
(287.396,646,o),
(302.929,667,o),
(343.704,667,cs),
(418.458,667,l),
(428.167,742,l),
(327.2,742,ls),
(241.767,742,o),
(192.254,695,o),
(181.575,611,cs),
(169.925,530,l),
(63.133,530,l),
(53.425,454,l),
(158.275,454,l),
(98.083,0,l),
(201.962,0,l),
(262.154,454,l),
(384.479,454,l),
(394.187,530,l)
);
}
);
width = 388;
},
{
layerId = "F877A2A6-2AE9-47A5-964B-6AC3A00E0840";
shapes = (
{
closed = 1;
nodes = (
(334,530,l),
(339,561,l),
(344,600,o),
(358,612,o),
(391,612,cs),
(452,612,l),
(469,742,l),
(327,742,ls),
(230,742,o),
(161,688,o),
(149,601,cs),
(139,530,l),
(53,530,l),
(34,395,l),
(120,395,l),
(65,0,l),
(265,0,l),
(320,395,l),
(416,395,l),
(435,530,l)
);
}
);
width = 417;
},
{
layerId = "47C38B4B-FB8A-4134-B3CD-D82C7CCC786A";
shapes = (
{
closed = 1;
nodes = (
(259.787,530,l),
(270.409,606,ls),
(277.169,654,o),
(292.619,677,o),
(335.106,677,cs),
(412.356,677,l),
(421.047,742,l),
(326.416,742,ls),
(243.372,742,o),
(197.022,696,o),
(186.4,613,cs),
(174.812,530,l),
(64.731,530,l),
(56.041,464,l),
(165.156,464,l),
(103.356,0,l),
(190.262,0,l),
(252.062,464,l),
(378.559,464,l),
(387.25,530,l)
);
}
);
width = 383;
},
{
layerId = "7B6169A8-D8AD-4E0B-B0BB-F8A93FFABE5A";
shapes = (
{
closed = 1;
nodes = (
(227.1,530,l),
(240.4,627,ls),
(247.05,678,o),
(263.2,707,o),
(310.7,707,cs),
(394.3,707,l),
(399.05,742,l),
(324.95,742,ls),
(248.95,742,o),
(211.9,700,o),
(201.45,618,cs),
(189.1,530,l),
(69.4,530,l),
(64.65,495,l),
(184.35,495,l),
(118.8,0,l),
(156.8,0,l),
(222.35,495,l),
(361.05,495,l),
(365.8,530,l)
);
}
);
width = 368;
}
);
unicode = 102;
}
{
glyphname = g;
layers = (
{
anchors = (
{
name = top;
position = "{353, 530}";
}
);
layerId = "F426EF5A-234F-4D9D-8FA2-B6E01B62F842";
shapes = (
{
closed = 1;
nodes = (
(456,-175,o),
(569,-99,o),
(583,3,cs),
(595,85,o),
(539,152,o),
(393,162,cs),
(349,165,o),
(307,167,o),
(289,168,cs),
(238,171,o),
(205,171,o),
(207,186,cs),
(208,191,o),
(212,193,o),
(222,195,c),
(240,193,o),
(276,192,o),
(293,192,cs),
(461,192,o),
(563,284,o),
(575,374,cs),
(578,393,o),
(576,398,o),
(573,419,c),
(667,428,l),
(688,569,l),
(506,500,l),
(470,520,o),
(429,538,o),
(353,538,cs),
(209,538,o),
(75,480,o),
(60,373,cs),
(52,317,o),
(80,249,o),
(152,215,c),
(67,204,o),
(23,164,o),
(17,122,cs),
(11,77,o),
(48,51,o),
(83,33,c),
(39,22,o),
(-30,5,o),
(-39,-53,cs),
(-48,-121,o),
(46,-175,o),
(255,-175,cs)
);
},
{
closed = 1;
nodes = (
(199,-71,o),
(154,-64,o),
(159,-30,cs),
(161,-12,o),
(178,11,o),
(233,8,cs),
(328,2,ls),
(369,-1,o),
(392,-15,o),
(388,-38,c),
(386,-57,o),
(371,-71,o),
(301,-71,cs)
);
},
{
closed = 1;
nodes = (
(275,296,o),
(254,326,o),
(259,366,cs),
(265,406,o),
(296,441,o),
(334,441,cs),
(372,441,o),
(393,406,o),
(387,366,cs),
(382,326,o),
(351,296,o),
(313,296,cs)
);
}
);
width = 652;
},
{
anchors = (
{
name = top;
position = "{320, 530}";
}
);
layerId = "25174B84-9FC9-4237-B6C0-AF6CE185AC75";
shapes = (
{
closed = 1;
nodes = (
(380.491,-175,o),
(478.019,-113,o),
(491.537,-12,cs),
(502.159,68,o),
(458.706,123,o),
(344.762,130,cs),
(298.412,133,o),
(260.753,135,o),
(234.681,137,cs),
(163.225,142,o),
(138.119,148,o),
(140.05,168,c),
(142.947,186,o),
(167.087,203,o),
(240.475,205,c),
(249.166,204,o),
(261.719,204,o),
(269.444,204,cs),
(413.322,204,o),
(491.537,281,o),
(504.091,371,c),
(506.987,401,o),
(503.125,420,o),
(492.503,447,c),
(589.066,462,l),
(600.653,547,l),
(463.534,491,l),
(426.841,529,o),
(371.8,538,o),
(322.553,538,cs),
(191.228,538,o),
(93.7,477,o),
(79.216,370,c),
(70.525,307,o),
(91.769,259,o),
(154.534,224,c),
(93.7,210,o),
(59.903,181,o),
(55.075,147,c),
(51.212,112,o),
(75.353,95,o),
(102.391,82,c),
(53.144,57,o),
(-5.759,29,o),
(-14.45,-35,cs),
(-26.037,-120,o),
(54.109,-175,o),
(219.231,-175,cs)
);
},
{
closed = 1;
nodes = (
(124.6,-116,o),
(64.731,-86,o),
(72.456,-25,cs),
(80.181,26,o),
(138.119,64,o),
(175.778,62,cs),
(320.622,52,ls),
(388.216,48,o),
(411.391,20,o),
(404.631,-25,cs),
(396.906,-87,o),
(344.762,-116,o),
(242.406,-116,cs)
);
},
{
closed = 1;
nodes = (
(197.987,262,o),
(156.466,301,o),
(166.122,369,cs),
(174.812,438,o),
(228.887,482,o),
(310.,482,cs),
(391.112,482,o),
(430.703,439,o),
(420.081,369,cs),
(411.391,301,o),
(362.144,262,o),
(279.1,262,cs)
);
}
);
width = 587;
},
{
anchors = (
{
name = top;
position = "{305, 530}";
}
);
guides = (
{
angle = 90;
position = "{334, 0}";
showMeasurement = 1;
}
);
layerId = "E845DC5E-3808-4662-B0C6-177943F39A70";
shapes = (
{
closed = 1;
nodes = (
(346.8,-175,o),
(438.,-119,o),
(451.3,-19,cs),
(461.75,60,o),
(423.75,110,o),
(323.05,116,cs),
(275.55,119,o),
(239.45,121,o),
(210.,123,cs),
(130.2,129,o),
(108.35,137,o),
(111.2,160,cs),
(114.05,183,o),
(147.3,207,o),
(248.,209,cs),
(251.8,209,o),
(254.65,209,o),
(258.45,209,cs),
(392.4,209,o),
(459.85,280,o),
(472.2,369,cs),
(476.95,406,o),
(470.3,426,o),
(459.85,460,c),
(553.9,478,l),
(561.5,537,l),
(444.65,487,l),
(405.7,528,o),
(362.95,538,o),
(308.8,538,cs),
(183.4,538,o),
(100.75,475,o),
(87.45,369,cs),
(77.95,303,o),
(96.95,264,o),
(154.9,228,c),
(104.55,212,o),
(75.1,188,o),
(71.3,159,cs),
(67.5,127,o),
(86.5,116,o),
(110.25,104,c),
(58.95,77,o),
(3.85,38,o),
(-4.7,-27,cs),
(-17.05,-120,o),
(57.05,-175,o),
(203.35,-175,cs)
);
},
{
closed = 1;
nodes = (
(92.2,-137,o),
(25.7,-96,o),
(35.2,-23,cs),
(44.7,43,o),
(120.7,88,o),
(151.1,86,cs),
(316.4,75,ls),
(396.2,70,o),
(419.,36,o),
(411.4,-19,cs),
(400.95,-101,o),
(332.55,-137,o),
(216.65,-137,cs)
);
},
{
closed = 1;
nodes = (
(164.4,247,o),
(114.05,290,o),
(125.45,371,cs),
(135.9,453,o),
(199.55,500,o),
(298.35,500,cs),
(399.05,500,o),
(445.6,454,o),
(434.2,371,cs),
(422.8,289,o),
(366.75,247,o),
(264.15,247,cs)
);
}
);
width = 558;
}
);
leftKerningGroup = g2;
rightKerningGroup = g;
unicode = 103;
}
{
glyphname = h;
layers = (
{
layerId = "F59E5572-F07E-4A84-84E1-CE36D2AD8363";
shapes = (
{
closed = 1;
nodes = (
(224,0,l),
(273,349,l),
(297,383,o),
(323,399,o),
(354,399,cs),
(386,399,o),
(403,381,o),
(399,351,cs),
(350,0,l),
(550,0,l),
(602,375,ls),
(617,481,o),
(569,540,o),
(470,540,cs),
(413,540,o),
(336,511,o),
(280,425,c),
(328,762,l),
(131,762,l),
(24,0,l)
);
}
);
width = 636;
},
{
layerId = "84D84D83-1F61-4310-B099-D476523EDF4B";
shapes = (
{
closed = 1;
nodes = (
(140.05,0,l),
(193.159,391,l),
(258.822,444,o),
(301.309,470,o),
(357.316,470,cs),
(424.909,470,o),
(450.016,432,o),
(441.325,369,cs),
(391.112,0,l),
(478.019,0,l),
(530.162,387,ls),
(542.716,480,o),
(498.297,540,o),
(396.906,540,cs),
(329.312,540,o),
(271.375,510,o),
(197.022,443,c),
(240.475,762,l),
(156.466,762,l),
(53.144,0,l)
);
}
);
width = 588;
},
{
layerId = "5E3EA0A1-240F-463B-ACAB-4136DB7510A5";
shapes = (
{
closed = 1;
nodes = (
(103.6,0,l),
(157.75,410,l),
(242.3,471,o),
(290.75,502,o),
(358.2,502,cs),
(440.85,502,o),
(469.35,455,o),
(458.9,377,cs),
(408.55,0,l),
(446.55,0,l),
(498.8,393,ls),
(510.2,480,o),
(466.5,540,o),
(364.85,540,cs),
(292.65,540,o),
(243.25,509,o),
(160.6,451,c),
(202.4,762,l),
(167.25,762,l),
(65.6,0,l)
);
}
);
width = 566;
}
);
leftKerningGroup = b2;
rightKerningGroup = a;
unicode = 104;
}
{
glyphname = i;
layers = (
{
layerId = "532EAD78-E3A3-458D-8D5D-76BDDA16C674";
name = "#instance";
shapes = (
{
closed = 1;
nodes = (
(126.531,530,l),
(55.075,0,l),
(141.981,0,l),
(213.437,530,l)
);
},
{
closed = 1;
nodes = (
(154.534,762,l),
(138.119,642,l),
(231.784,642,l),
(248.2,762,l)
);
}
);
width = 266;
},
{
layerId = "7AE3EAE7-5E60-4D4F-B196-8455048EE550";
shapes = (
{
closed = 1;
nodes = (
(91,530,l),
(17,0,l),
(217,0,l),
(291,530,l)
);
},
{
closed = 1;
nodes = (
(124,762,l),
(100,594,l),
(300,594,l),
(324,762,l)
);
}
);
width = 308;
},
{
layerId = "98A2E2AB-A518-47A0-BAB2-E4787431E873";
shapes = (
{
closed = 1;
nodes = (
(126.531,530,l),
(55.075,0,l),
(141.981,0,l),
(213.437,530,l)
);
},
{
closed = 1;
nodes = (
(154.534,762,l),
(138.119,642,l),
(231.784,642,l),
(248.2,762,l)
);
}
);
width = 266;
},
{
layerId = "0D84DF16-5466-4685-B199-9D5CA7B8601A";
shapes = (
{
closed = 1;
nodes = (
(140.65,530,l),
(70.35,0,l),
(108.35,0,l),
(178.65,530,l)
);
},
{
closed = 1;
nodes = (
(167.25,762,l),
(153.95,664,l),
(201.45,664,l),
(214.75,762,l)
);
}
);
width = 247;
}
);
leftKerningGroup = b2;
rightKerningGroup = d;
unicode = 105;
}
{
glyphname = j;
layers = (
{
layerId = "DB5B66A7-D76D-4C07-A73F-AA2F655CEE53";
name = "#instance";
shapes = (
{
closed = 1;
nodes = (
(219,530,l),
(115,530,l),
(40,-15,ls),
(34,-61,o),
(15,-80,o),
(-31,-84,c),
(-80,-86,l),
(-89,-158,l),
(-89,-158,o),
(-80,-170,o),
(-26,-170,cs),
(84,-170,o),
(130,-121,o),
(145,-18,cs)
);
},
{
closed = 1;
nodes = (
(143,762,l),
(125,635,l),
(236,635,l),
(254,762,l)
);
}
);
width = 266;
},
{
layerId = "F877A2A6-2AE9-47A5-964B-6AC3A00E0840";
shapes = (
{
closed = 1;
nodes = (
(272,530,l),
(72,530,l),
(2,29,ls),
(-1,7,o),
(-14,-6,o),
(-53,-14,c),
(-84,-19,l),
(-102,-153,l),
(-102,-153,o),
(-89,-170,o),
(-36,-170,cs),
(106,-170,o),
(183,-103,o),
(202,29,cs)
);
},
{
closed = 1;
nodes = (
(105,762,l),
(81,594,l),
(281,594,l),
(305,762,l)
);
}
);
width = 287;
},
{
layerId = "47C38B4B-FB8A-4134-B3CD-D82C7CCC786A";
shapes = (
{
closed = 1;
nodes = (
(210,530,l),
(122,530,l),
(47,-23,ls),
(40,-73,o),
(20,-93,o),
(-27,-96,c),
(-79,-98,l),
(-87,-159,l),
(-87,-159,o),
(-79,-170,o),
(-24,-170,cs),
(80,-170,o),
(121,-124,o),
(135,-26,c)
);
},
{
closed = 1;
nodes = (
(150,762,l),
(133,642,l),
(228,642,l),
(245,762,l)
);
}
);
width = 262;
},
{
layerId = "7B6169A8-D8AD-4E0B-B0BB-F8A93FFABE5A";
shapes = (
{
closed = 1;
nodes = (
(182,530,l),
(144,530,l),
(67,-46,ls),
(58,-110,o),
(35,-132,o),
(-15,-133,cs),
(-76,-134,l),
(-80,-161,l),
(-80,-161,o),
(-75,-170,o),
(-19,-170,cs),
(68,-170,o),
(93,-133,o),
(105,-51,cs)
);
},
{
closed = 1;
nodes = (
(170,762,l),
(157,664,l),
(204,664,l),
(218,762,l)
);
}
);
width = 250;
}
);
leftKerningGroup = j;
rightKerningGroup = d;
unicode = 106;
}
{
glyphname = k;
leftMetricsKey = h;
layers = (
{
anchors = (
{
name = bottom;
position = "{284, 0}";
}
);
guides = (
{
angle = 296.047;
position = "{503, 156}";
},
{
angle = 44.226;
position = "{449, 530}";
}
);
layerId = "4A771BA9-DE6D-4DFF-875A-35CEAA78AE27";
shapes = (
{
closed = 1;
nodes = (
(427,311,l),
(652,530,l),
(449,530,l),
(277,368,l),
(331,762,l),
(131,762,l),
(24,0,l),
(224,0,l),
(245,150,l),
(290,195,l),
(385,0,l),
(579,0,l)
);
}
);
width = 620;
},
{
anchors = (
{
name = bottom;
position = "{253, 0}";
}
);
guides = (
{
angle = 296.047;
position = "{503, 156}";
},
{
angle = 44.226;
position = "{449, 530}";
}
);
layerId = "063EDB9A-26EE-473F-A1FA-D59C439A67CE";
shapes = (
{
closed = 1;
nodes = (
(346.694,329,l),
(557.2,530,l),
(455.809,530,l),
(175.778,268,l),
(243.372,762,l),
(156.466,762,l),
(53.144,0,l),
(140.05,0,l),
(161.294,158,l),
(281.997,272,l),
(408.494,0,l),
(499.262,0,l)
);
}
);
width = 562;
},
{
anchors = (
{
name = bottom;
position = "{239, 0}";
}
);
guides = (
{
angle = 120.567;
position = "{268, 152}";
},
{
angle = 223.052;
position = "{516, 530}";
},
{
angle = 294.545;
position = "{418, 0}";
}
);
layerId = "A1D8A8A0-7317-4958-838D-B74999429465";
shapes = (
{
closed = 1;
nodes = (
(310.7,337,l),
(515.9,530,l),
(457.95,530,l),
(132.1,223,l),
(205.25,762,l),
(167.25,762,l),
(65.6,0,l),
(103.6,0,l),
(124.5,162,l),
(277.45,307,l),
(418.05,0,l),
(464.6,0,l)
);
}
);
width = 536;
}
);
leftKerningGroup = b2;
rightKerningGroup = k;
unicode = 107;
}
{
glyphname = l;
layers = (
{
layerId = "D3EE8B69-6DF3-4675-93B7-89734647BE71";
name = "#instance";
shapes = (
{
closed = 1;
nodes = (
(143,0,l),
(246,762,l),
(158,762,l),
(54,0,l)
);
}
);
width = 267;
},
{
layerId = "F59E5572-F07E-4A84-84E1-CE36D2AD8363";
shapes = (
{
closed = 1;
nodes = (
(219,0,l),
(326,762,l),
(126,762,l),
(19,0,l)
);
}
);
width = 310;
},
{
layerId = "84D84D83-1F61-4310-B099-D476523EDF4B";
shapes = (
{
closed = 1;
nodes = (
(143,0,l),
(246,762,l),
(158,762,l),
(54,0,l)
);
}
);
width = 267;
},
{
layerId = "5E3EA0A1-240F-463B-ACAB-4136DB7510A5";
shapes = (
{
closed = 1;
nodes = (
(108,0,l),
(210,762,l),
(172,762,l),
(70,0,l)
);
}
);
width = 247;
}
);
leftKerningGroup = b2;
unicode = 108;
}
{
glyphname = m;
leftMetricsKey = n;
rightMetricsKey = n;
layers = (
{
guides = (
{
angle = 90;
position = "{233, 0}";
showMeasurement = 1;
}
);
layerId = "1B15BF9D-2282-46A0-8570-EB8A3FC863D6";
shapes = (
{
closed = 1;
nodes = (
(219,0,l),
(268,350,ls),
(272,380,o),
(308,399,o),
(338,399,cs),
(368,399,o),
(398,380,o),
(394,350,cs),
(345,0,l),
(544,0,l),
(588,318,l),
(590,327,o),
(591,336,o),
(593,350,cs),
(597,380,o),
(634,399,o),
(664,399,cs),
(694,399,o),
(723,380,o),
(719,350,cs),
(670,0,l),
(870,0,l),
(922,373,ls),
(937,480,o),
(880,540,o),
(792,540,cs),
(738,540,o),
(660,521,o),
(593,418,c),
(586,487,o),
(551,541,o),
(464,541,cs),
(411,541,o),
(329,521,o),
(276,427,c),
(290,530,l),
(93,530,l),
(19,0,l)
);
}
);
width = 956;
},
{
guides = (
{
angle = 90;
position = "{233, 0}";
showMeasurement = 1;
}
);
layerId = "384628A1-4A8A-4486-AB82-D1325BD310F0";
shapes = (
{
closed = 1;
nodes = (
(140,0,l),
(192,391,l),
(249,443,o),
(292,470,o),
(346,470,cs),
(407,470,o),
(434,432,o),
(426,369,cs),
(376,0,l),
(464,0,l),
(514,370,ls),
(516,382,o),
(520,389,o),
(529,400,c),
(559,432,o),
(613,470,o),
(670,470,cs),
(732,470,o),
(758,432,o),
(750,369,cs),
(700,0,l),
(789,0,l),
(841,387,ls),
(853,480,o),
(807,540,o),
(714,540,cs),
(657,540,o),
(608,522,o),
(515,439,c),
(506,499,o),
(466,540,o),
(389,540,cs),
(326,540,o),
(267,513,o),
(197,444,c),
(208,530,l),
(123,530,l),
(51,0,l)
);
}
);
width = 898;
},
{
guides = (
{
position = "{0, 454}";
}
);
layerId = "2FBE8594-5CD7-4E1A-8146-362CAE16723C";
shapes = (
{
closed = 1;
nodes = (
(104,0,l),
(158,410,l),
(239,471,o),
(285,502,o),
(349,502,cs),
(425,502,o),
(450,455,o),
(440,377,cs),
(390,0,l),
(428,0,l),
(480,393,ls),
(482,407,o),
(487,413,o),
(500,423,cs),
(542,455,o),
(603,502,o),
(673,502,cs),
(749,502,o),
(774,455,o),
(764,377,cs),
(714,0,l),
(752,0,l),
(804,393,ls),
(815,480,o),
(774,540,o),
(679,540,cs),
(620,540,o),
(584,522,o),
(480,448,c),
(470,504,o),
(427,540,o),
(355,540,cs),
(287,540,o),
(239,509,o),
(161,451,c),
(171,530,l),
(136,530,l),
(66,0,l)
);
}
);
width = 871;
}
);
leftKerningGroup = b2;
rightKerningGroup = a;
unicode = 109;
}
{
glyphname = n;
layers = (
{
anchors = (
{
name = bottom;
position = "{282, 0}";
},
{
name = top;
position = "{356, 530}";
}
);
layerId = "4085F1A9-CD4F-447E-BF4E-06E18D46F28C";
shapes = (
{
closed = 1;
nodes = (
(219,0,l),
(268,351,ls),
(272,381,o),
(310,399,o),
(340,399,cs),
(370,399,o),
(399,381,o),
(395,351,cs),
(346,0,l),
(546,0,l),
(599,378,ls),
(613,477,o),
(558,540,o),
(465,540,cs),
(392,540,o),
(326,501,o),
(277,427,c),
(291,530,l),
(93,530,l),
(19,0,l)
);
}
);
width = 632;
},
{
anchors = (
{
name = bottom;
position = "{266, 0}";
},
{
name = top;
position = "{343, 530}";
}
);
layerId = "60E9CA7D-7455-4953-BBCB-0950C5D70619";
shapes = (
{
closed = 1;
nodes = (
(139.084,0,l),
(191.228,392,l),
(252.062,443,o),
(297.447,470,o),
(353.453,470,cs),
(420.081,470,o),
(449.05,432,o),
(440.359,369,cs),
(390.147,0,l),
(477.053,0,l),
(529.197,388,ls),
(541.75,479,o),
(494.434,540,o),
(395.941,540,cs),
(323.519,540,o),
(268.478,507,o),
(196.056,444,c),
(207.644,530,l),
(123.634,530,l),
(52.178,0,l)
);
}
);
width = 587;
},
{
anchors = (
{
name = bottom;
position = "{258, 0}";
},
{
name = top;
position = "{337, 530}";
}
);
layerId = "0B47C4A7-9101-48D0-A00F-70D9DFD57C4A";
shapes = (
{
closed = 1;
nodes = (
(103.6,0,l),
(157.75,410,l),
(242.3,471,o),
(290.75,502,o),
(358.2,502,cs),
(440.85,502,o),
(469.35,455,o),
(458.9,377,cs),
(408.55,0,l),
(446.55,0,l),
(498.8,393,ls),
(510.2,480,o),
(466.5,540,o),
(364.85,540,cs),
(292.65,540,o),
(243.25,509,o),
(160.6,451,c),
(171.05,530,l),
(135.9,530,l),
(65.6,0,l)
);
}
);
width = 566;
}
);
leftKerningGroup = b2;
rightKerningGroup = a;
unicode = 110;
}
{
glyphname = o;
layers = (
{
anchors = (
{
name = bottom;
position = "{240, 0}";
},
{
name = ogonek;
position = "{311, 10}";
},
{
name = top;
position = "{314, 530}";
}
);
layerId = "DB5B66A7-D76D-4C07-A73F-AA2F655CEE53";
name = "#instance";
shapes = (
{
closed = 1;
nodes = (
(389.333,-10,o),
(497.096,103,o),
(519.425,263,cs),
(541.754,425,o),
(466.029,540,o),
(316.521,540,cs),
(168.954,540,o),
(58.279,426,o),
(34.979,262,cs),
(12.65,102,o),
(90.317,-10,o),
(239.825,-10,cs)
);
},
{
closed = 1;
nodes = (
(155.362,64,o),
(126.237,160,o),
(140.8,267,cs),
(155.362,372,o),
(210.7,467,o),
(304.871,467,cs),
(400.012,467,o),
(431.079,373,o),
(416.517,267,cs),
(400.983,159,o),
(347.587,64,o),
(251.475,64,cs)
);
}
);
width = 555;
},
{
anchors = (
{
name = bottom;
position = "{255, 0}";
},
{
name = ogonek;
position = "{337, 10}";
},
{
name = top;
position = "{332, 530}";
}
);
layerId = "F877A2A6-2AE9-47A5-964B-6AC3A00E0840";
shapes = (
{
closed = 1;
nodes = (
(420,-10,o),
(551,104,o),
(574,262,cs),
(596,423,o),
(501,540,o),
(334,540,cs),
(176,540,o),
(39,429,o),
(16,262,cs),
(-7,103,o),
(91,-10,o),
(255,-10,cs)
);
},
{
closed = 1;
nodes = (
(210,114,o),
(208,212,o),
(216,269,cs),
(224,326,o),
(252,418,o),
(316,418,cs),
(380,418,o),
(384,326,o),
(376,269,cs),
(368,212,o),
(338,114,o),
(274,114,cs)
);
}
);
width = 593;
},
{
anchors = (
{
name = bottom;
position = "{237, 0}";
},
{
name = ogonek;
position = "{306, 10}";
},
{
name = top;
position = "{311, 530}";
}
);
layerId = "47C38B4B-FB8A-4134-B3CD-D82C7CCC786A";
shapes = (
{
closed = 1;
nodes = (
(383.387,-10,o),
(487.675,103,o),
(509.884,263,cs),
(532.094,425,o),
(459.672,540,o),
(312.897,540,cs),
(168.053,540,o),
(60.869,426,o),
(38.659,262,c),
(16.45,102,o),
(89.837,-10,o),
(236.612,-10,cs)
);
},
{
closed = 1;
nodes = (
(145.844,55,o),
(112.047,151,o),
(127.497,266,cs),
(142.947,380,o),
(202.816,476,o),
(303.241,476,cs),
(403.666,476,o),
(438.428,381,o),
(422.978,266,cs),
(406.562,150,o),
(348.625,55,o),
(247.234,55,cs)
);
}
);
width = 548;
},
{
anchors = (
{
name = bottom;
position = "{229, 0}";
},
{
name = ogonek;
position = "{292, 10}";
},
{
name = top;
position = "{302, 530}";
}
);
layerId = "7B6169A8-D8AD-4E0B-B0BB-F8A93FFABE5A";
shapes = (
{
closed = 1;
nodes = (
(366.75,-10,o),
(459.85,102,o),
(481.7,264,cs),
(503.55,426,o),
(440.85,540,o),
(303.1,540,cs),
(164.4,540,o),
(69.4,425,o),
(48.5,262,cs),
(26.65,101,o),
(88.4,-10,o),
(228.05,-10,cs)
);
},
{
closed = 1;
nodes = (
(117.85,28,o),
(69.4,123,o),
(88.4,264,cs),
(107.4,405,o),
(180.55,502,o),
(297.4,502,cs),
(413.3,502,o),
(460.8,406,o),
(441.8,264,cs),
(422.8,122,o),
(352.5,28,o),
(235.65,28,cs)
);
}
);
width = 528;
}
);
leftKerningGroup = c;
rightKerningGroup = b;
unicode = 111;
}
{
glyphname = p;
layers = (
{
layerId = "DB5B66A7-D76D-4C07-A73F-AA2F655CEE53";
name = "#instance";
shapes = (
{
closed = 1;
nodes = (
(130,-165,l),
(161,63,l),
(194,5,o),
(249,-10,o),
(302,-10,cs),
(429,-10,o),
(533,89,o),
(557,272,cs),
(581,453,o),
(503,540,o),
(387,540,cs),
(295,540,o),
(238,484,o),
(213,455,c),
(223,530,l),
(119,530,l),
(24,-165,l)
);
},
{
closed = 1;
nodes = (
(226,65,o),
(193,98,o),
(174,163,c),
(197,333,ls),
(207,407,o),
(264,463,o),
(338,463,cs),
(410,463,o),
(469,413,o),
(450,271,c),
(431,134,o),
(362,65,o),
(279,65,cs)
);
}
);
width = 591;
},
{
layerId = "F877A2A6-2AE9-47A5-964B-6AC3A00E0840";
shapes = (
{
closed = 1;
nodes = (
(196,-165,l),
(230,79,l),
(249,0,o),
(321,-10,o),
(366,-10,cs),
(478,-10,o),
(580,65,o),
(608,267,cs),
(635,454,o),
(562,540,o),
(451,540,cs),
(382,540,o),
(320,504,o),
(284,459,c),
(294,530,l),
(93,530,l),
(-4,-165,l)
);
},
{
closed = 1;
nodes = (
(262,119,o),
(241,156,o),
(253,245,cs),
(260,291,ls),
(273,383,o),
(305,410,o),
(350,410,cs),
(391,410,o),
(423,387,o),
(407,271,cs),
(390,154,o),
(353,119,o),
(306,119,cs)
);
}
);
width = 627;
},
{
layerId = "47C38B4B-FB8A-4134-B3CD-D82C7CCC786A";
shapes = (
{
closed = 1;
nodes = (
(118,-165,l),
(148,60,l),
(184,6,o),
(236,-10,o),
(290,-10,cs),
(420,-10,o),
(524,93,o),
(548,273,cs),
(572,453,o),
(493,540,o),
(375,540,cs),
(280,540,o),
(224,481,o),
(200,454,c),
(210,530,l),
(123,530,l),
(29,-165,l)
);
},
{
closed = 1;
nodes = (
(220,56,o),
(184,88,o),
(160,148,c),
(186,341,ls),
(195,411,o),
(257,473,o),
(336,473,cs),
(414,473,o),
(477,417,o),
(458,271,cs),
(438,130,o),
(364,56,o),
(274,56,cs)
);
}
);
width = 585;
},
{
layerId = "7B6169A8-D8AD-4E0B-B0BB-F8A93FFABE5A";
shapes = (
{
closed = 1;
nodes = (
(82,-165,l),
(110,51,l),
(155,8,o),
(197,-10,o),
(255,-10,cs),
(394,-10,o),
(498,105,o),
(521,275,cs),
(544,452,o),
(462,540,o),
(340,540,cs),
(234,540,o),
(181,471,o),
(162,451,c),
(172,530,l),
(136,530,l),
(44,-165,l)
);
},
{
closed = 1;
nodes = (
(201,28,o),
(158,57,o),
(117,104,c),
(152,364,ls),
(160,424,o),
(235,502,o),
(330,502,cs),
(425,502,o),
(502,430,o),
(481,271,cs),
(460,119,o),
(369,28,o),
(259,28,cs)
);
}
);
width = 566;
}
);
leftKerningGroup = b2;
rightKerningGroup = b;
unicode = 112;
}
{
glyphname = q;
leftMetricsKey = e;
layers = (
{
layerId = "D3EE8B69-6DF3-4675-93B7-89734647BE71";
name = "#instance";
shapes = (
{
closed = 1;
nodes = (
(538,530,l),
(450,530,l),
(441,457,l),
(421,484,o),
(384,540,o),
(290,540,cs),
(171,540,o),
(67,453,o),
(42,273,cs),
(18,93,o),
(94,-10,o),
(224,-10,cs),
(278,-10,o),
(326,6,o),
(385,54,c),
(356,-165,l),
(444,-165,l)
);
},
{
closed = 1;
nodes = (
(170,56,o),
(114,130,o),
(133,271,cs),
(153,417,o),
(231,473,o),
(309,473,cs),
(388,473,o),
(433,411,o),
(425,341,c),
(398,148,l),
(358,88,o),
(313,56,o),
(259,56,cs)
);
}
);
width = 582;
},
{
layerId = "F59E5572-F07E-4A84-84E1-CE36D2AD8363";
shapes = (
{
closed = 1;
nodes = (
(606,530,l),
(405,530,l),
(397,469,l),
(360,514,o),
(321,540,o),
(252,540,cs),
(141,540,o),
(44,454,o),
(17,267,cs),
(-11,65,o),
(69,-10,o),
(181,-10,cs),
(226,-10,o),
(272,0,o),
(340,59,c),
(309,-165,l),
(509,-165,l)
);
},
{
closed = 1;
nodes = (
(230,119,o),
(203,154,o),
(220,271,cs),
(236,387,o),
(274,410,o),
(315,410,cs),
(360,410,o),
(386,383,o),
(373,291,cs),
(366,245,ls),
(354,156,o),
(321,119,o),
(277,119,cs)
);
}
);
width = 618;
},
{
layerId = "84D84D83-1F61-4310-B099-D476523EDF4B";
shapes = (
{
closed = 1;
nodes = (
(538,530,l),
(450,530,l),
(441,457,l),
(421,484,o),
(384,540,o),
(290,540,cs),
(171,540,o),
(67,453,o),
(42,273,cs),
(18,93,o),
(94,-10,o),
(224,-10,cs),
(278,-10,o),
(326,6,o),
(385,54,c),
(356,-165,l),
(444,-165,l)
);
},
{
closed = 1;
nodes = (
(170,56,o),
(114,130,o),
(133,271,cs),
(153,417,o),
(231,473,o),
(309,473,cs),
(388,473,o),
(433,411,o),
(425,341,c),
(398,148,l),
(358,88,o),
(313,56,o),
(259,56,cs)
);
}
);
width = 582;
},
{
layerId = "5E3EA0A1-240F-463B-ACAB-4136DB7510A5";
shapes = (
{
closed = 1;
nodes = (
(507,530,l),
(471,530,l),
(461,451,l),
(448,471,o),
(413,540,o),
(307,540,cs),
(185,540,o),
(78,452,o),
(54,275,cs),
(31,105,o),
(105,-10,o),
(244,-10,cs),
(302,-10,o),
(350,8,o),
(406,51,c),
(377,-165,l),
(415,-165,l)
);
},
{
closed = 1;
nodes = (
(142,28,o),
(73,119,o),
(94,271,cs),
(115,430,o),
(211,502,o),
(306,502,cs),
(401,502,o),
(455,424,o),
(448,364,cs),
(412,104,l),
(360,57,o),
(309,28,o),
(251,28,cs)
);
}
);
width = 566;
}
);
leftKerningGroup = c;
rightKerningGroup = d;
unicode = 113;
}
{
glyphname = r;
layers = (
{
anchors = (
{
name = bottom;
position = "{131, 0}";
},
{
name = top;
position = "{284, 530}";
}
);
layerId = "49A8D228-E827-44F0-AB9F-01876E91E3EE";
shapes = (
{
closed = 1;
nodes = (
(219,0,l),
(254,254,ls),
(262,310,o),
(294,368,o),
(441,353,c),
(467,540,l),
(368,540,o),
(303,469,o),
(266,384,c),
(286,530,l),
(93,530,l),
(19,0,l)
);
}
);
width = 443;
},
{
anchors = (
{
name = bottom;
position = "{99, 0}";
},
{
name = top;
position = "{255, 530}";
}
);
layerId = "2C111888-158E-4586-831E-29429C16F99E";
shapes = (
{
closed = 1;
nodes = (
(139.084,0,l),
(181.572,321,ls),
(191.228,387,o),
(280.066,459,o),
(384.353,453,c),
(395.941,540,l),
(320.622,540,o),
(235.647,488,o),
(191.228,419,c),
(205.712,530,l),
(123.634,530,l),
(52.178,0,l)
);
}
);
width = 383;
},
{
anchors = (
{
name = bottom;
position = "{85, 0}";
},
{
name = top;
position = "{242, 530}";
}
);
layerId = "1D6C4D12-DF74-4368-BFD3-C72FEEEBBCF3";
shapes = (
{
closed = 1;
nodes = (
(103.6,0,l),
(150.15,351,ls),
(159.65,422,o),
(273.65,501,o),
(359.15,499,c),
(364.85,540,l),
(299.3,540,o),
(205.25,496,o),
(158.7,435,c),
(171.05,530,l),
(135.9,530,l),
(65.6,0,l)
);
}
);
width = 355;
}
);
leftKerningGroup = b2;
rightKerningGroup = r;
unicode = 114;
}
{
glyphname = s;
layers = (
{
anchors = (
{
name = bottom;
position = "{234, 0}";
},
{
name = top;
position = "{311, 530}";
}
);
layerId = "1B15BF9D-2282-46A0-8570-EB8A3FC863D6";
shapes = (
{
closed = 1;
nodes = (
(368.571,-10,o),
(476.857,69,o),
(491.286,170,cs),
(497.571,214,o),
(488.143,288,o),
(359.286,324,cs),
(294.857,342,ls),
(243.,357,o),
(215.714,362,o),
(218.429,381,cs),
(221.714,404,o),
(263.571,410,o),
(297.571,410,cs),
(334.571,410,o),
(372.571,389,o),
(387.714,362,c),
(512.143,421,l),
(489.857,482,o),
(447.143,540,o),
(318.143,540,cs),
(165.143,540,o),
(64.143,463,o),
(49.857,356,cs),
(37.857,265,o),
(97.571,221,o),
(193.429,199,cs),
(269.,182,ls),
(304.857,174,o),
(319.143,169,o),
(316.286,149,cs),
(313.571,130,o),
(287.429,122,o),
(254.429,122,cs),
(189.429,122,o),
(140.429,157,o),
(124.,182,c),
(-11.571,136,l),
(13.143,64,o),
(96.571,-10,o),
(234.571,-10,cs)
);
}
);
width = 508;
},
{
layerId = "384628A1-4A8A-4486-AB82-D1325BD310F0";
shapes = (
{
closed = 1;
nodes = (
(310.46,-11,o),
(402.799,57,o),
(415.071,144,c),
(426.263,209,o),
(397.866,262,o),
(319.094,287,c),
(226.714,320,ls),
(179.549,337,o),
(149.433,355,o),
(156.496,397,cs),
(163.804,444,o),
(217.129,471,o),
(275.129,471,cs),
(324.129,471,o),
(361.362,435,o),
(372.692,401,c),
(443.362,435,l),
(412.652,502,o),
(370.469,539,o),
(277.469,539,cs),
(169.469,539,o),
(85.326,475,o),
(75.25,392,c),
(63.076,307,o),
(114.259,270,o),
(184.179,248,c),
(278.509,214,l),
(315.92,202,o),
(334.741,178,o),
(326.679,136,c),
(319.469,91,o),
(269.848,58,o),
(215.848,58,cs),
(149.848,58,o),
(98.763,97,o),
(85.121,145,c),
(11.598,114,l),
(39.112,43,o),
(108.46,-11,o),
(205.46,-11,cs)
);
}
);
width = 464;
},
{
layerId = "2FBE8594-5CD7-4E1A-8146-362CAE16723C";
shapes = (
{
closed = 1;
nodes = (
(280,-12,o),
(365,51,o),
(377,131,cs),
(388,207,o),
(352,248,o),
(300,268,cs),
(192,309,ls),
(147,326,o),
(114,352,o),
(122,406,cs),
(130,465,o),
(187,503,o),
(258,503,cs),
(314,503,o),
(352,459,o),
(362,421,c),
(405,443,l),
(370,512,o),
(330,538,o),
(255,538,cs),
(171,538,o),
(95,482,o),
(85,411,cs),
(73,329,o),
(119,295,o),
(175,273,cs),
(281,231,ls),
(319,216,o),
(341,183,o),
(333,129,cs),
(325,70,o),
(265,24,o),
(200,24,cs),
(134,24,o),
(81,66,o),
(67,125,c),
(25,102,l),
(54,32,o),
(114,-12,o),
(189,-12,cs)
);
}
);
width = 441;
}
);
leftKerningGroup = s2;
rightKerningGroup = s;
unicode = 115;
}
{
glyphname = t;
layers = (
{
anchors = (
{
name = bottom;
position = "{201, 0}";
},
{
name = center;
position = "{183, 295}";
},
{
name = topright;
position = "{437, 780}";
}
);
layerId = "DB5B66A7-D76D-4C07-A73F-AA2F655CEE53";
name = "#instance";
shapes = (
{
closed = 1;
nodes = (
(374.771,530,l),
(253.417,530,l),
(276.717,703,l),
(189.342,703,l),
(152.45,530,l),
(54.396,530,l),
(44.687,454,l),
(139.829,454,l),
(94.2,130,ls),
(82.55,45,o),
(108.762,-4,o),
(221.379,-4,cs),
(255.358,-4,o),
(292.25,1,o),
(305.842,6,c),
(316.521,72,l),
(238.854,72,ls),
(208.758,72,o),
(192.254,83,o),
(200.021,137,c),
(241.767,454,l),
(363.121,454,l)
);
}
);
width = 374;
},
{
anchors = (
{
name = bottom;
position = "{217, 0}";
},
{
name = center;
position = "{209, 265}";
},
{
name = topright;
position = "{501, 815}";
}
);
layerId = "F877A2A6-2AE9-47A5-964B-6AC3A00E0840";
shapes = (
{
closed = 1;
nodes = (
(440,531,l),
(324,531,l),
(347,695,l),
(185,695,l),
(132,530,l),
(38,530,l),
(19,395,l),
(106,395,l),
(71,146,ls),
(59,60,o),
(92,-8,o),
(259,-8,cs),
(322,-8,o),
(351,1,o),
(367,8,c),
(383,126,l),
(299,126,ls),
(282,126,o),
(269,131,o),
(273,155,c),
(305,395,l),
(421,395,l)
);
}
);
width = 422;
},
{
anchors = (
{
name = bottom;
position = "{198, 0}";
},
{
name = center;
position = "{178, 301}";
},
{
name = topright;
position = "{425, 774}";
}
);
layerId = "47C38B4B-FB8A-4134-B3CD-D82C7CCC786A";
shapes = (
{
closed = 1;
nodes = (
(363.109,530,l),
(240.475,530,l),
(264.616,705,l),
(189.297,705,l),
(155.5,530,l),
(57.006,530,l),
(48.316,464,l),
(144.878,464,l),
(98.528,127,ls),
(86.941,42,o),
(111.081,-3,o),
(214.403,-3,cs),
(243.372,-3,o),
(281.997,1,o),
(295.516,6,c),
(304.206,63,l),
(227.922,63,ls),
(196.056,63,o),
(178.675,75,o),
(187.366,134,cs),
(230.819,464,l),
(353.453,464,l)
);
}
);
width = 366;
},
{
anchors = (
{
name = bottom;
position = "{189, 0}";
},
{
name = center;
position = "{164, 318}";
},
{
name = topright;
position = "{390, 755}";
}
);
layerId = "7B6169A8-D8AD-4E0B-B0BB-F8A93FFABE5A";
shapes = (
{
closed = 1;
nodes = (
(328.75,530,l),
(203.35,530,l),
(228.05,710,l),
(190.05,710,l),
(165.35,530,l),
(64.65,530,l),
(59.9,495,l),
(160.6,495,l),
(110.25,119,ls),
(98.85,34,o),
(118.8,0,o),
(194.8,0,cs),
(209.05,0,o),
(250.85,1,o),
(264.15,5,c),
(268.9,35,l),
(196.7,35,ls),
(158.7,35,o),
(139.7,50,o),
(149.2,124,cs),
(198.6,495,l),
(324.,495,l)
);
}
);
width = 341;
}
);
leftKerningGroup = t2;
rightKerningGroup = t;
unicode = 116;
}
{
glyphname = u;
layers = (
{
anchors = (
{
name = bottom;
position = "{258, 0}";
},
{
name = ogonek;
position = "{463, 11}";
},
{
name = top;
position = "{324, 530}";
}
);
layerId = "DB5B66A7-D76D-4C07-A73F-AA2F655CEE53";
name = "#instance";
shapes = (
{
closed = 1;
nodes = (
(266.037,-10,o),
(329.142,22,o),
(398.071,85,c),
(398.071,1,l),
(477.679,1,l),
(550.492,531,l),
(447.583,531,l),
(394.187,145,l),
(341.762,96,o),
(302.929,67,o),
(246.621,67,cs),
(181.575,67,o),
(156.333,105,o),
(165.071,164,c),
(214.583,531,l),
(110.704,531,l),
(59.25,147,ls),
(45.658,51,o),
(106.821,-8,o),
(200.992,-9,cs)
);
}
);
width = 594;
},
{
anchors = (
{
name = bottom;
position = "{283, 0}";
},
{
name = ogonek;
position = "{515, 10}";
},
{
name = top;
position = "{356, 530}";
}
);
layerId = "F877A2A6-2AE9-47A5-964B-6AC3A00E0840";
shapes = (
{
closed = 1;
nodes = (
(247,-10,o),
(332,19,o),
(381,90,c),
(394,0,l),
(541,0,l),
(619,530,l),
(417,530,l),
(367,175,ls),
(363,144,o),
(338,120,o),
(298,120,cs),
(258,120,o),
(239,144,o),
(243,175,cs),
(293,530,l),
(93,530,l),
(41,157,ls),
(26,50,o),
(110,-10,o),
(196,-10,cs)
);
}
);
width = 631;
},
{
anchors = (
{
name = bottom;
position = "{254, 0}";
},
{
name = ogonek;
position = "{454, 11}";
},
{
name = top;
position = "{318, 530}";
}
);
layerId = "47C38B4B-FB8A-4134-B3CD-D82C7CCC786A";
shapes = (
{
closed = 1;
nodes = (
(268.478,-10,o),
(328.347,22,o),
(400.769,84,c),
(397.872,1,l),
(466.431,1,l),
(538.853,531,l),
(451.947,531,l),
(398.837,139,l),
(338.003,87,o),
(296.481,58,o),
(237.578,58,cs),
(168.053,58,o),
(141.981,98,o),
(151.637,162,cs),
(200.884,531,l),
(113.978,531,l),
(61.834,145,ls),
(49.281,51,o),
(106.253,-8,o),
(201.85,-9,cs)
);
}
);
width = 587;
},
{
anchors = (
{
name = bottom;
position = "{241, 0}";
},
{
name = ogonek;
position = "{426, 11}";
},
{
name = top;
position = "{301, 530}";
}
);
layerId = "7B6169A8-D8AD-4E0B-B0BB-F8A93FFABE5A";
shapes = (
{
closed = 1;
nodes = (
(276.5,-10,o),
(325.9,23,o),
(408.55,81,c),
(398.1,1,l),
(433.25,1,l),
(503.55,532,l),
(465.55,532,l),
(411.4,122,l),
(326.85,61,o),
(278.4,30,o),
(210.95,30,cs),
(128.3,30,o),
(99.8,77,o),
(111.2,156,cs),
(160.6,532,l),
(122.6,532,l),
(70.35,139,ls),
(58.95,52,o),
(103.6,-7,o),
(204.3,-9,cs)
);
}
);
width = 567;
}
);
leftKerningGroup = u;
rightKerningGroup = d;
unicode = 117;
}
{
glyphname = v;
layers = (
{
layerId = "DB5B66A7-D76D-4C07-A73F-AA2F655CEE53";
name = "#instance";
shapes = (
{
closed = 1;
nodes = (
(454,530,l),
(252,137,l),
(155,530,l),
(48,530,l),
(185,0,l),
(267,0,l),
(548,530,l)
);
}
);
width = 522;
},
{
layerId = "F877A2A6-2AE9-47A5-964B-6AC3A00E0840";
shapes = (
{
closed = 1;
nodes = (
(439,530,l),
(301,259,l),
(236,530,l),
(38,530,l),
(180,0,l),
(318,0,l),
(609,530,l)
);
}
);
width = 571;
},
{
layerId = "47C38B4B-FB8A-4134-B3CD-D82C7CCC786A";
shapes = (
{
closed = 1;
nodes = (
(457,530,l),
(243,115,l),
(140,530,l),
(50,530,l),
(186,0,l),
(258,0,l),
(537,530,l)
);
}
);
width = 513;
},
{
layerId = "7B6169A8-D8AD-4E0B-B0BB-F8A93FFABE5A";
shapes = (
{
closed = 1;
nodes = (
(465,530,l),
(217,49,l),
(96,530,l),
(55,530,l),
(188,0,l),
(230,0,l),
(504,530,l)
);
}
);
width = 486;
}
);
leftKerningGroup = v2;
rightKerningGroup = v;
unicode = 118;
}
{
glyphname = w;
layers = (
{
anchors = (
{
name = top;
position = "{446, 530}";
}
);
layerId = "F426EF5A-234F-4D9D-8FA2-B6E01B62F842";
shapes = (
{
closed = 1;
nodes = (
(679,530,l),
(561,272,l),
(521,530,l),
(383,530,l),
(269,273,l),
(222,530,l),
(38,530,l),
(144,0,l),
(290,0,l),
(410,257,l),
(453,0,l),
(596,0,l),
(856,530,l)
);
}
);
width = 818;
},
{
anchors = (
{
name = top;
position = "{423, 530}";
}
);
layerId = "25174B84-9FC9-4237-B6C0-AF6CE185AC75";
shapes = (
{
closed = 1;
nodes = (
(702.044,530,l),
(528.231,117,l),
(457.741,530,l),
(389.181,530,l),
(212.472,116,l),
(144.878,530,l),
(59.903,530,l),
(150.672,0,l),
(233.716,0,l),
(404.631,398,l),
(472.225,0,l),
(552.372,0,l),
(782.191,530,l)
);
}
);
width = 769;
},
{
anchors = (
{
name = top;
position = "{413, 530}";
}
);
layerId = "E845DC5E-3808-4662-B0C6-177943F39A70";
shapes = (
{
closed = 1;
nodes = (
(711.6,530,l),
(513.05,46,l),
(429.45,530,l),
(391.45,530,l),
(187.2,44,l),
(111.2,530,l),
(69.4,530,l),
(153.,0,l),
(208.1,0,l),
(400.95,462,l),
(479.8,0,l),
(533.,0,l),
(748.65,530,l)
);
}
);
width = 746;
}
);
leftKerningGroup = v2;
rightKerningGroup = v;
unicode = 119;
}
{
glyphname = x;
layers = (
{
guides = (
{
angle = 306.207;
position = "{203, 530}";
},
{
angle = 53.793;
position = "{-240, 0}";
}
);
layerId = "DE030A49-AE7C-4104-8137-1F8DB9F65EE6";
name = "#instance";
shapes = (
{
closed = 1;
nodes = (
(320,276,l),
(537,530,l),
(440,530,l),
(280,341,l),
(170,530,l),
(74,530,l),
(221,276,l),
(-14,0,l),
(83,0,l),
(262,211,l),
(384,0,l),
(480,0,l)
);
}
);
width = 536;
},
{
guides = (
{
angle = 306.207;
position = "{203, 530}";
},
{
angle = 53.793;
position = "{-240, 0}";
}
);
layerId = "90BAD496-908C-46A8-8D40-D80AAE603430";
shapes = (
{
closed = 1;
nodes = (
(420,277,l),
(641,530,l),
(436,530,l),
(336,415,l),
(267,530,l),
(62,530,l),
(211,277,l),
(-31,0,l),
(174,0,l),
(297,141,l),
(379,0,l),
(584,0,l)
);
}
);
width = 625;
},
{
guides = (
{
angle = 306.207;
position = "{203, 530}";
},
{
angle = 53.793;
position = "{-240, 0}";
}
);
layerId = "E1183961-CF0C-4334-8CD2-07F6368CCCB1";
shapes = (
{
closed = 1;
nodes = (
(320,276,l),
(537,530,l),
(440,530,l),
(280,341,l),
(170,530,l),
(74,530,l),
(221,276,l),
(-14,0,l),
(83,0,l),
(262,211,l),
(384,0,l),
(480,0,l)
);
}
);
width = 536;
},
{
guides = (
{
angle = 234.734;
position = "{-58, 0}";
},
{
angle = 125.266;
position = "{286, 0}";
}
);
layerId = "24DA169B-0D71-476F-B940-6C54E096B564";
shapes = (
{
closed = 1;
nodes = (
(275,275,l),
(489,530,l),
(442,530,l),
(255,307,l),
(126,530,l),
(79,530,l),
(225,275,l),
(-6,0,l),
(42,0,l),
(246,243,l),
(386,0,l),
(433,0,l)
);
}
);
width = 496;
}
);
unicode = 120;
}
{
glyphname = y;
layers = (
{
anchors = (
{
name = top;
position = "{308, 530}";
}
);
guides = (
{
angle = 70.244;
position = "{403, 494}";
},
{
angle = 109.398;
position = "{83, 472}";
}
);
layerId = "DB5B66A7-D76D-4C07-A73F-AA2F655CEE53";
name = "#instance";
shapes = (
{
closed = 1;
nodes = (
(135.946,-169,o),
(196.137,-141,o),
(252.446,-32,cs),
(544.667,530,l),
(443.7,530,l),
(244.679,134,l),
(152.45,530,l),
(48.571,530,l),
(178.662,15,l),
(157.304,-31,l),
(144.683,-56,o),
(122.354,-90,o),
(43.717,-88,cs),
(-9.679,-86,l),
(-18.417,-156,l),
(-18.417,-156,o),
(0.029,-169,o),
(62.162,-169,cs)
);
}
);
width = 511;
},
{
anchors = (
{
name = top;
position = "{360, 530}";
}
);
guides = (
{
angle = 70.244;
position = "{403, 494}";
},
{
angle = 109.398;
position = "{83, 472}";
}
);
layerId = "F877A2A6-2AE9-47A5-964B-6AC3A00E0840";
shapes = (
{
closed = 1;
nodes = (
(190,-169,o),
(265,-136,o),
(357,31,cs),
(634,530,l),
(439,530,l),
(295,242,l),
(234,530,l),
(38,530,l),
(174,31,l),
(171,21,l),
(168,14,o),
(156,-32,o),
(54,-24,cs),
(3,-20,l),
(-15,-147,l),
(-15,-147,o),
(16,-169,o),
(98,-169,cs)
);
}
);
width = 576;
},
{
anchors = (
{
name = top;
position = "{299, 530}";
}
);
guides = (
{
angle = 70.244;
position = "{403, 494}";
},
{
angle = 109.398;
position = "{83, 472}";
}
);
layerId = "47C38B4B-FB8A-4134-B3CD-D82C7CCC786A";
shapes = (
{
closed = 1;
nodes = (
(126.531,-169,o),
(183.503,-142,o),
(234.681,-43,c),
(529.197,530,l),
(444.222,530,l),
(235.647,115,l),
(138.119,530,l),
(50.247,530,l),
(179.641,12,l),
(154.534,-40,l),
(140.05,-68,o),
(115.909,-101,o),
(41.556,-99,cs),
(-11.553,-98,l),
(-19.278,-157,l),
(-19.278,-157,o),
(-2.862,-169,o),
(56.041,-169,cs)
);
}
);
width = 500;
},
{
anchors = (
{
name = top;
position = "{271, 530}";
}
);
guides = (
{
angle = 69.819;
position = "{268, 294}";
}
);
layerId = "7B6169A8-D8AD-4E0B-B0BB-F8A93FFABE5A";
shapes = (
{
closed = 1;
nodes = (
(97.9,-169,o),
(147.3,-144,o),
(181.5,-77,cs),
(482.65,530,l),
(445.6,530,l),
(209.05,57,l),
(96.,530,l),
(55.15,530,l),
(181.5,3,l),
(146.35,-68,ls),
(127.35,-105,o),
(97.9,-133,o),
(36.15,-133,cs),
(-18.,-133,l),
(-21.8,-161,l),
(-21.8,-161,o),
(-11.35,-169,o),
(38.05,-169,cs)
);
}
);
width = 466;
}
);
leftKerningGroup = v2;
rightKerningGroup = v;
unicode = 121;
}
{
glyphname = z;
layers = (
{
anchors = (
{
name = top;
position = "{312, 530}";
}
);
layerId = "19535A56-B4B7-45FA-8766-5D6358701C99";
shapes = (
{
closed = 1;
nodes = (
(480,0,l),
(497,124,l),
(246,124,l),
(540,439,l),
(553,530,l),
(75,530,l),
(58,408,l),
(283,408,l),
(-8,94,l),
(-21,0,l)
);
}
);
width = 531;
},
{
anchors = (
{
name = top;
position = "{291, 530}";
}
);
layerId = "AEBEF15D-4BBA-4516-955A-7DB830DF0DA8";
shapes = (
{
closed = 1;
nodes = (
(409.459,0,l),
(418.15,63,l),
(116.875,63,l),
(468.362,473,l),
(476.087,530,l),
(95.631,530,l),
(87.906,468,l),
(363.109,468,l),
(10.656,56,l),
(2.931,0,l)
);
}
);
width = 479;
},
{
anchors = (
{
name = top;
position = "{281, 530}";
}
);
layerId = "ABC3C110-A709-486E-B3D5-BEE5600AE028";
shapes = (
{
closed = 1;
nodes = (
(378.15,0,l),
(382.9,35,l),
(59.9,35,l),
(436.1,488,l),
(441.8,530,l),
(104.55,530,l),
(99.8,495,l),
(397.15,495,l),
(18.1,39,l),
(13.35,0,l)
);
}
);
width = 455;
}
);
leftKerningGroup = z2;
rightKerningGroup = z;
unicode = 122;
}
{
glyphname = braceleft;
layers = (
{
layerId = "49A8D228-E827-44F0-AB9F-01876E91E3EE";
shapes = (
{
closed = 1;
nodes = (
(332,-165,l),
(348,-58,l),
(315,-58,ls),
(250,-58,o),
(233,-48,o),
(238,-12,cs),
(265,181,l),
(274,265,o),
(208,287,o),
(158,289,c),
(154,291,o),
(163,295,o),
(175,295,c),
(219,302,o),
(281,318,o),
(294,386,c),
(321,576,l),
(324,602,o),
(333,635,o),
(397,635,cs),
(445,635,l),
(460,742,l),
(361,742,ls),
(282,742,o),
(180,705,o),
(167,612,cs),
(141,431,ls),
(133,371,o),
(95,341,o),
(13,341,c),
(-1,248,l),
(86,248,o),
(114,222,o),
(105,174,c),
(78,-23,ls),
(64,-118,o),
(163,-165,o),
(245,-165,cs)
);
}
);
width = 417;
},
{
layerId = "2C111888-158E-4586-831E-29429C16F99E";
shapes = (
{
closed = 1;
nodes = (
(233,-165,l),
(241,-106,l),
(214,-106,ls),
(172,-106,o),
(148,-84,o),
(152,-53,cs),
(182,167,l),
(192,251,o),
(146,283,o),
(97,286,c),
(91,288,o),
(96,292,o),
(106,293,cs),
(153,299,o),
(203,331,o),
(215,408,c),
(244,628,ls),
(248,661,o),
(266,683,o),
(315,683,cs),
(348,683,l),
(356,742,l),
(306,742,ls),
(233,742,o),
(177,705,o),
(168,640,cs),
(138,423,ls),
(130,363,o),
(88,319,o),
(12,318,c),
(5,262,l),
(83,262,o),
(110,214,o),
(104,166,cs),
(73,-57,ls),
(64,-121,o),
(111,-165,o),
(189,-165,cs)
);
}
);
width = 311;
},
{
layerId = "1D6C4D12-DF74-4368-BFD3-C72FEEEBBCF3";
shapes = (
{
closed = 1;
nodes = (
(188,-165,l),
(193,-128,l),
(168,-128,ls),
(137,-128,o),
(109,-100,o),
(113,-72,cs),
(144,161,l),
(155,244,o),
(118,281,o),
(69,285,cs),
(62,286,o),
(66,291,o),
(74,292,cs),
(123,297,o),
(167,337,o),
(179,418,cs),
(209,651,ls),
(214,688,o),
(235,705,o),
(278,705,cs),
(304,705,l),
(309,742,l),
(281,742,ls),
(211,742,o),
(175,705,o),
(168,653,cs),
(137,420,ls),
(128,360,o),
(85,309,o),
(11,308,c),
(7,269,l),
(81,269,o),
(108,211,o),
(103,163,c),
(71,-72,ls),
(64,-123,o),
(88,-165,o),
(163,-165,cs)
);
}
);
width = 263;
}
);
unicode = 123;
}
{
glyphname = bar;
leftMetricsKey = I;
rightMetricsKey = I;
layers = (
{
layerId = "B872A948-CF4A-4CBB-8276-18DBE9F9CB6F";
shapes = (
{
closed = 1;
nodes = (
(284,847,l),
(143,847,l),
(1,-165,l),
(141,-165,l)
);
}
);
width = 261;
},
{
layerId = "CDE4D1C1-62F2-4871-801D-D4385200C2D4";
shapes = (
{
closed = 1;
nodes = (
(245,847,l),
(176,847,l),
(38,-165,l),
(108,-165,l)
);
}
);
width = 262;
},
{
layerId = "205523CA-C9A0-433B-A23D-3E9A8307D858";
shapes = (
{
closed = 1;
nodes = (
(226,847,l),
(189,847,l),
(54,-165,l),
(91,-165,l)
);
}
);
width = 258;
}
);
leftKerningGroup = bar;
unicode = 124;
}
{
glyphname = braceright;
layers = (
{
layerId = "49A8D228-E827-44F0-AB9F-01876E91E3EE";
shapes = (
{
closed = 1;
nodes = (
(85,742,l),
(69,635,l),
(102,635,ls),
(167,635,o),
(184,625,o),
(179,589,cs),
(152,396,l),
(143,312,o),
(209,290,o),
(259,288,c),
(263,286,o),
(254,282,o),
(242,282,c),
(198,275,o),
(136,259,o),
(123,191,c),
(96,1,l),
(93,-25,o),
(84,-58,o),
(20,-58,cs),
(-28,-58,l),
(-43,-165,l),
(56,-165,ls),
(135,-165,o),
(237,-128,o),
(250,-35,cs),
(276,146,ls),
(284,206,o),
(322,236,o),
(404,236,c),
(418,329,l),
(331,329,o),
(303,355,o),
(312,403,c),
(339,600,ls),
(353,695,o),
(254,742,o),
(172,742,cs)
);
}
);
width = 417;
},
{
layerId = "2C111888-158E-4586-831E-29429C16F99E";
shapes = (
{
closed = 1;
nodes = (
(78,742,l),
(70,683,l),
(97,683,ls),
(139,683,o),
(163,661,o),
(159,630,cs),
(129,410,l),
(119,326,o),
(165,294,o),
(214,291,c),
(220,289,o),
(215,285,o),
(206,284,cs),
(158,278,o),
(109,246,o),
(96,169,c),
(67,-51,ls),
(63,-84,o),
(46,-106,o),
(-4,-106,cs),
(-37,-106,l),
(-45,-165,l),
(5,-165,ls),
(78,-165,o),
(135,-128,o),
(143,-63,cs),
(173,154,ls),
(182,214,o),
(223,258,o),
(300,259,c),
(307,315,l),
(229,315,o),
(201,363,o),
(208,411,cs),
(238,634,ls),
(247,698,o),
(200,742,o),
(123,742,cs)
);
}
);
width = 311;
},
{
layerId = "1D6C4D12-DF74-4368-BFD3-C72FEEEBBCF3";
shapes = (
{
closed = 1;
nodes = (
(75,742,l),
(70,705,l),
(95,705,ls),
(126,705,o),
(154,677,o),
(150,649,cs),
(119,416,l),
(108,333,o),
(145,296,o),
(194,292,cs),
(201,291,o),
(197,286,o),
(189,285,cs),
(140,280,o),
(96,240,o),
(84,159,cs),
(54,-74,ls),
(49,-111,o),
(28,-128,o),
(-15,-128,cs),
(-41,-128,l),
(-46,-165,l),
(-18,-165,ls),
(52,-165,o),
(88,-128,o),
(95,-76,cs),
(126,157,ls),
(135,217,o),
(178,268,o),
(252,269,c),
(256,308,l),
(182,308,o),
(155,366,o),
(160,414,c),
(192,649,ls),
(199,700,o),
(175,742,o),
(100,742,cs)
);
}
);
width = 263;
}
);
leftKerningGroup = question;
unicode = 125;
}
{
glyphname = asciitilde;
layers = (
{
layerId = "B872A948-CF4A-4CBB-8276-18DBE9F9CB6F";
shapes = (
{
closed = 1;
nodes = (
(561,489,l),
(531,439,o),
(484,397,o),
(435,397,cs),
(376,397,o),
(347,468,o),
(255,468,cs),
(188,468,o),
(132,427,o),
(61,369,c),
(116,257,l),
(154,302,o),
(197,348,o),
(251,348,cs),
(314,348,o),
(350,276,o),
(438,276,cs),
(492,276,o),
(561,305,o),
(614,378,c)
);
}
);
width = 652;
},
{
layerId = "CDE4D1C1-62F2-4871-801D-D4385200C2D4";
shapes = (
{
closed = 1;
nodes = (
(492,438,l),
(470,409,o),
(437,379,o),
(386,379,cs),
(322,379,o),
(286,432,o),
(210,432,cs),
(154,432,o),
(113,404,o),
(71,370,c),
(95,309,l),
(122,339,o),
(159,369,o),
(210,369,cs),
(276,369,o),
(305,317,o),
(386,317,cs),
(443,317,o),
(489,342,o),
(516,376,c)
);
}
);
width = 559;
},
{
layerId = "205523CA-C9A0-433B-A23D-3E9A8307D858";
shapes = (
{
closed = 1;
nodes = (
(461,415,l),
(442,395,o),
(416,371,o),
(364,371,cs),
(297,371,o),
(258,416,o),
(189,416,cs),
(138,416,o),
(105,393,o),
(76,371,c),
(86,333,l),
(107,356,o),
(141,379,o),
(192,379,cs),
(258,379,o),
(285,335,o),
(362,335,cs),
(420,335,o),
(456,359,o),
(471,375,c)
);
}
);
width = 517;
}
);
unicode = 126;
}
{
glyphname = exclamdown;
layers = (
{
layerId = "F59E5572-F07E-4A84-84E1-CE36D2AD8363";
shapes = (
{
closed = 1;
nodes = (
(284,530,l),
(75,530,l),
(46,333,l),
(257,333,l)
);
},
{
closed = 1;
nodes = (
(202,264,l),
(81,264,l),
(-35,-165,l),
(197,-165,l)
);
}
);
width = 287;
},
{
layerId = "84D84D83-1F61-4310-B099-D476523EDF4B";
shapes = (
{
closed = 1;
nodes = (
(210,530,l),
(104,530,l),
(88,414,l),
(194,414,l)
);
},
{
closed = 1;
nodes = (
(161,345,l),
(102,345,l),
(10,-165,l),
(116,-165,l)
);
}
);
width = 242;
},
{
layerId = "5E3EA0A1-240F-463B-ACAB-4136DB7510A5";
shapes = (
{
closed = 1;
nodes = (
(177,530,l),
(117,530,l),
(107,451,l),
(165,451,l)
);
},
{
closed = 1;
nodes = (
(142,382,l),
(112,382,l),
(30,-165,l),
(79,-165,l)
);
}
);
width = 221;
}
);
unicode = 161;
}
{
glyphname = cent;
layers = (
{
layerId = "4A771BA9-DE6D-4DFF-875A-35CEAA78AE27";
shapes = (
{
closed = 1;
nodes = (
(348,196,l),
(222,196,l),
(195,0,l),
(320,0,l)
);
},
{
closed = 1;
nodes = (
(425,742,l),
(299,742,l),
(272,546,l),
(397,546,l)
);
},
{
alignment = -1;
pos = (15,111);
ref = c;
}
);
width = 568;
},
{
anchors = (
{
name = bottom;
position = "{258, 111}";
},
{
name = top;
position = "{329, 641}";
}
);
layerId = "063EDB9A-26EE-473F-A1FA-D59C439A67CE";
shapes = (
{
closed = 1;
nodes = (
(295,144,l),
(230,144,l),
(210,0,l),
(275,0,l)
);
},
{
closed = 1;
nodes = (
(376,742,l),
(311,742,l),
(291,598,l),
(356,598,l)
);
},
{
alignment = -1;
pos = (16,111);
ref = c;
}
);
width = 545;
},
{
layerId = "A1D8A8A0-7317-4958-838D-B74999429465";
shapes = (
{
closed = 1;
nodes = (
(271,121,l),
(233,121,l),
(217,0,l),
(255,0,l)
);
},
{
closed = 1;
nodes = (
(354,742,l),
(316,742,l),
(299,621,l),
(338,621,l)
);
},
{
alignment = -1;
pos = (16,111);
ref = c;
}
);
width = 535;
}
);
unicode = 162;
}
{
glyphname = sterling;
layers = (
{
layerId = "19535A56-B4B7-45FA-8766-5D6358701C99";
shapes = (
{
closed = 1;
nodes = (
(365,0,ls),
(495,0,o),
(598,73,o),
(645,209,c),
(473,243,l),
(451,189,o),
(418,164,o),
(364,164,cs),
(283,164,l),
(311,183,o),
(337,216,o),
(347,238,cs),
(360,268,o),
(359,311,o),
(359,343,c),
(476,343,l),
(499,446,l),
(359,447,l),
(359,476,o),
(359,507,o),
(359,520,cs),
(359,565,o),
(395,598,o),
(429,598,cs),
(463,598,o),
(476,566,o),
(485,532,c),
(648,577,l),
(618,701,o),
(505,752,o),
(403,752,cs),
(271,752,o),
(142,689,o),
(132,552,cs),
(126,446,l),
(40,446,l),
(25,343,l),
(134,343,l),
(134,318,o),
(136,254,o),
(123,219,cs),
(113,191,o),
(79,163,o),
(28,163,cs),
(-1,163,l),
(-24,0,l)
);
}
);
width = 678;
},
{
layerId = "AEBEF15D-4BBA-4516-955A-7DB830DF0DA8";
shapes = (
{
closed = 1;
nodes = (
(322,0,ls),
(422,0,o),
(498,47,o),
(541,140,c),
(462,162,l),
(435,102,o),
(389,79,o),
(324,79,cs),
(163,79,l),
(199,115,o),
(224,160,o),
(234,233,c),
(240,273,o),
(241,318,o),
(241,353,c),
(391,354,l),
(401,412,l),
(240,413,l),
(237,460,o),
(231,508,o),
(237,551,c),
(245,628,o),
(306,674,o),
(375,674,cs),
(433,674,o),
(462,646,o),
(477,604,c),
(552,630,l),
(530,711,o),
(453,752,o),
(367,752,cs),
(243,752,o),
(124,679,o),
(135,498,c),
(138,412,l),
(49,412,l),
(41,353,l),
(141,353,l),
(141,306,o),
(142,252,o),
(134,217,c),
(120,124,o),
(74,77,o),
(23,78,c),
(-13,78,l),
(-23,0,l)
);
}
);
width = 603;
},
{
layerId = "ABC3C110-A709-486E-B3D5-BEE5600AE028";
shapes = (
{
closed = 1;
nodes = (
(303,0,ls),
(389,0,o),
(453,35,o),
(493,109,c),
(457,125,l),
(427,63,o),
(376,40,o),
(306,40,cs),
(109,40,l),
(148,84,o),
(173,135,o),
(182,230,c),
(185,275,o),
(187,321,o),
(187,358,c),
(352,359,l),
(357,397,l),
(186,397,l),
(182,452,o),
(173,508,o),
(181,565,cs),
(193,656,o),
(266,709,o),
(351,709,cs),
(419,709,o),
(456,682,o),
(473,637,c),
(508,654,l),
(490,716,o),
(430,752,o),
(351,752,cs),
(230,752,o),
(116,675,o),
(136,474,cs),
(144,396,l),
(53,396,l),
(48,358,l),
(144,358,l),
(144,301,o),
(144,251,o),
(139,216,cs),
(123,94,o),
(71,38,o),
(21,39,c),
(-18,39,l),
(-23,0,l)
);
}
);
width = 569;
}
);
unicode = 163;
}
{
glyphname = currency;
layers = (
{
layerId = "F877A2A6-2AE9-47A5-964B-6AC3A00E0840";
shapes = (
{
closed = 1;
nodes = (
(339,126,o),
(387,140,o),
(433,159,c),
(483,102,l),
(564,172,l),
(509,236,l),
(509,237,o),
(511,240,o),
(514,237,c),
(543,278,o),
(558,323,o),
(564,362,cs),
(572,416,o),
(563,459,o),
(541,494,c),
(618,559,l),
(544,645,l),
(482,592,l),
(481,589,o),
(475,582,o),
(466,580,c),
(435,605,o),
(392,620,o),
(343,620,cs),
(302,620,o),
(251,607,o),
(204,588,c),
(146,655,l),
(63,583,l),
(124,514,l),
(128,508,o),
(123,505,o),
(117,502,c),
(91,460,o),
(78,423,o),
(73,383,c),
(62,326,o),
(74,289,o),
(95,254,c),
(7,178,l),
(82,92,l),
(152,153,l),
(155,157,o),
(163,165,o),
(175,165,c),
(204,140,o),
(246,126,o),
(294,126,cs)
);
},
{
closed = 1;
nodes = (
(227,250,o),
(185,302,o),
(194,362,cs),
(203,432,o),
(269,496,o),
(343,496,cs),
(409,496,o),
(451,444,o),
(443,384,cs),
(433,314,o),
(367,250,o),
(293,250,cs)
);
}
);
width = 613;
},
{
layerId = "47C38B4B-FB8A-4134-B3CD-D82C7CCC786A";
shapes = (
{
closed = 1;
nodes = (
(294,180,o),
(334,193,o),
(371,215,c),
(418,158,l),
(464,198,l),
(416,255,ls),
(413,258,o),
(416,262,o),
(420,264,c),
(443,295,o),
(458,332,o),
(463,368,cs),
(470,412,o),
(460,450,o),
(442,480,c),
(510,540,l),
(468,589,l),
(411,537,ls),
(407,533,o),
(404,530,o),
(397,531,c),
(372,553,o),
(338,566,o),
(298,566,cs),
(261,566,o),
(220,553,o),
(184,532,c),
(135,590,l),
(89,549,l),
(137,493,l),
(139,489,o),
(137,486,o),
(133,482,c),
(110,450,o),
(96,415,o),
(90,378,c),
(82,333,o),
(93,296,o),
(111,266,c),
(42,204,l),
(83,155,l),
(141,208,l),
(145,213,o),
(150,216,o),
(156,214,c),
(181,192,o),
(215,180,o),
(255,180,cs)
);
},
{
closed = 1;
nodes = (
(191,249,o),
(149,305,o),
(158,368,c),
(166,436,o),
(228,497,o),
(298,497,cs),
(365,497,o),
(408,441,o),
(398,378,c),
(390,310,o),
(328,249,o),
(257,249,cs)
);
}
);
width = 526;
},
{
layerId = "7B6169A8-D8AD-4E0B-B0BB-F8A93FFABE5A";
shapes = (
{
closed = 1;
nodes = (
(274,204,o),
(310,217,o),
(343,240,c),
(389,183,l),
(418,210,l),
(374,263,ls),
(370,268,o),
(373,272,o),
(377,276,cs),
(398,303,o),
(412,336,o),
(417,371,cs),
(423,410,o),
(413,446,o),
(397,474,c),
(461,532,l),
(434,564,l),
(379,512,ls),
(374,508,o),
(371,506,o),
(365,509,c),
(343,529,o),
(313,541,o),
(278,541,cs),
(242,541,o),
(206,529,o),
(175,507,c),
(130,561,l),
(101,534,l),
(143,484,l),
(144,481,o),
(144,477,o),
(140,473,cs),
(118,445,o),
(104,411,o),
(98,375,cs),
(91,336,o),
(101,299,o),
(118,271,c),
(58,216,l),
(83,183,l),
(136,233,l),
(140,238,o),
(144,239,o),
(148,236,cs),
(171,216,o),
(201,204,o),
(237,204,cs)
);
},
{
closed = 1;
nodes = (
(175,248,o),
(132,306,o),
(141,371,cs),
(149,438,o),
(210,498,o),
(278,498,cs),
(345,498,o),
(388,440,o),
(378,375,c),
(370,308,o),
(310,248,o),
(241,248,cs)
);
}
);
width = 487;
}
);
unicode = 164;
}
{
glyphname = yen;
layers = (
{
layerId = "4085F1A9-CD4F-447E-BF4E-06E18D46F28C";
shapes = (
{
closed = 1;
nodes = (
(575,742,l),
(397,484,l),
(289,742,l),
(42,742,l),
(243,319,l),
(198,0,l),
(425,0,l),
(471,320,l),
(793,742,l)
);
},
{
closed = 1;
nodes = (
(100,366,l),
(84,265,l),
(612,265,l),
(627,366,l)
);
},
{
closed = 1;
nodes = (
(76,196,l),
(60,95,l),
(588,95,l),
(603,196,l)
);
}
);
width = 701;
},
{
layerId = "60E9CA7D-7455-4953-BBCB-0950C5D70619";
shapes = (
{
closed = 1;
nodes = (
(561,742,l),
(321,399,l),
(178,742,l),
(67,742,l),
(256,316,l),
(213,0,l),
(314,0,l),
(359,323,l),
(660,742,l)
);
},
{
closed = 1;
nodes = (
(109,345,l),
(101,288,l),
(505,288,l),
(513,346,l)
);
},
{
closed = 1;
nodes = (
(88,196,l),
(80,138,l),
(484,139,l),
(492,197,l)
);
}
);
width = 597;
},
{
layerId = "0B47C4A7-9101-48D0-A00F-70D9DFD57C4A";
shapes = (
{
closed = 1;
nodes = (
(554,742,l),
(287,360,l),
(127,742,l),
(79,742,l),
(262,314,l),
(220,0,l),
(263,0,l),
(308,324,l),
(600,742,l)
);
},
{
closed = 1;
nodes = (
(113,336,l),
(108,298,l),
(456,299,l),
(461,337,l)
);
},
{
closed = 1;
nodes = (
(94,196,l),
(89,158,l),
(437,159,l),
(442,197,l)
);
}
);
width = 549;
}
);
leftKerningGroup = B;
rightKerningGroup = H;
unicode = 165;
}
{
glyphname = brokenbar;
leftMetricsKey = I;
rightMetricsKey = I;
layers = (
{
layerId = "53698F14-3379-49FD-849B-EB3564F78825";
shapes = (
{
closed = 1;
nodes = (
(283,847,l),
(143,847,l),
(84,423,l),
(224,423,l)
);
},
{
closed = 1;
nodes = (
(202,259,l),
(60,259,l),
(1,-165,l),
(141,-165,l)
);
}
);
width = 262;
},
{
layerId = "3A2F0B01-8BAD-43D2-BFC9-C9D3CCE0022F";
shapes = (
{
closed = 1;
nodes = (
(244,847,l),
(175,847,l),
(120,437,l),
(188,437,l)
);
},
{
closed = 1;
nodes = (
(163,245,l),
(93,245,l),
(37,-165,l),
(107,-165,l)
);
}
);
width = 261;
},
{
layerId = "4B62E599-A761-4CCD-BB2B-30B6A69879C7";
shapes = (
{
closed = 1;
nodes = (
(225,847,l),
(188,847,l),
(135,443,l),
(171,443,l)
);
},
{
closed = 1;
nodes = (
(144,239,l),
(107,239,l),
(53,-165,l),
(90,-165,l)
);
}
);
width = 257;
}
);
leftKerningGroup = bar;
unicode = 166;
}
{
glyphname = section;
layers = (
{
layerId = "77A4FFC1-0B63-4D99-813F-BE34DD7100B8";
name = "#instance";
shapes = (
{
closed = 1;
nodes = (
(459,254,o),
(489,295,o),
(497,351,cs),
(510,443,o),
(460,491,o),
(345,536,cs),
(274,563,l),
(256,572,o),
(244,578,o),
(244,596,cs),
(244,619,o),
(273,637,o),
(309,637,cs),
(358,637,o),
(388,606,o),
(418,580,c),
(520,625,l),
(500,689,o),
(421,752,o),
(304,752,cs),
(170,752,o),
(83,683,o),
(70,591,cs),
(62,538,o),
(80,497,o),
(123,466,c),
(64,437,o),
(32,394,o),
(24,336,cs),
(11,244,o),
(59,197,o),
(176,151,cs),
(237,127,ls),
(289,107,o),
(294,90,o),
(291,73,cs),
(287,52,o),
(256,30,o),
(208,30,cs),
(137,30,o),
(109,61,o),
(80,87,c),
(-20,43,l),
(-2,-22,o),
(78,-85,o),
(213,-85,cs),
(369,-85,o),
(456,-16,o),
(470,86,cs),
(479,148,o),
(458,189,o),
(404,221,c)
);
},
{
closed = 1;
nodes = (
(219,306,ls),
(177,321,o),
(180,343,o),
(186,360,cs),
(196,387,o),
(221,402,o),
(244,402,c),
(302,379,ls),
(345,362,o),
(340,329,o),
(333,314,cs),
(323,293,o),
(303,283,o),
(282,283,c)
);
}
);
width = 520;
},
{
layerId = "F426EF5A-234F-4D9D-8FA2-B6E01B62F842";
shapes = (
{
closed = 1;
nodes = (
(459,254,o),
(489,295,o),
(497,351,cs),
(510,443,o),
(460,491,o),
(345,536,cs),
(274,563,l),
(256,572,o),
(244,578,o),
(244,596,cs),
(244,619,o),
(273,637,o),
(309,637,cs),
(358,637,o),
(388,606,o),
(418,580,c),
(520,625,l),
(500,689,o),
(421,752,o),
(304,752,cs),
(170,752,o),
(83,683,o),
(70,591,cs),
(62,538,o),
(80,497,o),
(123,466,c),
(64,437,o),
(32,394,o),
(24,336,cs),
(11,244,o),
(59,197,o),
(176,151,cs),
(237,127,ls),
(289,107,o),
(294,90,o),
(291,73,cs),
(287,52,o),
(256,30,o),
(208,30,cs),
(137,30,o),
(109,61,o),
(80,87,c),
(-20,43,l),
(-2,-22,o),
(78,-85,o),
(213,-85,cs),
(369,-85,o),
(456,-16,o),
(470,86,cs),
(479,148,o),
(458,189,o),
(404,221,c)
);
},
{
closed = 1;
nodes = (
(219,306,ls),
(177,321,o),
(180,343,o),
(186,360,cs),
(196,387,o),
(221,402,o),
(244,402,c),
(302,379,ls),
(345,362,o),
(340,329,o),
(333,314,cs),
(323,293,o),
(303,283,o),
(282,283,c)
);
}
);
width = 520;
},
{
layerId = "25174B84-9FC9-4237-B6C0-AF6CE185AC75";
shapes = (
{
closed = 1;
nodes = (
(390,229,o),
(434,265,o),
(443,331,cs),
(453,405,o),
(417,457,o),
(319,500,cs),
(241,533,l),
(185,560,o),
(173,586,o),
(175,615,c),
(181,658,o),
(227,689,o),
(297,689,cs),
(351,689,o),
(390,656,o),
(417,617,c),
(470,644,l),
(445,701,o),
(382,752,o),
(292,752,cs),
(182,752,o),
(104,693,o),
(93,614,cs),
(86,564,o),
(99,520,o),
(169,480,c),
(107,455,o),
(62,410,o),
(54,349,c),
(44,280,o),
(77,232,o),
(164,196,cs),
(243,162,ls),
(317,131,o),
(331,101,o),
(326,68,cs),
(319,20,o),
(268,-10,o),
(203,-10,cs),
(129,-10,o),
(82,27,o),
(57,75,c),
(3,49,l),
(28,-22,o),
(103,-73,o),
(201,-73,cs),
(319,-73,o),
(399,-13,o),
(410,70,cs),
(419,128,o),
(390,168,o),
(337,202,c)
);
},
{
closed = 1;
nodes = (
(198,269,ls),
(135,297,o),
(128,322,o),
(133,356,c),
(141,400,o),
(192,440,o),
(242,444,c),
(300,419,ls),
(364,391,o),
(369,357,o),
(362,318,cs),
(354,274,o),
(306,238,o),
(261,241,c)
);
}
);
width = 473;
},
{
layerId = "E845DC5E-3808-4662-B0C6-177943F39A70";
shapes = (
{
closed = 1;
nodes = (
(358,218,o),
(409,252,o),
(418,322,cs),
(427,387,o),
(397,441,o),
(307,483,cs),
(226,520,ls),
(152,554,o),
(141,589,o),
(144,623,c),
(152,676,o),
(206,712,o),
(291,712,cs),
(348,712,o),
(391,679,o),
(417,634,c),
(447,653,l),
(420,706,o),
(364,752,o),
(287,752,cs),
(187,752,o),
(113,697,o),
(104,625,cs),
(97,576,o),
(108,531,o),
(190,486,c),
(127,463,o),
(75,417,o),
(68,355,c),
(59,297,o),
(85,248,o),
(158,216,cs),
(246,178,ls),
(329,142,o),
(348,106,o),
(342,66,cs),
(334,6,o),
(274,-28,o),
(200,-28,cs),
(126,-28,o),
(70,12,o),
(46,70,c),
(14,51,l),
(41,-22,o),
(115,-68,o),
(195,-68,cs),
(296,-68,o),
(373,-12,o),
(383,62,cs),
(391,119,o),
(359,159,o),
(306,194,c)
);
},
{
closed = 1;
nodes = (
(188,252,ls),
(116,286,o),
(104,312,o),
(109,354,cs),
(116,406,o),
(179,457,o),
(241,463,c),
(299,437,ls),
(372,404,o),
(382,370,o),
(375,320,cs),
(368,265,o),
(307,217,o),
(252,222,c)
);
}
);
width = 452;
}
);
unicode = 167;
}
{
glyphname = copyright;
layers = (
{
layerId = "4A771BA9-DE6D-4DFF-875A-35CEAA78AE27";
shapes = (
{
closed = 1;
nodes = (
(647,-10,o),
(818,159,o),
(818,371,cs),
(818,581,o),
(647,752,o),
(437,752,cs),
(226,752,o),
(56,581,o),
(56,371,cs),
(56,159,o),
(226,-10,o),
(437,-10,cs)
);
},
{
closed = 1;
nodes = (
(271,91,o),
(168,200,o),
(168,371,cs),
(168,540,o),
(271,652,o),
(437,652,cs),
(600,652,o),
(706,540,o),
(706,371,cs),
(706,200,o),
(600,91,o),
(437,91,cs)
);
},
{
closed = 1;
nodes = (
(319,584,o),
(228,501,o),
(228,374,cs),
(228,247,o),
(319,161,o),
(440,161,cs),
(552,161,o),
(615,243,o),
(627,311,c),
(493,318,l),
(490,294,o),
(482,258,o),
(444,258,cs),
(407,258,o),
(383,291,o),
(383,373,cs),
(383,455,o),
(407,487,o),
(444,487,cs),
(482,487,o),
(490,451,o),
(493,427,c),
(627,434,l),
(615,502,o),
(552,584,o),
(440,584,cs)
);
}
);
width = 840;
},
{
layerId = "063EDB9A-26EE-473F-A1FA-D59C439A67CE";
shapes = (
{
closed = 1;
nodes = (
(644,-10,o),
(815,159,o),
(815,371,cs),
(815,581,o),
(644,752,o),
(434,752,cs),
(223,752,o),
(53,581,o),
(53,371,cs),
(53,159,o),
(223,-10,o),
(434,-10,cs)
);
},
{
closed = 1;
nodes = (
(258,52,o),
(119,177,o),
(119,371,cs),
(119,563,o),
(258,691,o),
(434,691,cs),
(607,691,o),
(749,563,o),
(749,371,cs),
(749,177,o),
(607,52,o),
(434,52,cs)
);
},
{
closed = 1;
nodes = (
(323,588,o),
(241,502,o),
(241,375,cs),
(241,248,o),
(323,160,o),
(436,160,cs),
(521,160,o),
(574,213,o),
(605,273,c),
(538,289,l),
(515,246,o),
(484,217,o),
(440,217,cs),
(369,217,o),
(320,277,o),
(320,374,cs),
(320,472,o),
(369,531,o),
(440,531,cs),
(484,531,o),
(515,502,o),
(538,459,c),
(605,475,l),
(574,534,o),
(521,588,o),
(436,588,cs)
);
}
);
width = 833;
},
{
layerId = "A1D8A8A0-7317-4958-838D-B74999429465";
shapes = (
{
closed = 1;
nodes = (
(642,-10,o),
(813,159,o),
(813,371,cs),
(813,581,o),
(642,752,o),
(432,752,cs),
(221,752,o),
(51,581,o),
(51,371,cs),
(51,159,o),
(221,-10,o),
(432,-10,cs)
);
},
{
closed = 1;
nodes = (
(251,34,o),
(96,166,o),
(96,371,cs),
(96,573,o),
(251,709,o),
(432,709,cs),
(609,709,o),
(768,573,o),
(768,371,cs),
(768,166,o),
(609,34,o),
(432,34,cs)
);
},
{
closed = 1;
nodes = (
(324,590,o),
(246,503,o),
(246,376,cs),
(246,249,o),
(324,159,o),
(434,159,cs),
(506,159,o),
(555,200,o),
(594,255,c),
(558,276,l),
(525,224,o),
(484,198,o),
(438,198,cs),
(351,198,o),
(290,271,o),
(290,375,cs),
(290,479,o),
(351,551,o),
(438,551,cs),
(484,551,o),
(525,525,o),
(558,473,c),
(594,494,l),
(555,549,o),
(506,590,o),
(434,590,cs)
);
}
);
width = 830;
}
);
unicode = 169;
}
{
glyphname = ordfeminine;
leftMetricsKey = a;
rightMetricsKey = a;
layers = (
{
layerId = "4A771BA9-DE6D-4DFF-875A-35CEAA78AE27";
shapes = (
{
closed = 1;
nodes = (
(192,408,o),
(215,416,o),
(256,433,c),
(254,414,l),
(369,414,l),
(399,643,ls),
(407,707,o),
(376,751,o),
(254,752,c),
(152,752,o),
(112,723,o),
(79,664,c),
(197,639,l),
(210,658,o),
(233,677,o),
(257,677,cs),
(275,677,o),
(288,668,o),
(282,639,c),
(279,623,l),
(249,621,ls),
(128,614,o),
(66,577,o),
(57,515,cs),
(48,453,o),
(84,408,o),
(158,408,cs)
);
},
{
closed = 1;
nodes = (
(182,482,o),
(176,493,o),
(176,506,cs),
(176,539,o),
(212,555,o),
(260,560,cs),
(270,561,l),
(264,530,ls),
(259,503,o),
(226,482,o),
(203,482,cs)
);
}
);
width = 386;
},
{
layerId = "063EDB9A-26EE-473F-A1FA-D59C439A67CE";
shapes = (
{
closed = 1;
nodes = (
(221,406,o),
(251,420,o),
(291,452,c),
(287,412,l),
(346,412,l),
(376,636,ls),
(385,705,o),
(350,750,o),
(259,750,c),
(187,750,o),
(140,722,o),
(110,672,c),
(168,653,l),
(194,688,o),
(220,703,o),
(257,703,cs),
(301,703,o),
(323,684,o),
(317,639,c),
(313,615,l),
(256,610,ls),
(148,601,o),
(91,566,o),
(82,503,cs),
(74,444,o),
(110,406,o),
(179,406,cs)
);
},
{
closed = 1;
nodes = (
(161,451,o),
(141,470,o),
(144,498,cs),
(149,540,o),
(190,564,o),
(265,570,cs),
(307,574,l),
(300,525,ls),
(296,491,o),
(239,451,o),
(199,451,cs)
);
}
);
width = 391;
},
{
hints = (
{
horizontal = 1;
place = (2551,86);
type = Stem;
}
);
layerId = "A1D8A8A0-7317-4958-838D-B74999429465";
shapes = (
{
closed = 1;
nodes = (
(233,405,o),
(267,422,o),
(307,460,c),
(301,411,l),
(335,411,l),
(365,633,ls),
(375,704,o),
(337,749,o),
(261,749,cs),
(202,749,o),
(152,722,o),
(124,676,c),
(155,660,l),
(186,702,o),
(214,715,o),
(256,715,cs),
(312,715,o),
(338,691,o),
(332,639,c),
(328,612,l),
(258,605,ls),
(156,595,o),
(102,561,o),
(93,498,cs),
(86,440,o),
(122,405,o),
(188,405,cs)
);
},
{
closed = 1;
nodes = (
(151,437,o),
(125,460,o),
(129,495,c),
(136,540,o),
(180,568,o),
(267,575,cs),
(323,580,l),
(316,522,ls),
(312,485,o),
(245,437,o),
(197,437,cs)
);
}
);
width = 391;
}
);
unicode = 170;
}
{
glyphname = guillemotleft;
layers = (
{
layerId = "F877A2A6-2AE9-47A5-964B-6AC3A00E0840";
shapes = (
{
closed = 1;
nodes = (
(448,61,l),
(412,258,l),
(509,463,l),
(406,463,l),
(266,258,l),
(346,61,l)
);
},
{
closed = 1;
nodes = (
(241,61,l),
(206,258,l),
(303,463,l),
(199,463,l),
(61,258,l),
(140,61,l)
);
}
);
width = 553;
},
{
layerId = "47C38B4B-FB8A-4134-B3CD-D82C7CCC786A";
shapes = (
{
closed = 1;
nodes = (
(359,73,l),
(289,258,l),
(415,451,l),
(365,451,l),
(210,258,l),
(310,73,l)
);
},
{
closed = 1;
nodes = (
(189,73,l),
(119,258,l),
(245,451,l),
(194,451,l),
(40,258,l),
(140,73,l)
);
}
);
width = 443;
},
{
layerId = "7B6169A8-D8AD-4E0B-B0BB-F8A93FFABE5A";
shapes = (
{
closed = 1;
nodes = (
(319,78,l),
(233,258,l),
(372,445,l),
(346,445,l),
(184,258,l),
(294,78,l)
);
},
{
closed = 1;
nodes = (
(165,78,l),
(79,258,l),
(218,445,l),
(192,445,l),
(30,258,l),
(140,78,l)
);
}
);
width = 393;
}
);
unicode = 171;
}
{
glyphname = logicalnot;
layers = (
{
layerId = "7AE3EAE7-5E60-4D4F-B196-8455048EE550";
shapes = (
{
closed = 1;
nodes = (
(66,444,l),
(47,303,l),
(568,303,l),
(589,444,l)
);
},
{
closed = 1;
nodes = (
(421,393,l),
(386,141,l),
(545,141,l),
(581,393,l)
);
}
);
width = 611;
},
{
layerId = "98A2E2AB-A518-47A0-BAB2-E4787431E873";
shapes = (
{
closed = 1;
nodes = (
(79,408,l),
(69,337,l),
(494,338,l),
(504,408,l)
);
},
{
closed = 1;
nodes = (
(427,388,l),
(400,191,l),
(474,191,l),
(501,388,l)
);
}
);
width = 544;
},
{
layerId = "0D84DF16-5466-4685-B199-9D5CA7B8601A";
shapes = (
{
closed = 1;
nodes = (
(85,391,l),
(79,353,l),
(460,354,l),
(466,392,l)
);
},
{
closed = 1;
nodes = (
(429,385,l),
(407,214,l),
(442,214,l),
(465,385,l)
);
}
);
width = 514;
}
);
unicode = 172;
}
{
glyphname = registered;
layers = (
{
layerId = "4A771BA9-DE6D-4DFF-875A-35CEAA78AE27";
shapes = (
{
closed = 1;
nodes = (
(447,275,o),
(554,381,o),
(554,513,cs),
(554,645,o),
(447,752,o),
(316,752,cs),
(183,752,o),
(77,645,o),
(77,513,cs),
(77,381,o),
(183,275,o),
(316,275,cs)
);
},
{
closed = 1;
nodes = (
(217,346,o),
(155,411,o),
(155,513,cs),
(155,614,o),
(217,681,o),
(316,681,cs),
(413,681,o),
(476,614,o),
(476,513,cs),
(476,411,o),
(413,346,o),
(316,346,cs)
);
},
{
closed = 1;
nodes = (
(287,394,l),
(287,492,l),
(317,492,l),
(350,394,l),
(429,394,l),
(382,501,l),
(408,512,o),
(428,534,o),
(428,564,cs),
(428,606,o),
(391,630,o),
(330,630,cs),
(215,630,l),
(215,394,l)
);
},
{
closed = 1;
nodes = (
(287,583,l),
(326,583,ls),
(340,583,o),
(353,575,o),
(353,561,cs),
(353,549,o),
(344,539,o),
(329,539,cs),
(287,539,l)
);
}
);
width = 555;
},
{
layerId = "063EDB9A-26EE-473F-A1FA-D59C439A67CE";
shapes = (
{
closed = 1;
nodes = (
(443,275,o),
(550,381,o),
(550,513,cs),
(550,645,o),
(443,752,o),
(312,752,cs),
(179,752,o),
(73,645,o),
(73,513,cs),
(73,381,o),
(179,275,o),
(312,275,cs)
);
},
{
closed = 1;
nodes = (
(199,321,o),
(122,396,o),
(122,513,cs),
(122,629,o),
(199,706,o),
(312,706,cs),
(423,706,o),
(501,629,o),
(501,513,cs),
(501,396,o),
(423,321,o),
(312,321,cs)
);
},
{
closed = 1;
nodes = (
(263,393,l),
(263,502,l),
(318,502,l),
(358,393,l),
(404,393,l),
(359,507,l),
(383,515,o),
(408,533,o),
(408,570,cs),
(408,609,o),
(378,630,o),
(327,630,cs),
(221,630,l),
(221,393,l)
);
},
{
closed = 1;
nodes = (
(263,596,l),
(319,596,ls),
(353,596,o),
(363,583,o),
(363,566,cs),
(363,544,o),
(345,536,o),
(322,536,cs),
(263,536,l)
);
}
);
width = 548;
},
{
layerId = "A1D8A8A0-7317-4958-838D-B74999429465";
shapes = (
{
closed = 1;
nodes = (
(442,275,o),
(549,381,o),
(549,513,cs),
(549,645,o),
(442,752,o),
(311,752,cs),
(178,752,o),
(72,645,o),
(72,513,cs),
(72,381,o),
(178,275,o),
(311,275,cs)
);
},
{
closed = 1;
nodes = (
(191,310,o),
(108,389,o),
(108,513,cs),
(108,636,o),
(191,717,o),
(311,717,cs),
(429,717,o),
(513,636,o),
(513,513,cs),
(513,389,o),
(429,310,o),
(311,310,cs)
);
},
{
closed = 1;
nodes = (
(253,393,l),
(253,507,l),
(319,507,l),
(362,393,l),
(394,393,l),
(349,509,l),
(372,517,o),
(400,532,o),
(400,572,cs),
(400,610,o),
(373,630,o),
(326,630,cs),
(224,630,l),
(224,393,l)
);
},
{
closed = 1;
nodes = (
(253,602,l),
(316,602,ls),
(360,602,o),
(369,586,o),
(369,568,cs),
(369,542,o),
(346,535,o),
(319,535,cs),
(253,535,l)
);
}
);
width = 545;
}
);
unicode = 174;
}
{
glyphname = degree;
layers = (
{
layerId = "F59E5572-F07E-4A84-84E1-CE36D2AD8363";
shapes = (
{
closed = 1;
nodes = (
(487,775,o),
(416,857,o),
(308,857,cs),
(207,857,o),
(124,787,o),
(110,686,cs),
(94,574,o),
(164,493,o),
(273,493,cs),
(373,493,o),
(457,562,o),
(471,664,cs)
);
},
{
closed = 1;
nodes = (
(355,636,o),
(318,599,o),
(271,599,cs),
(231,599,o),
(211,624,o),
(216,663,cs),
(222,711,o),
(260,748,o),
(307,748,cs),
(347,748,o),
(367,723,o),
(362,685,cs)
);
}
);
width = 474;
},
{
layerId = "84D84D83-1F61-4310-B099-D476523EDF4B";
shapes = (
{
closed = 1;
nodes = (
(451,789,o),
(392,858,o),
(301,858,cs),
(214,858,o),
(142,794,o),
(130,703,c),
(116,606,o),
(174,538,o),
(265,538,cs),
(352,538,o),
(425,601,o),
(438,693,cs)
);
},
{
closed = 1;
nodes = (
(367,639,o),
(324,596,o),
(265,596,cs),
(210,596,o),
(181,634,o),
(189,692,c),
(195,753,o),
(241,797,o),
(299,797,cs),
(355,797,o),
(384,758,o),
(376,702,cs)
);
}
);
width = 451;
},
{
layerId = "5E3EA0A1-240F-463B-ACAB-4136DB7510A5";
shapes = (
{
closed = 1;
nodes = (
(434,795,o),
(381,858,o),
(298,858,cs),
(217,858,o),
(150,797,o),
(139,710,cs),
(126,621,o),
(179,558,o),
(262,558,cs),
(343,558,o),
(411,619,o),
(423,706,cs)
);
},
{
closed = 1;
nodes = (
(373,641,o),
(326,594,o),
(262,594,cs),
(200,594,o),
(168,639,o),
(176,705,cs),
(183,772,o),
(232,819,o),
(296,819,cs),
(358,819,o),
(391,774,o),
(382,709,cs)
);
}
);
width = 441;
}
);
unicode = 176;
}
{
glyphname = plusminus;
layers = (
{
layerId = "F59E5572-F07E-4A84-84E1-CE36D2AD8363";
shapes = (
{
closed = 1;
nodes = (
(40,156,l),
(40,15,l),
(562,15,l),
(562,156,l)
);
},
{
closed = 1;
nodes = (
(40,539,l),
(40,398,l),
(562,398,l),
(562,539,l)
);
},
{
closed = 1;
nodes = (
(372,730,l),
(231,730,l),
(231,208,l),
(372,208,l)
);
}
);
width = 611;
},
{
layerId = "84D84D83-1F61-4310-B099-D476523EDF4B";
shapes = (
{
closed = 1;
nodes = (
(61,132,l),
(61,62,l),
(499,62,l),
(499,133,l)
);
},
{
closed = 1;
nodes = (
(61,485,l),
(61,415,l),
(499,415,l),
(499,485,l)
);
},
{
closed = 1;
nodes = (
(315,670,l),
(245,670,l),
(245,231,l),
(315,231,l)
);
}
);
width = 544;
},
{
layerId = "5E3EA0A1-240F-463B-ACAB-4136DB7510A5";
shapes = (
{
closed = 1;
nodes = (
(70,121,l),
(70,83,l),
(471,84,l),
(471,122,l)
);
},
{
closed = 1;
nodes = (
(70,461,l),
(70,423,l),
(471,423,l),
(471,461,l)
);
},
{
closed = 1;
nodes = (
(289,643,l),
(251,643,l),
(252,242,l),
(289,242,l)
);
}
);
width = 514;
}
);
unicode = 177;
}
{
glyphname = micro;
leftMetricsKey = u;
rightMetricsKey = u;
layers = (
{
layerId = "4085F1A9-CD4F-447E-BF4E-06E18D46F28C";
shapes = (
{
closed = 1;
nodes = (
(196,-165,l),
(215,-28,ls),
(217,-16,o),
(239,-7,o),
(257,-1,cs),
(297,12,o),
(327,41,o),
(359,87,c),
(345,0,l),
(541,0,l),
(620,530,l),
(417,530,l),
(365,175,l),
(348,162,o),
(327,130,o),
(278,130,cs),
(258,130,o),
(239,142,o),
(243,173,cs),
(294,530,l),
(93,530,l),
(-4,-165,l)
);
}
);
width = 632;
},
{
layerId = "60E9CA7D-7455-4953-BBCB-0950C5D70619";
shapes = (
{
closed = 1;
nodes = (
(108,-165,l),
(134,17,l),
(154,-3,o),
(186,-9,o),
(225,-7,c),
(277,-3,o),
(320,22,o),
(391,82,c),
(379,0,l),
(464,0,l),
(538,530,l),
(448,530,l),
(396,147,l),
(341,98,o),
(290,60,o),
(232,60,cs),
(181,60,o),
(144,98,o),
(151,148,c),
(203,530,l),
(114,530,l),
(20,-165,l)
);
}
);
width = 584;
},
{
layerId = "0B47C4A7-9101-48D0-A00F-70D9DFD57C4A";
shapes = (
{
closed = 1;
nodes = (
(67,-165,l),
(95,38,l),
(124,3,o),
(161,-10,o),
(209,-10,cs),
(267,-10,o),
(315,13,o),
(404,79,c),
(393,0,l),
(428,0,l),
(499,530,l),
(461,530,l),
(408,134,l),
(336,69,o),
(272,28,o),
(209,28,cs),
(145,28,o),
(100,78,o),
(107,136,cs),
(160,530,l),
(122,530,l),
(29,-165,l)
);
}
);
width = 561;
}
);
leftKerningGroup = u;
rightKerningGroup = d;
unicode = 181;
}
{
glyphname = paragraph;
leftMetricsKey = o;
rightMetricsKey = n;
layers = (
{
layerId = "49A8D228-E827-44F0-AB9F-01876E91E3EE";
shapes = (
{
closed = 1;
nodes = (
(658,742,l),
(322,742,ls),
(167,742,o),
(72,654,o),
(55,536,cs),
(35,390,o),
(127,322,o),
(230,312,c),
(174,-85,l),
(291,-85,l),
(393,633,l),
(459,633,l),
(358,-85,l),
(475,-85,l),
(577,633,l),
(643,633,l)
);
}
);
width = 639;
},
{
layerId = "2C111888-158E-4586-831E-29429C16F99E";
shapes = (
{
closed = 1;
nodes = (
(542,742,l),
(331,742,ls),
(179,742,o),
(91,635,o),
(76,522,cs),
(59,403,o),
(128,310,o),
(255,307,c),
(202,-85,l),
(261,-85,l),
(367,686,l),
(415,686,l),
(311,-85,l),
(369,-85,l),
(475,686,l),
(535,686,l)
);
}
);
width = 547;
},
{
layerId = "1D6C4D12-DF74-4368-BFD3-C72FEEEBBCF3";
shapes = (
{
closed = 1;
nodes = (
(489,742,l),
(335,742,ls),
(185,742,o),
(100,627,o),
(85,516,cs),
(70,409,o),
(128,304,o),
(266,304,c),
(215,-85,l),
(247,-85,l),
(355,710,l),
(395,710,l),
(290,-85,l),
(321,-85,l),
(429,710,l),
(486,710,l)
);
}
);
width = 504;
}
);
unicode = 182;
}
{
glyphname = periodcentered;
layers = (
{
layerId = "4085F1A9-CD4F-447E-BF4E-06E18D46F28C";
shapes = (
{
closed = 1;
nodes = (
(73,463,l),
(48,284,l),
(233,284,l),
(258,463,l)
);
}
);
width = 288;
},
{
layerId = "60E9CA7D-7455-4953-BBCB-0950C5D70619";
shapes = (
{
closed = 1;
nodes = (
(67.628,429,l),
(52.178,318,l),
(163.225,318,l),
(177.709,429,l)
);
}
);
width = 203;
},
{
layerId = "0B47C4A7-9101-48D0-A00F-70D9DFD57C4A";
shapes = (
{
closed = 1;
nodes = (
(64.65,413,l),
(53.25,334,l),
(132.1,334,l),
(142.55,413,l)
);
}
);
width = 164;
}
);
leftKerningGroup = comma2;
rightKerningGroup = comma;
unicode = 183;
}
{
glyphname = ordmasculine;
leftMetricsKey = o;
rightMetricsKey = o;
layers = (
{
layerId = "B872A948-CF4A-4CBB-8276-18DBE9F9CB6F";
shapes = (
{
closed = 1;
nodes = (
(156,752,o),
(75,688,o),
(62,589,cs),
(47,485,o),
(111,408,o),
(218,408,cs),
(317,408,o),
(394,473,o),
(407,567,cs),
(422,673,o),
(359,752,o),
(250,752,cs)
);
},
{
closed = 1;
nodes = (
(285,674,o),
(293,652,o),
(285,592,cs),
(275,522,o),
(251,488,o),
(213,488,cs),
(184,488,o),
(176,510,o),
(185,570,cs),
(195,640,o),
(218,674,o),
(255,674,cs)
);
}
);
width = 383;
},
{
layerId = "CDE4D1C1-62F2-4871-801D-D4385200C2D4";
shapes = (
{
closed = 1;
nodes = (
(166.672,751,o),
(98.112,684,o),
(83.628,582,cs),
(70.109,481,o),
(119.356,407,o),
(217.85,407,cs),
(313.447,407,o),
(379.109,476,o),
(391.662,573,cs),
(406.147,678,o),
(354.003,751,o),
(256.475,751,cs)
);
},
{
closed = 1;
nodes = (
(315.378,703,o),
(338.553,658,o),
(328.897,585,cs),
(317.309,504,o),
(278.684,455,o),
(216.884,455,cs),
(159.912,455,o),
(137.703,499,o),
(148.325,576,cs),
(158.947,653,o),
(196.606,703,o),
(257.441,703,cs)
);
}
);
width = 387;
},
{
layerId = "205523CA-C9A0-433B-A23D-3E9A8307D858";
shapes = (
{
closed = 1;
nodes = (
(171.2,751,o),
(107.55,682,o),
(93.3,579,cs),
(80.,479,o),
(122.75,407,o),
(217.75,407,cs),
(311.8,407,o),
(371.65,477,o),
(384.95,575,cs),
(398.25,680,o),
(351.7,751,o),
(259.55,751,cs)
);
},
{
closed = 1;
nodes = (
(327.95,716,o),
(357.4,661,o),
(346.95,582,cs),
(334.6,496,o),
(289.95,440,o),
(218.7,440,cs),
(149.35,440,o),
(120.85,494,o),
(132.25,578,cs),
(142.7,659,o),
(187.35,716,o),
(258.6,716,cs)
);
}
);
width = 388;
}
);
unicode = 186;
}
{
glyphname = guillemotright;
layers = (
{
layerId = "F426EF5A-234F-4D9D-8FA2-B6E01B62F842";
shapes = (
{
closed = 1;
nodes = (
(352,61,l),
(491,258,l),
(413,463,l),
(310,463,l),
(345,258,l),
(249,61,l)
);
},
{
closed = 1;
nodes = (
(145,61,l),
(284,258,l),
(207,463,l),
(104,463,l),
(137,258,l),
(43,61,l)
);
}
);
width = 553;
},
{
layerId = "25174B84-9FC9-4237-B6C0-AF6CE185AC75";
shapes = (
{
closed = 1;
nodes = (
(247,73,l),
(401,258,l),
(301,451,l),
(251,451,l),
(322,258,l),
(198,73,l)
);
},
{
closed = 1;
nodes = (
(77,73,l),
(230,258,l),
(131,451,l),
(81,451,l),
(151,258,l),
(28,73,l)
);
}
);
width = 442;
},
{
layerId = "E845DC5E-3808-4662-B0C6-177943F39A70";
shapes = (
{
closed = 1;
nodes = (
(199,78,l),
(360,258,l),
(250,445,l),
(224,445,l),
(312,258,l),
(175,78,l)
);
},
{
closed = 1;
nodes = (
(46,78,l),
(206,258,l),
(96,445,l),
(71,445,l),
(157,258,l),
(21,78,l)
);
}
);
width = 391;
}
);
unicode = 187;
}
{
glyphname = questiondown;
rightMetricsKey = z;
layers = (
{
layerId = "AEBEF15D-4BBA-4516-955A-7DB830DF0DA8";
shapes = (
{
closed = 1;
nodes = (
(206,289,l),
(198,235,ls),
(192,199,o),
(165,169,o),
(133,136,cs),
(78,80,o),
(3,29,o),
(-10,-63,cs),
(-22,-150,o),
(41,-222,o),
(143,-222,cs),
(225,-222,o),
(289,-179,o),
(338,-95,c),
(264,-67,l),
(234,-126,o),
(195,-155,o),
(148,-155,cs),
(102,-155,o),
(70,-118,o),
(77,-67,cs),
(86,-4,o),
(127,34,o),
(170,74,cs),
(215,117,o),
(263,163,o),
(275,244,cs),
(282,289,l)
);
},
{
closed = 1;
nodes = (
(219,530,l),
(202,402,l),
(312,402,l),
(329,530,l)
);
}
);
width = 416;
},
{
layerId = "ABC3C110-A709-486E-B3D5-BEE5600AE028";
shapes = (
{
closed = 1;
nodes = (
(206,302,l),
(196,228,ls),
(190,190,o),
(156,156,o),
(118,118,cs),
(68,68,o),
(11,10,o),
(-1,-74,cs),
(-13,-157,o),
(36,-222,o),
(112,-222,cs),
(169,-222,o),
(216,-188,o),
(259,-121,c),
(230,-98,l),
(199,-157,o),
(165,-184,o),
(118,-184,cs),
(65,-184,o),
(28,-136,o),
(37,-74,cs),
(48,0,o),
(92,42,o),
(138,84,cs),
(182,127,o),
(227,170,o),
(238,245,cs),
(246,302,l)
);
},
{
closed = 1;
nodes = (
(221,530,l),
(208,434,l),
(272,434,l),
(285,530,l)
);
}
);
width = 358;
},
{
layerId = "19535A56-B4B7-45FA-8766-5D6358701C99";
shapes = (
{
closed = 1;
nodes = (
(206,261,l),
(204,250,ls),
(199,220,o),
(185,197,o),
(166,176,cs),
(103,107,o),
(-13,72,o),
(-28,-39,cs),
(-41,-135,o),
(54,-222,o),
(213,-222,cs),
(351,-222,o),
(452,-160,o),
(514,-38,c),
(339,1,l),
(311,-58,o),
(264,-92,o),
(217,-92,cs),
(186,-92,o),
(163,-77,o),
(166,-50,cs),
(171,-12,o),
(204,16,o),
(242,51,cs),
(289,94,o),
(343,148,o),
(359,243,cs),
(362,261,l)
);
},
{
closed = 1;
nodes = (
(217,530,l),
(189,333,l),
(400,333,l),
(427,530,l)
);
}
);
width = 571;
}
);
unicode = 191;
}
{
glyphname = AE;
leftMetricsKey = A;
rightMetricsKey = E;
layers = (
{
anchors = (
{
name = top;
position = "{793, 742}";
}
);
layerId = "7AE3EAE7-5E60-4D4F-B196-8455048EE550";
shapes = (
{
closed = 1;
nodes = (
(726,164,l),
(744,292,l),
(1042,292,l),
(1066,453,l),
(767,453,l),
(783,578,l),
(1133,578,l),
(1157,742,l),
(465,742,l),
(-26,0,l),
(183,0,l),
(275,144,l),
(496,144,l),
(476,0,l),
(1062,0,l),
(1084,164,l)
);
},
{
closed = 1;
nodes = (
(372,314,l),
(561,604,l),
(520,314,l)
);
}
);
width = 1138;
},
{
anchors = (
{
name = top;
position = "{726, 742}";
}
);
layerId = "98A2E2AB-A518-47A0-BAB2-E4787431E873";
shapes = (
{
closed = 1;
nodes = (
(548.509,79,l),
(582.306,335,l),
(890.341,335,l),
(901.928,413,l),
(592.928,413,l),
(626.725,663,l),
(967.591,663,l),
(979.178,742,l),
(488.641,742,l),
(-11.553,0,l),
(83.078,0,l),
(223.094,209,l),
(466.431,209,l),
(437.462,0,l),
(891.306,0,l),
(900.962,79,l)
);
},
{
closed = 1;
nodes = (
(269.444,289,l),
(529.197,669,l),
(477.053,289,l)
);
}
);
width = 985;
},
{
anchors = (
{
name = top;
position = "{696, 742}";
}
);
layerId = "0D84DF16-5466-4685-B199-9D5CA7B8601A";
shapes = (
{
closed = 1;
nodes = (
(470.3,40,l),
(511.15,355,l),
(823.7,355,l),
(829.4,395,l),
(516.85,395,l),
(557.7,702,l),
(894.95,702,l),
(900.65,742,l),
(497.85,742,l),
(-5.65,0,l),
(39.,0,l),
(200.5,238,l),
(453.2,238,l),
(419.95,0,l),
(816.1,0,l),
(820.85,40,l)
);
},
{
closed = 1;
nodes = (
(224.25,278,l),
(514.,699,l),
(457.95,278,l)
);
}
);
width = 917;
}
);
leftKerningGroup = AE;
rightKerningGroup = E;
unicode = 198;
}
{
glyphname = Eth;
rightMetricsKey = D;
layers = (
{
layerId = "4A771BA9-DE6D-4DFF-875A-35CEAA78AE27";
shapes = (
{
closed = 1;
nodes = (
(49,434,l),
(30,293,l),
(438,293,l),
(458,434,l)
);
},
{
alignment = -1;
pos = (5,0);
ref = D;
}
);
width = 735;
},
{
anchors = (
{
name = center;
position = "{348, 371}";
},
{
name = top;
position = "{395, 742}";
}
);
layerId = "063EDB9A-26EE-473F-A1FA-D59C439A67CE";
shapes = (
{
closed = 1;
nodes = (
(51.212,407,l),
(41.556,334,l),
(368.903,334,l),
(378.559,407,l)
);
},
{
alignment = -1;
pos = (-6,0);
ref = D;
}
);
width = 670;
},
{
layerId = "A1D8A8A0-7317-4958-838D-B74999429465";
shapes = (
{
closed = 1;
nodes = (
(51.35,395,l),
(46.6,353,l),
(338.25,353,l),
(343.,395,l)
);
},
{
alignment = -1;
pos = (-11,0);
ref = D;
}
);
width = 640;
}
);
leftKerningGroup = B;
rightKerningGroup = D;
unicode = 208;
}
{
glyphname = multiply;
layers = (
{
layerId = "1B15BF9D-2282-46A0-8570-EB8A3FC863D6";
shapes = (
{
closed = 1;
nodes = (
(190,629,l),
(84,537,l),
(445,118,l),
(551,211,l)
);
},
{
closed = 1;
nodes = (
(597,522,l),
(503,629,l),
(42,225,l),
(134,118,l)
);
}
);
width = 612;
},
{
layerId = "384628A1-4A8A-4486-AB82-D1325BD310F0";
shapes = (
{
closed = 1;
nodes = (
(147,584,l),
(96,537,l),
(408,162,l),
(460,208,l)
);
},
{
closed = 1;
nodes = (
(505,531,l),
(458,584,l),
(52,215,l),
(98,162,l)
);
}
);
width = 528;
},
{
layerId = "2FBE8594-5CD7-4E1A-8146-362CAE16723C";
shapes = (
{
closed = 1;
nodes = (
(127,563,l),
(101,537,l),
(391,182,l),
(419,207,l)
);
},
{
closed = 1;
nodes = (
(463,535,l),
(438,563,l),
(57,211,l),
(81,182,l)
);
}
);
width = 490;
}
);
unicode = 215;
}
{
glyphname = Oslash;
layers = (
{
anchors = (
{
name = top;
position = "{470, 742}";
}
);
layerId = "4085F1A9-CD4F-447E-BF4E-06E18D46F28C";
shapes = (
{
closed = 1;
nodes = (
(856,665,l),
(780,755,l),
(-13,76,l),
(64,-15,l)
);
},
{
alignment = -1;
pos = (25,0);
ref = O;
}
);
width = 813;
},
{
anchors = (
{
name = top;
position = "{426, 742}";
}
);
layerId = "60E9CA7D-7455-4953-BBCB-0950C5D70619";
shapes = (
{
closed = 1;
nodes = (
(762.878,703,l),
(717.494,754,l),
(-10.587,38,l),
(33.831,-14,l)
);
},
{
alignment = -1;
ref = O;
}
);
width = 721;
},
{
anchors = (
{
name = top;
position = "{406, 742}";
}
);
layerId = "0B47C4A7-9101-48D0-A00F-70D9DFD57C4A";
shapes = (
{
closed = 1;
nodes = (
(716.35,720,l),
(688.8,749,l),
(-5.65,21,l),
(20.95,-9,l)
);
},
{
alignment = -1;
ref = O;
}
);
width = 679;
}
);
leftKerningGroup = Oslash2;
rightKerningGroup = Oslash;
unicode = 216;
}
{
glyphname = Thorn;
leftMetricsKey = P;
rightMetricsKey = P;
layers = (
{
layerId = "19535A56-B4B7-45FA-8766-5D6358701C99";
shapes = (
{
closed = 1;
nodes = (
(761,524,o),
(632,608,o),
(468,608,cs),
(336,608,l),
(355,742,l),
(128,742,l),
(24,0,l),
(251,0,l),
(270,142,l),
(437,142,ls),
(600,142,o),
(719,223,o),
(738,361,cs)
);
},
{
closed = 1;
nodes = (
(504,341,o),
(465,302,o),
(417,302,cs),
(293,302,l),
(314,448,l),
(440,448,ls),
(486,448,o),
(516,426,o),
(510,386,cs)
);
}
);
width = 733;
},
{
layerId = "AEBEF15D-4BBA-4516-955A-7DB830DF0DA8";
shapes = (
{
closed = 1;
nodes = (
(662,522,o),
(554,588,o),
(401,588,cs),
(240,588,l),
(261,742,l),
(160,742,l),
(59,0,l),
(160,0,l),
(183,170,l),
(360,170,ls),
(509,170,o),
(623,233,o),
(642,380,cs)
);
},
{
closed = 1;
nodes = (
(527,292,o),
(455,247,o),
(357,247,cs),
(193,247,l),
(229,511,l),
(390,511,ls),
(492,511,o),
(552,478,o),
(540,390,cs)
);
}
);
width = 648;
},
{
layerId = "ABC3C110-A709-486E-B3D5-BEE5600AE028";
shapes = (
{
closed = 1;
nodes = (
(617,521,o),
(519,579,o),
(371,579,cs),
(196,579,l),
(218,742,l),
(174,742,l),
(75,0,l),
(119,0,l),
(143,182,l),
(325,182,ls),
(467,182,o),
(579,238,o),
(599,388,cs)
);
},
{
closed = 1;
nodes = (
(538,269,o),
(450,222,o),
(329,222,cs),
(148,222,l),
(190,539,l),
(367,539,ls),
(495,539,o),
(568,502,o),
(554,392,cs)
);
}
);
width = 611;
}
);
leftKerningGroup = B;
rightKerningGroup = P;
unicode = 222;
}
{
glyphname = germandbls;
rightMetricsKey = s;
layers = (
{
layerId = "6D36DE7A-3498-4CCA-80AC-5FCC24B8EDC5";
shapes = (
{
closed = 1;
nodes = (
(193,742,o),
(117,616,o),
(98,496,c),
(42,496,l),
(24,361,l),
(80,361,l),
(28,0,l),
(224,0,l),
(299,529,ls),
(306,575,o),
(341,617,o),
(398,617,cs),
(436,617,o),
(451,601,o),
(448,579,cs),
(443,541,o),
(407,516,o),
(373,491,c),
(345,459,o),
(317,427,o),
(310,379,cs),
(299,301,o),
(344,251,o),
(407,226,c),
(452,201,o),
(472,193,o),
(469,169,c),
(463,132,o),
(429,113,o),
(395,113,cs),
(362,113,o),
(338,125,o),
(318,129,c),
(262,37,l),
(287,11,o),
(328,-10,o),
(397,-10,cs),
(534,-10,o),
(629,49,o),
(645,168,cs),
(665,307,o),
(563,358,o),
(456,402,c),
(456,407,o),
(455,409,o),
(455,407,c),
(456,415,o),
(463,422,o),
(469,421,c),
(576,465,o),
(617,505,o),
(626,570,cs),
(641,681,o),
(557,742,o),
(407,742,cs)
);
}
);
width = 663;
},
{
layerId = "52CA2DEC-CCDD-4868-A7D2-69659C24EBA2";
shapes = (
{
closed = 1;
nodes = (
(227,742,o),
(142,648,o),
(125,519,c),
(59,519,l),
(49,453,l),
(116,453,l),
(55,0,l),
(142,0,l),
(214,532,ls),
(227,626,o),
(286,677,o),
(364,677,cs),
(424,677,o),
(453,648,o),
(447,603,cs),
(440,549,o),
(394,528,o),
(352,505,c),
(294,470,o),
(263,441,o),
(257,393,cs),
(247,319,o),
(299,293,o),
(350,276,c),
(410,251,o),
(463,231,o),
(454,161,c),
(444,94,o),
(391,55,o),
(317,55,cs),
(276,55,o),
(249,66,o),
(222,81,c),
(189,32,l),
(218,6,o),
(269,-10,o),
(322,-10,cs),
(430,-10,o),
(520,48,o),
(536,160,cs),
(554,292,o),
(448,330,o),
(374,357,c),
(338,372,o),
(326,377,o),
(329,399,cs),
(333,427,o),
(350,436,o),
(396,459,cs),
(467,493,o),
(519,520,o),
(530,595,cs),
(540,673,o),
(497,742,o),
(373,742,cs)
);
}
);
width = 583;
},
{
layerId = "FE16441F-5029-4BC1-8299-959132AD36E4";
shapes = (
{
closed = 1;
nodes = (
(242,742,o),
(153,663,o),
(137,530,c),
(66,530,l),
(60,495,l),
(132,495,l),
(67,0,l),
(105,0,l),
(176,534,ls),
(191,649,o),
(261,704,o),
(349,704,cs),
(418,704,o),
(454,670,o),
(447,614,cs),
(438,552,o),
(388,533,o),
(343,511,cs),
(271,475,o),
(239,448,o),
(233,399,cs),
(223,327,o),
(279,312,o),
(324,298,c),
(391,274,o),
(459,248,o),
(447,157,cs),
(435,76,o),
(373,28,o),
(282,28,cs),
(237,28,o),
(209,39,o),
(179,59,c),
(156,29,l),
(186,4,o),
(242,-10,o),
(288,-10,cs),
(382,-10,o),
(471,47,o),
(486,156,cs),
(504,285,o),
(395,317,o),
(337,336,c),
(284,356,o),
(268,363,o),
(272,396,cs),
(277,432,o),
(299,443,o),
(363,476,cs),
(417,505,o),
(475,527,o),
(486,607,cs),
(494,669,o),
(470,742,o),
(357,742,cs)
);
}
);
width = 546;
}
);
leftKerningGroup = b2;
rightKerningGroup = s;
unicode = 223;
}
{
glyphname = ae;
leftMetricsKey = a;
rightMetricsKey = e;
layers = (
{
anchors = (
{
name = top;
position = "{496, 530}";
}
);
layerId = "B872A948-CF4A-4CBB-8276-18DBE9F9CB6F";
shapes = (
{
closed = 1;
nodes = (
(894,229,l),
(929,429,o),
(818,540,o),
(658,540,cs),
(610,540,o),
(559,529,o),
(508,500,c),
(477,522,o),
(420,539,o),
(327,540,cs),
(164,540,o),
(98,492,o),
(45,397,c),
(228,359,l),
(246,392,o),
(276,420,o),
(314,420,cs),
(337,420,o),
(377,415,o),
(366,364,cs),
(359,333,l),
(314,331,ls),
(121,322,o),
(20,256,o),
(5,154,cs),
(-8,58,o),
(46,-10,o),
(163,-10,cs),
(251,-10,o),
(318,8,o),
(386,62,c),
(388,69,o),
(396,79,o),
(402,79,c),
(442,24,o),
(512,-10,o),
(600,-10,cs),
(716,-10,o),
(789,16,o),
(884,128,c),
(751,186,l),
(702,139,o),
(668,122,o),
(630,122,cs),
(579,122,o),
(542,153,o),
(550,229,c)
);
},
{
closed = 1;
nodes = (
(704,422,o),
(736,373,o),
(734,327,c),
(567,327,l),
(574,389,o),
(616,422,o),
(661,422,cs)
);
},
{
closed = 1;
nodes = (
(336,166,ls),
(331,133,o),
(287,108,o),
(245,108,cs),
(210,108,o),
(195,121,o),
(198,145,cs),
(206,199,o),
(279,230,o),
(318,233,cs),
(346,235,l)
);
}
);
width = 922;
},
{
anchors = (
{
name = top;
position = "{485, 530}";
}
);
layerId = "CDE4D1C1-62F2-4871-801D-D4385200C2D4";
shapes = (
{
closed = 1;
nodes = (
(862.337,246,l),
(889.375,435,o),
(803.434,540,o),
(665.35,540,cs),
(589.066,540,o),
(521.472,510,o),
(472.225,446,c),
(457.741,507,o),
(406.562,540,o),
(312.897,540,c),
(205.712,540,o),
(129.428,496,o),
(78.25,417,c),
(154.534,389,l),
(197.987,444,o),
(246.269,476,o),
(302.275,476,cs),
(374.697,476,o),
(417.184,438,o),
(405.597,364,cs),
(399.803,323,l),
(297.447,315,ls),
(130.394,303,o),
(44.453,242,o),
(30.934,143,cs),
(18.381,50,o),
(70.525,-10,o),
(175.778,-10,cs),
(288.756,-10,o),
(354.419,44,o),
(403.666,92,c),
(404.631,97,o),
(408.494,102,o),
(411.391,100,c),
(438.428,53,o),
(488.641,-10,o),
(596.791,-10,cs),
(696.25,-10,o),
(778.328,32,o),
(835.3,112,c),
(774.466,147,l),
(735.841,102,o),
(691.422,57,o),
(608.378,57,cs),
(521.472,57,o),
(462.569,149,o),
(474.156,246,c)
);
},
{
closed = 1;
nodes = (
(746.462,477,o),
(799.572,396,o),
(788.95,302,c),
(483.812,302,l),
(498.297,408,o),
(575.547,477,o),
(662.453,477,cs)
);
},
{
closed = 1;
nodes = (
(379.525,174,ls),
(370.834,110,o),
(293.584,57,o),
(208.609,54,cs),
(141.981,51,o),
(111.081,86,o),
(117.841,139,cs),
(127.497,209,o),
(197.987,251,o),
(310.,260,cs),
(392.078,266,l)
);
}
);
width = 909;
},
{
anchors = (
{
name = top;
position = "{478, 530}";
}
);
hints = (
{
horizontal = 1;
place = (4060,123);
type = Stem;
}
);
layerId = "205523CA-C9A0-433B-A23D-3E9A8307D858";
shapes = (
{
closed = 1;
nodes = (
(847.45,254,l),
(870.25,437,o),
(796.15,540,o),
(666.95,540,cs),
(578.6,540,o),
(504.5,501,o),
(456.05,421,c),
(448.45,500,o),
(400.,540,o),
(305.,540,cs),
(223.3,540,o),
(142.55,498,o),
(92.2,426,c),
(121.65,402,l),
(175.8,467,o),
(231.85,502,o),
(295.5,502,cs),
(389.55,502,o),
(433.25,449,o),
(421.85,364,cs),
(416.15,319,l),
(289.8,308,ls),
(133.05,294,o),
(54.2,235,o),
(40.9,138,cs),
(28.55,46,o),
(80.8,-10,o),
(180.55,-10,cs),
(304.05,-10,o),
(368.65,61,o),
(409.5,106,c),
(410.45,110,o),
(412.35,112,o),
(414.25,110,c),
(436.1,66,o),
(476.95,-10,o),
(593.8,-10,cs),
(686.9,-10,o),
(772.4,39,o),
(813.25,104,c),
(782.85,129,l),
(748.65,85,o),
(700.2,28,o),
(597.6,28,cs),
(495.,28,o),
(426.6,147,o),
(439.9,253,c)
);
},
{
closed = 1;
nodes = (
(763.85,502,o),
(825.6,407,o),
(811.35,290,c),
(446.55,290,l),
(463.65,417,o),
(556.75,502,o),
(662.2,502,cs)
);
},
{
closed = 1;
nodes = (
(397.15,178,ls),
(386.7,100,o),
(295.5,34,o),
(191.95,29,cs),
(112.15,25,o),
(73.2,70,o),
(81.75,136,cs),
(92.2,214,o),
(161.55,260,o),
(305.95,272,cs),
(410.45,280,l)
);
}
);
width = 904;
}
);
leftKerningGroup = a2;
rightKerningGroup = b;
unicode = 230;
}
{
glyphname = eth;
leftMetricsKey = o;
rightMetricsKey = o;
layers = (
{
layerId = "19535A56-B4B7-45FA-8766-5D6358701C99";
shapes = (
{
closed = 1;
nodes = (
(598,434,o),
(540,579,o),
(428,666,c),
(489,694,l),
(461,758,l),
(369,704,l),
(330,724,o),
(285,741,o),
(232,749,c),
(132,676,l),
(164,661,o),
(194,647,o),
(223,631,c),
(133,587,l),
(165,527,l),
(281,593,l),
(305,572,o),
(321,556,o),
(337,535,c),
(336,528,o),
(331,520,o),
(323,520,cs),
(169,520,o),
(37,415,o),
(16,263,cs),
(-6,109,o),
(95,-10,o),
(263,-10,cs),
(426,-10,o),
(550,96,o),
(575,271,cs)
);
},
{
closed = 1;
nodes = (
(217,118,o),
(203,156,o),
(215,245,cs),
(229,345,o),
(264,396,o),
(321,396,cs),
(371,396,o),
(385,357,o),
(372,267,cs),
(359,169,o),
(324,118,o),
(266,118,cs)
);
}
);
width = 592;
},
{
layerId = "AEBEF15D-4BBA-4516-955A-7DB830DF0DA8";
shapes = (
{
closed = 1;
nodes = (
(553,425,o),
(511,567,o),
(384,667,c),
(470,711,l),
(452,755,l),
(345,695,l),
(310,717,o),
(272,736,o),
(225,751,c),
(170,714,l),
(208,695,o),
(242,678,o),
(274,659,c),
(133,583,l),
(153,542,l),
(313,632,l),
(371,585,o),
(404,534,o),
(423,477,c),
(398,504,o),
(360,520,o),
(310,520,cs),
(174,520,o),
(59,411,o),
(38,257,cs),
(18,102,o),
(103,-10,o),
(250,-10,cs),
(401,-10,o),
(508,99,o),
(530,259,cs)
);
},
{
closed = 1;
nodes = (
(164,56,o),
(113,136,o),
(127,250,c),
(144,368,o),
(221,455,o),
(315,455,cs),
(404,455,o),
(455,374,o),
(440,259,cs),
(424,141,o),
(348,56,o),
(255,56,cs)
);
}
);
width = 569;
},
{
layerId = "ABC3C110-A709-486E-B3D5-BEE5600AE028";
shapes = (
{
closed = 1;
nodes = (
(531,421,o),
(497,562,o),
(363,668,c),
(460,719,l),
(446,754,l),
(333,691,l),
(300,714,o),
(264,734,o),
(220,752,c),
(186,731,l),
(226,711,o),
(263,692,o),
(296,671,c),
(131,581,l),
(146,549,l),
(326,649,l),
(400,591,o),
(440,524,o),
(460,451,c),
(424,493,o),
(371,520,o),
(303,520,cs),
(175,520,o),
(67,409,o),
(47,254,cs),
(27,99,o),
(105,-10,o),
(242,-10,cs),
(388,-10,o),
(488,100,o),
(508,253,cs)
);
},
{
closed = 1;
nodes = (
(139,28,o),
(70,127,o),
(86,252,cs),
(104,379,o),
(200,482,o),
(311,482,cs),
(418,482,o),
(485,382,o),
(469,256,cs),
(452,128,o),
(358,28,o),
(248,28,cs)
);
}
);
width = 556;
}
);
leftKerningGroup = c;
rightKerningGroup = b;
unicode = 240;
}
{
glyphname = divide;
layers = (
{
layerId = "4A771BA9-DE6D-4DFF-875A-35CEAA78AE27";
shapes = (
{
closed = 1;
nodes = (
(230,243,l),
(230,61,l),
(420,61,l),
(420,243,l)
);
},
{
closed = 1;
nodes = (
(63,444,l),
(63,303,l),
(585,303,l),
(585,444,l)
);
},
{
closed = 1;
nodes = (
(230,686,l),
(230,504,l),
(420,504,l),
(420,686,l)
);
}
);
width = 613;
},
{
layerId = "063EDB9A-26EE-473F-A1FA-D59C439A67CE";
shapes = (
{
closed = 1;
nodes = (
(234,250,l),
(234,139,l),
(350,139,l),
(350,250,l)
);
},
{
closed = 1;
nodes = (
(72,408,l),
(72,337,l),
(510,338,l),
(510,408,l)
);
},
{
closed = 1;
nodes = (
(234,607,l),
(234,496,l),
(350,496,l),
(350,607,l)
);
}
);
width = 545;
},
{
layerId = "A1D8A8A0-7317-4958-838D-B74999429465";
shapes = (
{
closed = 1;
nodes = (
(234,253,l),
(234,174,l),
(316,174,l),
(316,253,l)
);
},
{
closed = 1;
nodes = (
(74,391,l),
(74,353,l),
(475,354,l),
(475,392,l)
);
},
{
closed = 1;
nodes = (
(234,571,l),
(234,492,l),
(316,492,l),
(316,571,l)
);
}
);
width = 514;
}
);
unicode = 247;
}
{
glyphname = oslash;
layers = (
{
anchors = (
{
name = top;
position = "{379, 530}";
}
);
layerId = "6D36DE7A-3498-4CCA-80AC-5FCC24B8EDC5";
shapes = (
{
closed = 1;
nodes = (
(580,537,l),
(0,61,l),
(59,-9,l),
(638,468,l)
);
},
{
alignment = -1;
pos = (33,0);
ref = o;
}
);
width = 636;
},
{
anchors = (
{
name = top;
position = "{347, 530}";
}
);
layerId = "52CA2DEC-CCDD-4868-A7D2-69659C24EBA2";
shapes = (
{
closed = 1;
nodes = (
(555.231,534,l),
(-7.728,38,l),
(26.069,-6,l),
(589.994,491,l)
);
},
{
alignment = -1;
pos = (16,0);
ref = o;
}
);
width = 579;
},
{
anchors = (
{
name = top;
position = "{337, 530}";
}
);
layerId = "FE16441F-5029-4BC1-8299-959132AD36E4";
shapes = (
{
closed = 1;
nodes = (
(544.8,532,l),
(-10.,27,l),
(12.8,-4,l),
(569.5,502,l)
);
},
{
alignment = -1;
pos = (13,0);
ref = o;
}
);
width = 557;
}
);
leftKerningGroup = c;
rightKerningGroup = b;
unicode = 248;
}
{
glyphname = thorn;
leftMetricsKey = n;
rightMetricsKey = o;
layers = (
{
layerId = "1B15BF9D-2282-46A0-8570-EB8A3FC863D6";
shapes = (
{
closed = 1;
nodes = (
(196,-165,l),
(228,68,l),
(288,-6,o),
(343,-10,o),
(374,-10,cs),
(482,-10,o),
(579,59,o),
(607,256,cs),
(634,448,o),
(558,540,o),
(443,540,cs),
(380,540,o),
(335,520,o),
(288,483,c),
(324,742,l),
(123,742,l),
(-4,-165,l)
);
},
{
closed = 1;
nodes = (
(276,110,o),
(243,129,o),
(237,146,c),
(269,357,ls),
(274,389,o),
(313,419,o),
(356,419,cs),
(404,419,o),
(424,395,o),
(409,284,c),
(386,182,o),
(374,110,o),
(292,110,cs)
);
}
);
width = 627;
},
{
layerId = "384628A1-4A8A-4486-AB82-D1325BD310F0";
shapes = (
{
closed = 1;
nodes = (
(119,-165,l),
(148,58,l),
(200,-2,o),
(258,-10,o),
(295,-10,cs),
(424,-10,o),
(525,90,o),
(549,268,cs),
(574,450,o),
(493,540,o),
(372,540,cs),
(280,540,o),
(231,488,o),
(203,464,c),
(241,742,l),
(153,742,l),
(30,-165,l)
);
},
{
closed = 1;
nodes = (
(226,54,o),
(185,79,o),
(155,116,c),
(190,361,ls),
(197,412,o),
(261,476,o),
(341,476,cs),
(421,476,o),
(479,420,o),
(460,276,c),
(439,139,o),
(371,54,o),
(270,54,cs)
);
}
);
width = 586;
},
{
layerId = "2FBE8594-5CD7-4E1A-8146-362CAE16723C";
shapes = (
{
closed = 1;
nodes = (
(84,-165,l),
(112,54,l),
(160,0,o),
(220,-10,o),
(259,-10,cs),
(397,-10,o),
(500,104,o),
(523,273,cs),
(546,451,o),
(463,540,o),
(340,540,cs),
(235,540,o),
(183,473,o),
(164,455,c),
(203,742,l),
(166,742,l),
(46,-165,l)
);
},
{
closed = 1;
nodes = (
(203,28,o),
(159,56,o),
(118,103,c),
(154,363,ls),
(162,423,o),
(238,502,o),
(334,502,cs),
(428,502,o),
(504,431,o),
(483,273,cs),
(463,120,o),
(370,28,o),
(260,28,cs)
);
}
);
width = 568;
}
);
leftKerningGroup = b2;
rightKerningGroup = b;
unicode = 254;
}
{
glyphname = dcroat;
leftMetricsKey = d;
layers = (
{
layerId = "B872A948-CF4A-4CBB-8276-18DBE9F9CB6F";
shapes = (
{
closed = 1;
nodes = (
(338,687,l),
(323,580,l),
(695,580,l),
(709,687,l)
);
},
{
alignment = -1;
ref = d;
}
);
width = 673;
},
{
anchors = (
{
name = bottom;
position = "{245, 0}";
},
{
name = center;
position = "{289, 265}";
},
{
name = topright;
position = "{638, 676}";
}
);
layerId = "CDE4D1C1-62F2-4871-801D-D4385200C2D4";
shapes = (
{
closed = 1;
nodes = (
(358,670,l),
(350,612,l),
(655,612,l),
(662,670,l)
);
},
{
alignment = -1;
ref = d;
}
);
width = 630;
},
{
layerId = "205523CA-C9A0-433B-A23D-3E9A8307D858";
shapes = (
{
closed = 1;
nodes = (
(367,662,l),
(362,627,l),
(637,627,l),
(641,662,l)
);
},
{
alignment = -1;
ref = d;
}
);
width = 611;
}
);
leftKerningGroup = c;
unicode = 273;
}
{
glyphname = gcommaaccent;
layers = (
{
anchors = (
{
name = _top;
position = "{381, 550}";
}
);
layerId = "B872A948-CF4A-4CBB-8276-18DBE9F9CB6F";
shapes = (
{
closed = 1;
nodes = (
(453,599,l),
(469,702,l),
(402,702,l),
(483,796,l),
(429,796,l),
(340,708,l),
(324,599,l)
);
},
{
alignment = -1;
pos = (1,0);
ref = g;
}
);
width = 654;
},
{
anchors = (
{
name = _top;
position = "{358, 550}";
}
);
layerId = "CDE4D1C1-62F2-4871-801D-D4385200C2D4";
shapes = (
{
closed = 1;
nodes = (
(406,622,l),
(417,711,l),
(381,711,l),
(434,789,l),
(398,789,l),
(340,715,l),
(327,622,l)
);
},
{
alignment = -1;
pos = (1,0);
ref = g;
}
);
width = 591;
},
{
anchors = (
{
name = _top;
position = "{348, 550}";
}
);
layerId = "205523CA-C9A0-433B-A23D-3E9A8307D858";
shapes = (
{
closed = 1;
nodes = (
(384,632,l),
(394,715,l),
(371,715,l),
(411,786,l),
(384,786,l),
(340,718,l),
(329,632,l)
);
},
{
alignment = -1;
pos = (1,0);
ref = g;
}
);
width = 563;
}
);
leftKerningGroup = g2;
rightKerningGroup = g;
unicode = 291;
}
{
glyphname = Hbar;
layers = (
{
layerId = "6D36DE7A-3498-4CCA-80AC-5FCC24B8EDC5";
shapes = (
{
closed = 1;
nodes = (
(23,658,l),
(9,555,l),
(807,555,l),
(823,658,l)
);
},
{
alignment = -1;
pos = (-11,0);
ref = H;
}
);
width = 810;
},
{
anchors = (
{
name = bottom;
position = "{285, 0}";
},
{
name = top;
position = "{386, 742}";
}
);
layerId = "52CA2DEC-CCDD-4868-A7D2-69659C24EBA2";
shapes = (
{
closed = 1;
nodes = (
(20,631,l),
(12,571,l),
(717,571,l),
(725,631,l)
);
},
{
alignment = -1;
pos = (-30,0);
ref = H;
}
);
width = 716;
},
{
layerId = "FE16441F-5029-4BC1-8299-959132AD36E4";
shapes = (
{
closed = 1;
nodes = (
(18,618,l),
(14,578,l),
(676,578,l),
(680,618,l)
);
},
{
alignment = -1;
pos = (-39,0);
ref = H;
}
);
width = 673;
}
);
leftKerningGroup = B;
rightKerningGroup = H;
unicode = 294;
}
{
glyphname = hbar;
rightMetricsKey = h;
layers = (
{
layerId = "53698F14-3379-49FD-849B-EB3564F78825";
shapes = (
{
closed = 1;
nodes = (
(63,687,l),
(48,580,l),
(420,580,l),
(434,687,l)
);
},
{
alignment = -1;
pos = (-3,0);
ref = h;
}
);
width = 633;
},
{
anchors = (
{
name = bottom;
position = "{246, 0}";
},
{
name = top;
position = "{375, 530}";
}
);
layerId = "3A2F0B01-8BAD-43D2-BFC9-C9D3CCE0022F";
shapes = (
{
closed = 1;
nodes = (
(70,670,l),
(62,612,l),
(367,612,l),
(375,670,l)
);
},
{
alignment = -1;
pos = (-28,0);
ref = h;
}
);
width = 560;
},
{
layerId = "4B62E599-A761-4CCD-BB2B-30B6A69879C7";
shapes = (
{
closed = 1;
nodes = (
(73,662,l),
(68,627,l),
(343,627,l),
(348,662,l)
);
},
{
alignment = -1;
pos = (-39,0);
ref = h;
}
);
width = 527;
}
);
leftKerningGroup = b2;
rightKerningGroup = a;
unicode = 295;
}
